<svg width="28" height="38" viewBox="0 0 28 38" fill="none" xmlns="http://www.w3.org/2000/svg">
<g filter="url(#filter0_f_186_58487)">
<ellipse cx="12.4453" cy="29.7559" rx="4" ry="2" fill="black" fill-opacity="0.12"/>
</g>
<mask id="path-2-outside-1_186_58487" maskUnits="userSpaceOnUse" x="1.74219" y="2.05078" width="25" height="32" fill="black">
<rect fill="white" x="1.74219" y="2.05078" width="25" height="32"/>
<path d="M14.2158 3.05078C20.5523 3.05096 25.6895 8.18787 25.6895 14.5244C25.6893 18.2781 23.8855 21.61 21.0986 23.7031H21.0996C18.9356 25.3261 15.8109 27.9073 15.1006 32.1006C15.0265 32.5381 14.6595 32.8778 14.2158 32.8779C13.7719 32.8779 13.4052 32.5382 13.3311 32.1006C12.6208 27.9072 9.49506 25.3261 7.33105 23.7031H7.33203C4.54525 21.6099 2.74229 18.2781 2.74219 14.5244C2.74219 8.18776 7.87917 3.05078 14.2158 3.05078Z"/>
</mask>
<path d="M14.2158 3.05078C20.5523 3.05096 25.6895 8.18787 25.6895 14.5244C25.6893 18.2781 23.8855 21.61 21.0986 23.7031H21.0996C18.9356 25.3261 15.8109 27.9073 15.1006 32.1006C15.0265 32.5381 14.6595 32.8778 14.2158 32.8779C13.7719 32.8779 13.4052 32.5382 13.3311 32.1006C12.6208 27.9072 9.49506 25.3261 7.33105 23.7031H7.33203C4.54525 21.6099 2.74229 18.2781 2.74219 14.5244C2.74219 8.18776 7.87917 3.05078 14.2158 3.05078Z" fill="#002B3F"/>
<path d="M14.2158 3.05078L14.2158 2.05078H14.2158V3.05078ZM25.6895 14.5244L26.6895 14.5244V14.5244H25.6895ZM21.0986 23.7031L20.4981 22.9035L18.1021 24.7031H21.0986V23.7031ZM21.0996 23.7031L21.6996 24.5031L24.0996 22.7031H21.0996V23.7031ZM15.1006 32.1006L14.1146 31.9336L14.1146 31.9336L15.1006 32.1006ZM14.2158 32.8779V33.8779H14.2162L14.2158 32.8779ZM13.3311 32.1006L14.317 31.9336L14.317 31.9336L13.3311 32.1006ZM7.33105 23.7031V22.7031H4.33105L6.73105 24.5031L7.33105 23.7031ZM7.33203 23.7031V24.7031H10.3285L7.9326 22.9036L7.33203 23.7031ZM2.74219 14.5244H1.74219V14.5244L2.74219 14.5244ZM14.2158 3.05078L14.2158 4.05078C20.0001 4.05094 24.6895 8.74019 24.6895 14.5244H25.6895H26.6895C26.6895 7.63556 21.1046 2.05097 14.2158 2.05078L14.2158 3.05078ZM25.6895 14.5244L24.6895 14.5244C24.6894 17.95 23.0446 20.9909 20.4981 22.9035L21.0986 23.7031L21.6992 24.5027C24.7265 22.229 26.6893 18.6063 26.6895 14.5244L25.6895 14.5244ZM21.0986 23.7031V24.7031H21.0996V23.7031V22.7031H21.0986V23.7031ZM21.0996 23.7031L20.4996 22.9031C18.3281 24.5318 14.8962 27.3196 14.1146 31.9336L15.1006 32.1006L16.0865 32.2676C16.7256 28.4951 19.5432 26.1205 21.6996 24.5031L21.0996 23.7031ZM15.1006 32.1006L14.1146 31.9336C14.1157 31.927 14.1193 31.9176 14.131 31.9072C14.1449 31.8947 14.1753 31.8779 14.2154 31.8779L14.2158 32.8779L14.2162 33.8779C15.1938 33.8776 15.939 33.139 16.0865 32.2676L15.1006 32.1006ZM14.2158 32.8779V31.8779C14.256 31.8779 14.2866 31.8947 14.3007 31.9073C14.3125 31.9178 14.3159 31.9273 14.317 31.9336L13.3311 32.1006L12.3451 32.2676C12.4926 33.1387 13.2375 33.8779 14.2158 33.8779V32.8779ZM13.3311 32.1006L14.317 31.9336C13.5355 27.3194 10.1024 24.5317 7.93105 22.9031L7.33105 23.7031L6.73105 24.5031C8.88769 26.1206 11.7061 28.495 12.3451 32.2676L13.3311 32.1006ZM7.33105 23.7031V24.7031H7.33203V23.7031V22.7031H7.33105V23.7031ZM7.33203 23.7031L7.9326 22.9036C5.38634 20.991 3.74228 17.9501 3.74219 14.5244L2.74219 14.5244L1.74219 14.5244C1.7423 18.606 3.70415 22.2289 6.73146 24.5027L7.33203 23.7031ZM2.74219 14.5244H3.74219C3.74219 8.74005 8.43145 4.05078 14.2158 4.05078V3.05078V2.05078C7.32688 2.05078 1.74219 7.63548 1.74219 14.5244H2.74219Z" fill="url(#paint0_linear_186_58487)" mask="url(#path-2-outside-1_186_58487)"/>
<g clip-path="url(#clip0_186_58487)">
<path d="M14.3849 20.5492C17.7861 20.5492 20.5433 17.792 20.5433 14.3908C20.5433 10.9896 17.7861 8.23242 14.3849 8.23242C10.9838 8.23242 8.22656 10.9896 8.22656 14.3908C8.22656 17.792 10.9838 20.5492 14.3849 20.5492Z" stroke="white" stroke-linecap="round" stroke-linejoin="round"/>
<path d="M16.0613 12.0912C16.3622 11.9909 16.5126 11.9408 16.6126 11.9765C16.6997 12.0075 16.7682 12.076 16.7992 12.1631C16.8349 12.2631 16.7848 12.4136 16.6845 12.7144L15.7684 15.4627C15.7398 15.5484 15.7256 15.5912 15.7012 15.6268C15.6797 15.6583 15.6524 15.6855 15.6209 15.7071C15.5853 15.7314 15.5425 15.7457 15.4568 15.7743L12.7086 16.6903C12.4077 16.7906 12.2573 16.8408 12.1572 16.8051C12.0702 16.7741 12.0017 16.7056 11.9706 16.6185C11.9349 16.5185 11.9851 16.368 12.0854 16.0672L13.0015 13.3189C13.03 13.2332 13.0443 13.1904 13.0686 13.1548C13.0902 13.1233 13.1174 13.0961 13.1489 13.0745C13.1845 13.0502 13.2274 13.0359 13.313 13.0073L16.0613 12.0912Z" stroke="white" stroke-linecap="round" stroke-linejoin="round"/>
</g>
<defs>
<filter id="filter0_f_186_58487" x="6.44531" y="25.7559" width="12" height="8" filterUnits="userSpaceOnUse" color-interpolation-filters="sRGB">
<feFlood flood-opacity="0" result="BackgroundImageFix"/>
<feBlend mode="normal" in="SourceGraphic" in2="BackgroundImageFix" result="shape"/>
<feGaussianBlur stdDeviation="1" result="effect1_foregroundBlur_186_58487"/>
</filter>
<linearGradient id="paint0_linear_186_58487" x1="14.2158" y1="3.05078" x2="14.2158" y2="32.8779" gradientUnits="userSpaceOnUse">
<stop stop-color="white"/>
<stop offset="1" stop-color="white" stop-opacity="0.35"/>
</linearGradient>
<clipPath id="clip0_186_58487">
<rect width="14.7801" height="14.7801" fill="white" transform="translate(6.99609 7)"/>
</clipPath>
</defs>
</svg>
