<svg width="24" height="24" viewBox="0 0 24 24" fill="none" xmlns="http://www.w3.org/2000/svg">
<g clip-path="url(#clip0_193_88868)">
<path d="M24 0H0V24H24V0Z" fill="url(#paint0_linear_193_88868)"/>
<path d="M19.175 12.4386C19.0074 11.8139 18.7652 11.3533 18.3694 10.6465C18.239 10.4459 18.0761 10.2225 17.9271 9.98534C16.2181 7.5047 12.8467 3.1727 12.5394 2.8991C12.5394 2.8991 12.5161 2.88086 12.5021 2.88086C12.4835 2.88086 12.4602 2.8991 12.4602 2.8991C12.1529 3.17726 8.78155 7.50926 7.07259 9.9899C6.92358 10.227 6.7606 10.4505 6.63021 10.6511C6.23906 11.3579 5.99692 11.8185 5.82463 12.4432C5.61508 13.3461 5.60577 14.4633 5.79669 15.3844C5.96898 16.1915 6.75128 17.0169 7.5429 17.6325L8.74895 18.5718C8.74895 18.5718 12.125 20.9521 12.437 21.1026C12.437 21.1026 12.4696 21.1209 12.5021 21.1209C12.5347 21.1209 12.5673 21.1026 12.5673 21.1026C12.884 20.9521 16.2553 18.5718 16.2553 18.5718L17.4614 17.6325C18.253 17.0169 19.0353 16.1915 19.2076 15.3844C19.3939 14.4587 19.3846 13.3369 19.175 12.4386ZM11.4405 18.6493C11.4172 18.6858 11.3613 18.6721 11.324 18.6721C11.1285 18.5353 10.6395 18.1888 10.6395 18.1888C9.80134 17.5777 8.95384 17.0169 8.14825 16.3876C6.91426 15.0561 7.03999 13.7245 7.41717 12.393C7.43114 12.3064 7.47305 12.1787 7.58947 12.1513C7.93871 12.6529 8.67445 13.6926 8.67445 13.6926C9.39156 14.7049 10.267 15.6169 11.0912 16.5654C11.6547 17.0807 11.4265 17.9334 11.4405 18.6493ZM12.5021 16.0091C12.4835 16.0091 12.4602 15.9954 12.4323 15.9726C11.3613 14.7323 10.1506 13.3278 9.08422 12.0829C8.89331 11.7683 8.69773 11.4628 8.67445 11.0569C8.66048 10.7377 8.64185 10.4459 8.91193 10.0492C8.91193 10.0492 9.08888 9.79838 9.1401 9.72086C9.1401 9.72086 11.3194 6.71582 12.4696 5.2931C12.4696 5.2931 12.4835 5.27486 12.5021 5.27486C12.5208 5.27486 12.5347 5.2931 12.5347 5.2931C13.6849 6.71582 15.8642 9.72086 15.8642 9.72086C15.9154 9.79382 16.0924 10.0492 16.0924 10.0492C16.3578 10.4459 16.3392 10.7377 16.3252 11.0569C16.3019 11.4628 16.1063 11.7683 15.9154 12.0829C14.8491 13.3278 13.6384 14.7323 12.5673 15.9726C12.5394 16 12.5115 16.0091 12.5021 16.0091ZM16.8421 16.3921C16.0365 17.0169 15.189 17.5823 14.3462 18.1933C14.3462 18.1933 13.8572 18.5399 13.6616 18.6767C13.6244 18.6813 13.5685 18.6904 13.5452 18.6539C13.5592 17.938 13.331 17.0807 13.8991 16.57C14.7233 15.6215 15.5988 14.7095 16.3159 13.6972C16.3159 13.6972 17.0563 12.6621 17.4055 12.1559C17.5219 12.1787 17.5638 12.3109 17.5732 12.3976C17.955 13.7291 18.0807 15.0561 16.8421 16.3921Z" fill="white"/>
</g>
<defs>
<linearGradient id="paint0_linear_193_88868" x1="12" y1="0" x2="12" y2="24" gradientUnits="userSpaceOnUse">
<stop stop-color="#2239AB"/>
<stop offset="1" stop-color="#081274"/>
</linearGradient>
<clipPath id="clip0_193_88868">
<rect width="24" height="24" rx="5" fill="white"/>
</clipPath>
</defs>
</svg>
