<svg width="120" height="120" viewBox="0 0 120 120" fill="none" xmlns="http://www.w3.org/2000/svg">
<path d="M96.675 53.1844C97.9495 53.1844 98.9827 52.1512 98.9827 50.8766C98.9827 49.6021 97.9495 48.5688 96.675 48.5688C95.4004 48.5688 94.3672 49.6021 94.3672 50.8766C94.3672 52.1512 95.4004 53.1844 96.675 53.1844Z" fill="#F9FAFB"/>
<path d="M59.9996 101.632C82.655 101.632 101.021 94.4275 101.021 85.54C101.021 76.6525 82.655 69.4478 59.9996 69.4478C37.3443 69.4478 18.9785 76.6525 18.9785 85.54C18.9785 94.4275 37.3443 101.632 59.9996 101.632Z" fill="#F9FAFB"/>
<path d="M58.6823 27.5913L56.9779 38.2758H45.9023L58.6823 27.5913Z" fill="#D0D5DD"/>
<path d="M56.9782 38.5257H45.9027C45.7971 38.5257 45.7038 38.4601 45.6671 38.3612C45.6316 38.2623 45.6616 38.1512 45.7416 38.0846L58.5216 27.399C58.6016 27.3323 58.7149 27.3223 58.8049 27.3735C58.896 27.4246 58.9449 27.5268 58.9282 27.6301L57.2238 38.3157C57.206 38.4368 57.1016 38.5257 56.9782 38.5257ZM46.5916 38.0257H56.7649L58.3305 28.2112L46.5916 38.0257Z" fill="#F9FAFB"/>
<path d="M59.7042 47.6767C59.6275 47.6767 59.5509 47.6411 59.502 47.5744L58.8275 46.6544C58.752 46.5511 58.7664 46.4067 58.862 46.32C58.9575 46.2344 59.1031 46.2344 59.1975 46.3222C59.202 46.3267 59.2075 46.3311 59.212 46.3367C59.2164 46.3411 59.2209 46.3467 59.2242 46.3511C59.2353 46.3644 59.2475 46.3822 59.2598 46.3989L59.9053 47.2789C59.9864 47.39 59.9631 47.5467 59.852 47.6278C59.8075 47.6611 59.7564 47.6767 59.7042 47.6767Z" fill="#F9FAFB"/>
<mask id="mask0_4173_88927" style="mask-type:luminance" maskUnits="userSpaceOnUse" x="58" y="46" width="2" height="2">
<path d="M59.7042 47.6767C59.6275 47.6767 59.5509 47.6411 59.502 47.5744L58.8275 46.6544C58.752 46.5511 58.7664 46.4067 58.862 46.32C58.9575 46.2344 59.1031 46.2344 59.1975 46.3222C59.202 46.3267 59.2075 46.3311 59.212 46.3367C59.2164 46.3411 59.2209 46.3467 59.2242 46.3511C59.2353 46.3644 59.2475 46.3822 59.2598 46.3989L59.9053 47.2789C59.9864 47.39 59.9631 47.5467 59.852 47.6278C59.8075 47.6611 59.7564 47.6767 59.7042 47.6767Z" fill="white"/>
</mask>
<g mask="url(#mask0_4173_88927)">
<path d="M59.5634 47.1725L62.3656 50.9925C62.1989 50.7647 62.0211 50.5436 61.8323 50.328C59.76 47.9669 56.7389 46.7858 53.53 46.7858C52.1378 46.7858 50.7111 47.008 49.31 47.4525L46.5078 43.6325C47.9089 43.188 49.3356 42.9658 50.7278 42.9658C53.9367 42.9658 56.9578 44.1469 59.03 46.508C59.2189 46.7236 59.3967 46.9447 59.5634 47.1725Z" fill="#667185"/>
<path d="M62.3653 51.2425C62.2886 51.2425 62.2119 51.2069 62.1631 51.1403C62.0008 50.918 61.8253 50.7003 61.6431 50.4925C59.6864 48.2636 56.8053 47.0358 53.5286 47.0358C52.1475 47.0358 50.7542 47.2558 49.3842 47.6903C49.2819 47.7225 49.1708 47.6858 49.1064 47.6003L46.3042 43.7803C46.2564 43.7158 46.2431 43.6314 46.2686 43.5547C46.2931 43.478 46.3542 43.418 46.4308 43.3936C47.8497 42.9436 49.2942 42.7158 50.7264 42.7158C54.1486 42.7158 57.1642 44.0036 59.2164 46.3425C59.4086 46.5614 59.5919 46.7914 59.7642 47.0247L62.5642 50.8425C62.5653 50.8436 62.5653 50.8447 62.5664 50.8447C62.6475 50.9558 62.6242 51.1125 62.5131 51.1947C62.4686 51.2269 62.4175 51.2425 62.3653 51.2425ZM53.5297 46.5358C56.0953 46.5358 58.432 47.2603 60.3064 48.608L59.362 47.3203C59.1997 47.098 59.0242 46.8803 58.842 46.6725C56.8853 44.4436 54.0042 43.2158 50.7275 43.2158C49.4586 43.2158 48.1786 43.4014 46.9175 43.7692L49.4053 47.1614C50.7686 46.7458 52.1553 46.5358 53.5297 46.5358Z" fill="#F9FAFB"/>
</g>
<path d="M44.8822 64.8189C44.8133 64.8189 44.7455 64.7912 44.6955 64.7356L44.6566 64.6911C44.5277 64.5434 44.4044 64.39 44.2899 64.2345L41.4877 60.4145C41.4066 60.3034 41.4299 60.1467 41.5411 60.0656C41.6522 59.9845 41.8088 60.0078 41.8911 60.1189L41.8933 60.1223C41.9988 60.2656 42.1122 60.4067 42.2311 60.5423L42.2666 60.5823C42.2722 60.5889 42.2777 60.5945 42.2822 60.6012L45.0844 64.4211C45.1633 64.5289 45.1444 64.6789 45.0399 64.7634C44.9933 64.8012 44.9366 64.8189 44.8822 64.8189Z" fill="#F9FAFB"/>
<mask id="mask1_4173_88927" style="mask-type:luminance" maskUnits="userSpaceOnUse" x="41" y="60" width="5" height="5">
<path d="M44.8822 64.8189C44.8133 64.8189 44.7455 64.7912 44.6955 64.7356L44.6566 64.6911C44.5277 64.5434 44.4044 64.39 44.2899 64.2345L41.4877 60.4145C41.4066 60.3034 41.4299 60.1467 41.5411 60.0656C41.6522 59.9845 41.8088 60.0078 41.8911 60.1189L41.8933 60.1223C41.9988 60.2656 42.1122 60.4067 42.2311 60.5423L42.2666 60.5823C42.2722 60.5889 42.2777 60.5945 42.2822 60.6012L45.0844 64.4211C45.1633 64.5289 45.1444 64.6789 45.0399 64.7634C44.9933 64.8012 44.9366 64.8189 44.8822 64.8189Z" fill="white"/>
</mask>
<g mask="url(#mask1_4173_88927)">
<g opacity="0.6">
<path d="M42.2839 60.9668L45.0861 64.7868C45.0039 64.7024 44.9228 64.6157 44.845 64.5268C44.7195 64.3846 44.6017 64.2368 44.4917 64.0868L41.6895 60.2668C41.7995 60.4168 41.9172 60.5646 42.0428 60.7068C42.1206 60.7957 42.2017 60.8824 42.2839 60.9668Z" fill="#667185"/>
<path d="M45.0847 65.0367C45.0191 65.0367 44.9547 65.0112 44.9058 64.9612C44.8191 64.8734 44.7347 64.7823 44.6547 64.6911C44.5258 64.5445 44.4024 64.3911 44.288 64.2345L41.4858 60.4145C41.4047 60.3034 41.428 60.1467 41.5391 60.0656C41.6502 59.9845 41.8069 60.0078 41.8891 60.1189L41.8913 60.1223C41.9969 60.2656 42.1102 60.4067 42.2291 60.5423C42.3035 60.6267 42.3813 60.7112 42.4613 60.7923C42.4702 60.8012 42.4769 60.81 42.4847 60.8189L45.2869 64.6389C45.3647 64.7445 45.3469 64.8923 45.2469 64.9778C45.2002 65.0178 45.1424 65.0367 45.0847 65.0367Z" fill="#F9FAFB"/>
</g>
</g>
<path d="M45.0856 65.0367C45.02 65.0367 44.9556 65.0112 44.9067 64.9612C44.8345 64.8879 44.7634 64.8123 44.6945 64.7345C44.6923 64.7312 44.6889 64.729 44.6867 64.7256C44.6578 64.6901 44.6245 64.6434 44.5934 64.6001L44.5589 64.5523L41.8767 60.8956C41.7978 60.7879 41.8167 60.6378 41.9211 60.5534C42.0245 60.469 42.1756 60.4812 42.2645 60.5812C42.3289 60.6523 42.3945 60.7223 42.4611 60.7912C42.4689 60.8001 42.4767 60.809 42.4845 60.8178L45.2867 64.6378C45.3645 64.7434 45.3467 64.8912 45.2467 64.9767C45.2 65.0178 45.1434 65.0367 45.0856 65.0367Z" fill="#F9FAFB"/>
<mask id="mask2_4173_88927" style="mask-type:luminance" maskUnits="userSpaceOnUse" x="41" y="60" width="5" height="6">
<path d="M45.0856 65.0367C45.02 65.0367 44.9556 65.0112 44.9067 64.9612C44.8345 64.8879 44.7634 64.8123 44.6945 64.7345C44.6923 64.7312 44.6889 64.729 44.6867 64.7256C44.6578 64.6901 44.6245 64.6434 44.5934 64.6001L44.5589 64.5523L41.8767 60.8956C41.7978 60.7879 41.8167 60.6378 41.9211 60.5534C42.0245 60.469 42.1756 60.4812 42.2645 60.5812C42.3289 60.6523 42.3945 60.7223 42.4611 60.7912C42.4689 60.8001 42.4767 60.809 42.4845 60.8178L45.2867 64.6378C45.3645 64.7434 45.3467 64.8912 45.2467 64.9767C45.2 65.0178 45.1434 65.0367 45.0856 65.0367Z" fill="white"/>
</mask>
<g mask="url(#mask2_4173_88927)">
<g opacity="0.6">
<path d="M42.2839 60.9668L45.0861 64.7868C45.0039 64.7024 44.9228 64.6157 44.845 64.5268C44.7195 64.3846 44.6017 64.2368 44.4917 64.0868L41.6895 60.2668C41.7995 60.4168 41.9172 60.5646 42.0428 60.7068C42.1206 60.7957 42.2017 60.8824 42.2839 60.9668Z" fill="#667185"/>
<path d="M45.0847 65.0367C45.0191 65.0367 44.9547 65.0112 44.9058 64.9612C44.8191 64.8734 44.7347 64.7823 44.6547 64.6911C44.5258 64.5445 44.4024 64.3911 44.288 64.2345L41.4858 60.4145C41.4047 60.3034 41.428 60.1467 41.5391 60.0656C41.6502 59.9845 41.8069 60.0078 41.8891 60.1189L41.8913 60.1223C41.9969 60.2656 42.1102 60.4067 42.2291 60.5423C42.3035 60.6267 42.3813 60.7112 42.4613 60.7923C42.4702 60.8012 42.4769 60.81 42.4847 60.8189L45.2869 64.6389C45.3647 64.7445 45.3469 64.8923 45.2469 64.9778C45.2002 65.0178 45.1424 65.0367 45.0847 65.0367Z" fill="#F9FAFB"/>
</g>
</g>
<path d="M56.825 56.2734C56.7583 56.4845 56.6816 56.6967 56.5972 56.9056C56.4161 57.3545 56.1961 57.7956 55.9372 58.2234C55.8127 58.4289 55.6805 58.6323 55.5372 58.8323C55.0527 59.5156 54.4638 60.1578 53.7749 60.7323C51.9005 62.3 49.6472 63.0823 47.5183 63.0823C45.3905 63.0823 43.3872 62.2989 42.0138 60.7323C39.2638 57.5989 40.0738 52.5212 43.8216 49.39C45.6961 47.8223 47.9494 47.04 50.0783 47.04C52.2061 47.04 54.2094 47.8234 55.5827 49.39C55.6227 49.4356 55.6605 49.48 55.6961 49.5256C55.8749 49.7412 56.0394 49.9667 56.1861 50.1967C56.4516 50.6145 56.6616 51.0534 56.8238 51.5134C56.9072 51.7467 56.9761 51.9856 57.0305 52.2278C57.3316 53.5234 57.255 54.9189 56.825 56.2734Z" fill="#E4E7EC"/>
<path d="M57.0294 52.2278H49.7005C48.9272 52.2278 48.3949 51.6245 48.5149 50.8778C48.6338 50.1312 49.3572 49.5278 50.1316 49.5278H55.6961C55.8749 49.7434 56.0394 49.9689 56.1861 50.1989C56.4516 50.6167 56.6616 51.0556 56.8238 51.5156C56.9061 51.7467 56.9749 51.9856 57.0294 52.2278Z" fill="#98A2B3"/>
<path d="M56.8218 56.2733C56.7552 56.4844 56.6785 56.6967 56.594 56.9056C56.4129 57.3544 56.1929 57.7955 55.934 58.2233C55.8096 58.4289 55.6774 58.6322 55.534 58.8322H48.5696C47.8352 58.8322 47.3352 58.2589 47.4474 57.5522C47.5607 56.8455 48.2452 56.2722 48.9774 56.2722H56.8218V56.2733Z" fill="#98A2B3"/>
<path d="M58.9055 27.4055H89.8221L89.3499 30.3677L81.2255 81.3077H42.1121H39.041L41.4977 65.9011C43.1155 66.7389 44.9621 67.1577 46.8743 67.1577C49.4443 67.1577 52.1344 66.4011 54.5555 64.8866H76.2332C76.6099 64.8866 76.9599 64.5933 77.0188 64.23C77.0766 63.8689 76.8188 63.5755 76.4432 63.5755H56.3521C58.1877 62.0289 59.5488 60.1711 60.4066 58.2089H77.2988C77.6755 58.2089 78.0255 57.9155 78.0832 57.5544C78.141 57.1922 77.8832 56.8977 77.5077 56.8977H60.9021C61.4721 55.11 61.6299 53.2733 61.3588 51.5311H78.3632C78.7399 51.5311 79.0899 51.2377 79.1477 50.8766C79.2055 50.5144 78.9477 50.22 78.5721 50.22H61.0666C60.671 48.8722 59.9966 47.61 59.031 46.5066C56.9588 44.1455 53.9377 42.9644 50.7288 42.9644C48.8177 42.9644 46.841 43.3833 44.9566 44.22L45.9044 38.2744H56.9799L58.6843 27.5911L58.9055 27.4055ZM75.1688 71.5633C75.5455 71.5633 75.8955 71.27 75.9544 70.9066C76.0121 70.5455 75.7543 70.2522 75.3788 70.2522H49.0066C48.6321 70.2522 48.281 70.5455 48.2232 70.9066C48.1655 71.2689 48.4232 71.5633 48.7977 71.5633H75.1688ZM79.4288 44.8544C79.8055 44.8544 80.1555 44.5611 80.2132 44.2C80.271 43.8377 80.0132 43.5433 79.6377 43.5433H61.761C61.3855 43.5433 61.0355 43.8366 60.9777 44.2C60.9199 44.5611 61.1755 44.8544 61.5521 44.8544H79.4288Z" fill="#F7F9FC"/>
<path d="M81.2251 81.5568H39.0407C38.9673 81.5568 38.8985 81.5246 38.8507 81.469C38.8029 81.4135 38.7829 81.3401 38.794 81.2679L41.2518 65.8612C41.264 65.7823 41.314 65.7135 41.3862 65.6779C41.4573 65.6412 41.5429 65.6423 41.614 65.679C43.1673 66.4835 44.9862 66.9079 46.8751 66.9079C49.4785 66.9079 52.0885 66.1357 54.4229 64.6746C54.4629 64.6501 54.5085 64.6368 54.5551 64.6368H76.2329C76.4862 64.6368 76.7329 64.4323 76.7707 64.1912C76.7862 64.0935 76.764 64.0023 76.7073 63.9357C76.6473 63.8646 76.5529 63.8257 76.4418 63.8257H56.3518C56.2462 63.8257 56.1529 63.7601 56.1173 63.6612C56.0818 63.5624 56.1107 63.4524 56.1907 63.3846C57.9307 61.9179 59.3096 60.0935 60.1773 58.109C60.2173 58.0179 60.3073 57.959 60.4062 57.959H77.2985C77.5518 57.959 77.7985 57.7557 77.8362 57.5146C77.8518 57.4157 77.8296 57.3246 77.7729 57.2579C77.7129 57.1868 77.6185 57.1479 77.5073 57.1479H60.9018C60.8218 57.1479 60.7473 57.1101 60.6996 57.0457C60.6529 56.9812 60.6396 56.8979 60.6629 56.8223C61.2196 55.0768 61.374 53.2601 61.1107 51.5701C61.0996 51.4979 61.1207 51.4246 61.1673 51.369C61.214 51.3135 61.284 51.2812 61.3573 51.2812H78.3618C78.6151 51.2812 78.8618 51.0779 78.8996 50.8368C78.9151 50.7379 78.8929 50.6468 78.8362 50.5801C78.7762 50.509 78.6818 50.4701 78.5707 50.4701H61.0662C60.9551 50.4701 60.8573 50.3968 60.8262 50.2901C60.4307 48.9401 59.7629 47.7223 58.8418 46.6712C56.8851 44.4423 54.004 43.2146 50.7273 43.2146C48.834 43.2146 46.8729 43.6412 45.0562 44.449C44.9729 44.4857 44.8751 44.4746 44.8018 44.419C44.7285 44.3635 44.6929 44.2723 44.7073 44.1812L45.6551 38.2357C45.674 38.1146 45.7796 38.0246 45.9018 38.0246H56.764L58.434 27.5512C58.4429 27.4923 58.474 27.4379 58.5196 27.399L58.7418 27.2112C58.7873 27.1735 58.844 27.1523 58.9029 27.1523H89.8218C89.8951 27.1523 89.964 27.1846 90.0118 27.2401C90.0596 27.2957 90.0796 27.369 90.0685 27.4412L81.4718 81.3435C81.4529 81.4679 81.3485 81.5568 81.2251 81.5568ZM39.3329 81.0568H81.0118L89.5285 27.6546H58.9962L58.9151 27.7235L57.2262 38.3157C57.2073 38.4368 57.1018 38.5268 56.9796 38.5268H46.1173L45.274 43.8146C47.0351 43.0946 48.9107 42.7157 50.7285 42.7157C54.1507 42.7157 57.1662 44.0035 59.2185 46.3423C60.1462 47.4023 60.8296 48.6212 61.2518 49.9701H78.5729C78.8285 49.9701 79.064 50.0746 79.2185 50.2557C79.3718 50.4357 79.4351 50.6701 79.3951 50.9157C79.3173 51.4012 78.864 51.7812 78.3629 51.7812H61.6462C61.8485 53.3579 61.7085 55.0279 61.2385 56.6479H77.5073C77.7629 56.6479 77.9985 56.7524 78.1529 56.9335C78.3062 57.1135 78.3696 57.3479 78.3296 57.5935C78.2518 58.079 77.7985 58.459 77.2973 58.459H60.5685C59.754 60.2612 58.534 61.929 57.014 63.3257H76.4418C76.6973 63.3257 76.9329 63.4301 77.0873 63.6112C77.2407 63.7912 77.3029 64.0246 77.264 64.2701C77.1862 64.7557 76.7329 65.1368 76.2318 65.1368H54.6262C52.2273 66.6235 49.5485 67.4079 46.874 67.4079C45.0285 67.4079 43.2451 67.0179 41.6907 66.2757L39.3329 81.0568ZM75.1685 71.8135H48.7973C48.5429 71.8135 48.3073 71.7101 48.1529 71.5279C47.9996 71.3479 47.9362 71.1135 47.9762 70.8668C48.054 70.3812 48.5062 70.0012 49.0062 70.0012H75.3773C75.6329 70.0012 75.8685 70.1057 76.0229 70.2868C76.1762 70.4668 76.2385 70.7001 76.1996 70.9457C76.1229 71.4324 75.6696 71.8135 75.1685 71.8135ZM49.0062 70.5024C48.754 70.5024 48.5085 70.7057 48.4696 70.9468C48.454 71.0457 48.4762 71.1379 48.5329 71.2046C48.5929 71.2757 48.6873 71.3146 48.7962 71.3146H75.1673C75.4207 71.3146 75.6673 71.1101 75.7051 70.869C75.7207 70.7712 75.6985 70.6801 75.6418 70.6135C75.5818 70.5424 75.4873 70.5035 75.3762 70.5035H49.0062V70.5024ZM79.4285 45.1046H61.5518C61.2962 45.1046 61.0618 45.0012 60.9073 44.8201C60.754 44.6401 60.6918 44.4068 60.7307 44.1612C60.8085 43.6746 61.2607 43.2946 61.7607 43.2946H79.6373C79.8929 43.2946 80.1285 43.399 80.2829 43.5801C80.4362 43.7601 80.4996 43.9946 80.4596 44.2401C80.3829 44.7246 79.9296 45.1046 79.4285 45.1046ZM61.7607 43.7935C61.5085 43.7935 61.2629 43.9979 61.224 44.239C61.2085 44.3379 61.2307 44.429 61.2874 44.4946C61.3474 44.5646 61.4407 44.6035 61.5518 44.6035H79.4285C79.6818 44.6035 79.9285 44.4001 79.9662 44.159C79.9818 44.0601 79.9596 43.969 79.9029 43.9023C79.8429 43.8312 79.7485 43.7923 79.6373 43.7923H61.7607V43.7935Z" fill="#F9FAFB"/>
<g opacity="0.5">
<g opacity="0.6">
<path d="M44.1658 49.158L43.9002 50.8257C43.8591 50.8568 43.818 50.888 43.778 50.9224C42.8746 51.6757 42.6802 52.9002 43.3424 53.6546C43.3713 53.688 43.4024 53.7202 43.4346 53.7502L42.2835 60.9657C42.2013 60.8813 42.1202 60.7946 42.0424 60.7057C40.6758 59.1468 40.1935 57.1035 40.5202 55.0613C40.8458 53.018 41.9791 50.9757 43.8435 49.418C43.948 49.3291 44.0569 49.2424 44.1658 49.158Z" fill="#D0D5DD"/>
</g>
</g>
<path d="M77.5054 56.8979C77.8821 56.8979 78.1387 57.1913 78.081 57.5546C78.0232 57.9157 77.6721 58.2091 77.2965 58.2091H60.4043C60.5943 57.7768 60.7599 57.3391 60.8987 56.8979H77.5054Z" fill="#D0D5DD"/>
<path d="M77.2979 58.4589H60.4056C60.3212 58.4589 60.2423 58.4167 60.1968 58.3456C60.1512 58.2745 60.1434 58.1856 60.1767 58.1089C60.3645 57.68 60.5279 57.2478 60.6623 56.8234C60.6945 56.7189 60.7912 56.6489 60.9012 56.6489H77.5068C77.7623 56.6489 77.9979 56.7534 78.1523 56.9345C78.3056 57.1145 78.369 57.3489 78.329 57.5945C78.2523 58.0789 77.799 58.4589 77.2979 58.4589ZM60.7834 57.9589H77.2979C77.5512 57.9589 77.7979 57.7556 77.8356 57.5145C77.8512 57.4156 77.829 57.3245 77.7723 57.2578C77.7123 57.1867 77.6179 57.1478 77.5068 57.1478H61.0823C60.9934 57.4167 60.8934 57.6878 60.7834 57.9589Z" fill="#D0D5DD"/>
<path d="M76.4416 63.5745C76.8183 63.5745 77.075 63.8678 77.0172 64.2289C76.9594 64.5911 76.6083 64.8856 76.2316 64.8856H54.5527C55.1538 64.51 55.7383 64.0867 56.2994 63.6178C56.3161 63.6034 56.3338 63.5889 56.3505 63.5756H76.4416V63.5745Z" fill="#D0D5DD"/>
<path d="M76.2334 65.1357H54.5545C54.4434 65.1357 54.3445 65.0624 54.3145 64.9546C54.2834 64.8479 54.3279 64.7324 54.4223 64.6735C55.019 64.3001 55.5968 63.8801 56.1412 63.4257L56.1879 63.3868C56.2334 63.349 56.2934 63.3257 56.3523 63.3257H76.4434C76.699 63.3257 76.9345 63.4301 77.089 63.6112C77.2423 63.7912 77.3045 64.0246 77.2656 64.2701C77.1879 64.7546 76.7356 65.1357 76.2334 65.1357ZM55.3834 64.6357H76.2334C76.4868 64.6357 76.7334 64.4312 76.7712 64.1901C76.7868 64.0924 76.7645 64.0012 76.7079 63.9346C76.6479 63.8635 76.5534 63.8246 76.4423 63.8246H56.4423C56.1023 64.109 55.7479 64.3801 55.3834 64.6357Z" fill="#D0D5DD"/>
<path d="M92.3455 30.8455L91.9499 33.33L91.8732 33.8089L83.8255 84.2677H41.2132L39.041 81.3066H81.2255L89.3499 30.3689L89.8232 27.4055L92.3455 30.8455Z" fill="#E4E7EC"/>
<path d="M83.8251 84.5177H41.2139C41.1339 84.5177 41.0595 84.48 41.0128 84.4155L38.8395 81.4544C38.7839 81.3789 38.7751 81.2777 38.8184 81.1933C38.8606 81.1089 38.9473 81.0566 39.0417 81.0566H81.0128L89.104 30.3289L89.5773 27.3655C89.5928 27.2655 89.6673 27.1855 89.7651 27.1622C89.864 27.1389 89.9662 27.1755 90.0251 27.2577L92.5473 30.6977C92.5873 30.7511 92.6028 30.8189 92.5928 30.8844L92.1206 33.8477L84.0717 84.3078C84.0517 84.4289 83.9473 84.5177 83.8251 84.5177ZM41.3395 84.0177H83.6106L91.6262 33.7689L92.0817 30.9089L89.9751 28.0355L89.5962 30.4077L81.4717 81.3455C81.4528 81.4666 81.3473 81.5566 81.2251 81.5566H39.5339L41.3395 84.0177Z" fill="#F9FAFB"/>
<path d="M86.423 87.2312L89.2252 91.0512H47.0385L44.2363 87.2312H86.423Z" fill="#D0D5DD"/>
<path d="M89.2248 91.3012H47.0381C46.9581 91.3012 46.8837 91.2634 46.837 91.199L44.0348 87.379C43.9793 87.3034 43.9704 87.2023 44.0137 87.1179C44.0559 87.0334 44.1426 86.9812 44.237 86.9812H86.4237C86.5037 86.9812 86.5782 87.019 86.6248 87.0834L89.427 90.9034C89.4826 90.979 89.4915 91.0801 89.4482 91.1645C89.4048 91.2479 89.3193 91.3012 89.2248 91.3012ZM47.1648 90.8012H88.7315L86.2959 87.4812H44.7293L47.1648 90.8012Z" fill="#F9FAFB"/>
<path d="M95.0197 33.3301L86.423 87.2312H44.2363L44.7086 84.2679H83.8241L91.9474 33.3301H95.0197Z" fill="#F7F9FC"/>
<path d="M86.4227 87.4812H44.236C44.1627 87.4812 44.0938 87.449 44.046 87.3934C43.9982 87.3379 43.9782 87.2645 43.9893 87.1923L44.4615 84.2301C44.4804 84.109 44.586 84.019 44.7082 84.019H83.6104L91.7004 33.2912C91.7193 33.1701 91.8249 33.0801 91.9471 33.0801H95.0193C95.0927 33.0801 95.1615 33.1123 95.2093 33.1679C95.2571 33.2234 95.2771 33.2967 95.266 33.369L86.6693 87.2701C86.6504 87.3912 86.546 87.4812 86.4227 87.4812ZM44.5293 86.9812H86.2093L94.726 33.5801H92.1604L84.0704 84.3079C84.0515 84.429 83.946 84.519 83.8238 84.519H44.9215L44.5293 86.9812Z" fill="#F9FAFB"/>
<path d="M95.0185 33.3301L97.8208 37.1501L89.2241 91.0512L86.4219 87.2312L95.0185 33.3301Z" fill="#E4E7EC"/>
<path d="M89.2257 91.3012C89.1468 91.3012 89.0723 91.2645 89.0246 91.199L86.2223 87.379C86.1823 87.3256 86.1668 87.2579 86.1768 87.1912L94.7734 33.2901C94.789 33.1901 94.8634 33.1101 94.9612 33.0867C95.0601 33.0634 95.1623 33.1001 95.2212 33.1823L98.0234 37.0023C98.0634 37.0556 98.079 37.1234 98.069 37.1901L89.4723 91.0912C89.4568 91.1912 89.3823 91.2712 89.2846 91.2945C89.2646 91.299 89.2446 91.3012 89.2257 91.3012ZM86.6868 87.1667L89.0723 90.4201L97.5579 37.2134L95.1723 33.9601L86.6868 87.1667Z" fill="#F9FAFB"/>
<path d="M39.9897 64.9443L25.4319 77.1143C25.3975 77.1432 25.3619 77.1688 25.3264 77.1954C25.3097 77.2077 25.2942 77.2199 25.2775 77.2321C25.2486 77.2521 25.2186 77.2699 25.1897 77.2888C25.1686 77.3021 25.1475 77.3166 25.1264 77.3288C25.1108 77.3377 25.0942 77.3454 25.0786 77.3543C25.0397 77.3754 24.9997 77.3966 24.9597 77.4143C24.9453 77.421 24.9308 77.4266 24.9164 77.4321C24.8631 77.4554 24.8097 77.4754 24.7564 77.4932C24.7319 77.5021 24.7064 77.5099 24.6808 77.5177C24.6608 77.5232 24.6397 77.5299 24.6197 77.5343C24.5875 77.5421 24.5553 77.5499 24.5231 77.5566C24.5031 77.561 24.4831 77.5643 24.4642 77.5677C24.4286 77.5732 24.3942 77.5777 24.3586 77.5821C24.3419 77.5843 24.3253 77.5866 24.3086 77.5877C24.2575 77.5921 24.2053 77.5943 24.1542 77.5943C23.7186 77.5943 23.3097 77.4343 23.0286 77.1143L22.5097 76.5232C22.4842 76.4943 22.4608 76.4643 22.4375 76.4332L25.2397 80.2532C25.2619 80.2843 25.2864 80.3143 25.3119 80.3432L25.8308 80.9343C26.1119 81.2543 26.5208 81.4143 26.9564 81.4143C27.0075 81.4143 27.0586 81.4121 27.1108 81.4077C27.1275 81.4066 27.1442 81.4032 27.1608 81.4021C27.1964 81.3977 27.2308 81.3932 27.2664 81.3877C27.2864 81.3843 27.3064 81.3799 27.3253 81.3766C27.3575 81.3699 27.3897 81.3632 27.4219 81.3543C27.4431 81.3488 27.4631 81.3432 27.4831 81.3377C27.4975 81.3332 27.5131 81.3299 27.5275 81.3254C27.5375 81.3221 27.5475 81.3177 27.5586 81.3132C27.6131 81.2954 27.6664 81.2743 27.7186 81.2521C27.7286 81.2477 27.7397 81.2443 27.7508 81.2399C27.7553 81.2377 27.7586 81.2354 27.7631 81.2343C27.8031 81.2154 27.8419 81.1954 27.8819 81.1743C27.8964 81.1666 27.9108 81.161 27.9253 81.1521C27.9275 81.151 27.9286 81.1499 27.9297 81.1488C27.9508 81.1366 27.9719 81.1221 27.9931 81.1088C28.0197 81.0921 28.0475 81.0766 28.0742 81.0577C28.0764 81.0566 28.0786 81.0543 28.0808 81.0521C28.0975 81.041 28.1131 81.0277 28.1297 81.0154C28.1564 80.9954 28.1842 80.9766 28.2097 80.9554C28.2186 80.9488 28.2264 80.9421 28.2353 80.9343L42.7931 68.7643L39.9897 64.9443Z" fill="#667185"/>
<path d="M26.9558 81.6644C26.4291 81.6644 25.9624 81.4633 25.6424 81.0988L25.1235 80.5077C25.0935 80.4733 25.0647 80.4377 25.038 80.4011L22.2369 76.5833C22.2369 76.5822 22.2358 76.5822 22.2358 76.5811C22.1547 76.47 22.178 76.3133 22.2891 76.2322C22.4002 76.1511 22.5569 76.1744 22.638 76.2855L22.6391 76.2877C22.6569 76.3122 22.6758 76.3355 22.6958 76.3588L23.2147 76.95C23.438 77.2044 23.7713 77.3444 24.1524 77.3444C24.1969 77.3444 24.2402 77.3422 24.2847 77.3377L24.3291 77.3322C24.3591 77.3288 24.3891 77.3255 24.4202 77.32C24.4324 77.3177 24.4458 77.3155 24.458 77.3122L24.4724 77.3089C24.5002 77.3033 24.5291 77.2966 24.5569 77.29C24.5747 77.2855 24.5935 77.28 24.6113 77.2755C24.6335 77.2688 24.6547 77.2622 24.6769 77.2544C24.7235 77.2388 24.7702 77.2211 24.8169 77.2011L24.8547 77.1855C24.8902 77.1688 24.9247 77.1511 24.9591 77.1322L25.0013 77.11C25.0102 77.1044 25.0202 77.0988 25.0291 77.0922L25.0758 77.0622C25.0958 77.05 25.1147 77.0377 25.1347 77.0244C25.1413 77.02 25.148 77.0144 25.1547 77.0088L25.1869 76.9844C25.2147 76.9633 25.2435 76.9433 25.2702 76.92L39.828 64.75C39.8813 64.7055 39.9491 64.6855 40.018 64.6933C40.0869 64.7011 40.148 64.7377 40.1891 64.7933L42.9913 68.6133C43.0691 68.72 43.0513 68.8689 42.9502 68.9533L28.3658 81.15C28.3424 81.1688 28.3191 81.1866 28.2947 81.2033L28.2624 81.2266C28.2491 81.2366 28.2358 81.2466 28.2224 81.2566C28.1924 81.2777 28.1691 81.2922 28.1458 81.3066L28.1047 81.3322C28.0891 81.3422 28.0735 81.3522 28.058 81.3611C28.0535 81.3644 28.0491 81.3666 28.0447 81.3688C28.0347 81.3744 28.0213 81.3811 28.0091 81.3866L27.9991 81.3911C27.9547 81.4144 27.9113 81.4377 27.8658 81.4588C27.8669 81.4588 27.8591 81.4622 27.8524 81.4655C27.8413 81.47 27.8291 81.4755 27.8169 81.48C27.7569 81.5055 27.6969 81.5288 27.6369 81.5488C27.6269 81.5533 27.6135 81.5577 27.6013 81.5622C27.5902 81.5655 27.5769 81.5688 27.5647 81.5722L27.5524 81.5755C27.5291 81.5822 27.5058 81.5888 27.4824 81.5944C27.4458 81.6033 27.4102 81.6122 27.3735 81.6188L27.3613 81.6211C27.3424 81.6244 27.3247 81.6288 27.3058 81.6322C27.2658 81.6388 27.2258 81.6444 27.1869 81.6488L27.1724 81.6511C27.158 81.6533 27.1447 81.6544 27.1302 81.6555C27.068 81.6622 27.0113 81.6644 26.9558 81.6644ZM23.7535 77.8044L25.4424 80.1066C25.4602 80.1311 25.4802 80.1555 25.5002 80.1788L26.0191 80.77C26.268 81.0544 26.6591 81.1955 27.0891 81.1588L27.1324 81.1533C27.1624 81.15 27.1935 81.1466 27.2235 81.1411C27.2358 81.1388 27.2491 81.1366 27.2613 81.1333L27.2747 81.1311C27.3035 81.1255 27.3313 81.1188 27.3591 81.1122C27.3769 81.1077 27.3947 81.1022 27.4135 81.0977L27.4513 81.0877C27.458 81.0844 27.4691 81.08 27.4791 81.0766C27.5258 81.0611 27.5735 81.0433 27.6202 81.0222C27.6291 81.0177 27.6391 81.0144 27.6491 81.0111L27.6569 81.0077C27.6935 80.9911 27.728 80.9722 27.7635 80.9533C27.7724 80.9477 27.7824 80.9433 27.7913 80.9388L27.7991 80.9344C27.8013 80.9322 27.8047 80.9311 27.8069 80.93C27.8147 80.9255 27.8247 80.9188 27.8347 80.9133L27.8869 80.8811C27.9024 80.8722 27.918 80.8622 27.9324 80.8522C27.9458 80.8422 27.9524 80.8377 27.9591 80.8322L28.0013 80.8C28.018 80.7877 28.0347 80.7755 28.0513 80.7622L28.0735 80.7444L42.4524 68.7244L39.9469 65.3077L25.5924 77.3066C25.5569 77.3355 25.5213 77.3633 25.4847 77.39L25.4602 77.4088C25.4469 77.4188 25.4347 77.4288 25.4213 77.4377C25.3947 77.4555 25.368 77.4722 25.3413 77.4889L25.3024 77.5133C25.2858 77.5244 25.2691 77.5344 25.2524 77.5444C25.2391 77.5522 25.2258 77.5589 25.2124 77.5655L25.198 77.5733C25.1547 77.5966 25.1102 77.62 25.0658 77.6411C25.0535 77.6466 25.0413 77.6522 25.028 77.6566L25.0158 77.6622C24.9569 77.6877 24.8969 77.7111 24.8358 77.7311C24.808 77.7411 24.7791 77.75 24.7513 77.7577C24.728 77.7644 24.7047 77.7711 24.6813 77.7766C24.6458 77.7855 24.6091 77.7944 24.5724 77.8011L24.5602 77.8033C24.5424 77.8066 24.5235 77.8111 24.5058 77.8133C24.4658 77.82 24.4269 77.8255 24.3869 77.83L24.3713 77.8322C24.358 77.8344 24.3435 77.8355 24.3291 77.8366C24.2669 77.8422 24.2091 77.8444 24.1535 77.8444C24.0158 77.8444 23.8813 77.8311 23.7535 77.8044Z" fill="#F9FAFB"/>
<path d="M61.3569 51.5311C61.288 51.0878 61.1902 50.6489 61.0636 50.22C60.6691 48.8711 59.9936 47.61 59.028 46.5067C56.9558 44.1456 53.9347 42.9656 50.7258 42.9656C48.8136 42.9656 46.8369 43.3834 44.9536 44.2222C43.6713 44.7922 42.4336 45.5545 41.2891 46.5111C36.2347 50.7356 34.7269 57.3134 37.4369 62.0356L22.8769 74.2078C22.1125 74.8456 21.948 75.8823 22.508 76.5234L23.0269 77.1145C23.3069 77.4345 23.718 77.5956 24.1513 77.5956C24.5869 77.5956 25.048 77.4345 25.4291 77.1145L39.988 64.9456C40.4636 65.3067 40.968 65.6267 41.4958 65.9C43.1136 66.7367 44.9602 67.1567 46.8725 67.1567C49.4436 67.1567 52.1336 66.4011 54.5525 64.8856C55.1547 64.51 55.738 64.0867 56.3513 63.5745C58.1858 62.0267 59.548 60.17 60.4058 58.2067C60.5936 57.7767 60.7602 57.3367 60.8991 56.8956C61.4691 55.1111 61.628 53.2722 61.3569 51.5311ZM53.7725 60.7334C51.898 62.3011 49.6447 63.0834 47.5158 63.0834C45.388 63.0834 43.3847 62.3 42.0113 60.7334C39.2613 57.6 40.0713 52.5222 43.8191 49.3911C45.6936 47.8234 47.9469 47.0411 50.0758 47.0411C52.2036 47.0411 54.2069 47.8245 55.5802 49.3911C55.6202 49.4367 55.658 49.4811 55.6936 49.5267C55.8725 49.7422 56.0369 49.9678 56.1836 50.1978C56.4491 50.6156 56.6591 51.0545 56.8213 51.5145C56.9047 51.7478 56.9736 51.9867 57.028 52.2289C57.328 53.5256 57.2525 54.9211 56.8213 56.2745C56.7547 56.4856 56.678 56.6978 56.5936 56.9067C56.4125 57.3556 56.1925 57.7967 55.9336 58.2245C55.8091 58.43 55.6769 58.6334 55.5336 58.8334C55.0513 59.5167 54.4613 60.1589 53.7725 60.7334Z" fill="#98A2B3"/>
<path d="M24.1513 77.8456C23.6246 77.8456 23.1579 77.6445 22.8391 77.2789L22.3202 76.6878C22.0335 76.3589 21.8957 75.9267 21.9313 75.4711C21.9746 74.9267 22.2602 74.3956 22.7168 74.0156L37.1179 61.9767C35.8502 59.6545 35.5268 56.8411 36.2091 54.0278C36.9146 51.12 38.6624 48.3822 41.1302 46.3189C42.2679 45.3678 43.5213 44.5856 44.8535 43.9934C46.7313 43.1578 48.7624 42.7156 50.7279 42.7156C54.1502 42.7156 57.1657 44.0034 59.2179 46.3422C60.1891 47.4511 60.8913 48.7322 61.3057 50.15C61.4335 50.5845 61.5346 51.0356 61.6057 51.4922C61.8813 53.2578 61.7191 55.1534 61.1391 56.9722C61.0002 57.4134 60.8313 57.8622 60.6368 58.3067C59.7391 60.3611 58.3124 62.2478 56.5135 63.7656C55.9046 64.2745 55.3068 64.71 54.6857 65.0967C52.2746 66.6067 49.5735 67.4056 46.8735 67.4056C44.9057 67.4056 43.0068 66.9611 41.3824 66.1211C40.9046 65.8745 40.4402 65.5856 39.9979 65.2634L25.5891 77.3067C25.1746 77.6534 24.6646 77.8456 24.1513 77.8456ZM50.7268 43.2156C48.8313 43.2156 46.8702 43.6422 45.0557 44.45C43.7657 45.0234 42.5524 45.7811 41.4502 46.7022C36.5457 50.8011 34.9491 57.1978 37.6546 61.91C37.7146 62.0156 37.6913 62.1489 37.5979 62.2267L23.0368 74.3989C22.6835 74.6945 22.4613 75.0989 22.4291 75.51C22.4035 75.8311 22.4979 76.1322 22.6957 76.3578L23.2146 76.9489C23.4379 77.2045 23.7702 77.3445 24.1513 77.3445C24.5468 77.3445 24.9446 77.1945 25.2691 76.9222L39.8279 64.7534C39.9179 64.6789 40.0468 64.6756 40.1402 64.7467C40.6057 65.1011 41.1002 65.4145 41.6113 65.6778C43.1646 66.4811 44.9846 66.9067 46.8735 66.9067C49.4791 66.9067 52.0891 66.1345 54.4202 64.6745C55.0213 64.2989 55.6013 63.8767 56.1913 63.3834C57.9313 61.9167 59.3091 60.0922 60.1768 58.1078C60.3646 57.6789 60.5268 57.2467 60.6613 56.8222C61.2179 55.0756 61.3735 53.26 61.1102 51.57C61.0424 51.1356 60.9468 50.7056 60.8246 50.2922C60.4313 48.9445 59.7635 47.7267 58.8402 46.6722C56.8846 44.4434 54.0024 43.2156 50.7268 43.2156ZM47.5157 63.3334C45.2213 63.3334 43.1991 62.4689 41.8224 60.8978C40.5935 59.4978 40.0013 57.6445 40.1535 55.6778C40.3402 53.2656 41.6179 50.9034 43.6579 49.1989C45.5157 47.6456 47.7946 46.79 50.0757 46.79C52.3702 46.79 54.3924 47.6545 55.7691 49.2256C55.8113 49.2734 55.8513 49.3211 55.8902 49.37C56.0702 49.5867 56.2413 49.8211 56.3957 50.0622C56.6635 50.4822 56.8868 50.9422 57.0591 51.4289C57.1446 51.6689 57.2168 51.9189 57.2735 52.1722C57.5813 53.5 57.5079 54.9445 57.0613 56.3489C56.9913 56.5689 56.9124 56.7878 56.8268 57C56.6413 57.4611 56.4135 57.9156 56.1491 58.3534C56.0146 58.5745 55.8813 58.7789 55.7391 58.9789C55.2324 59.6934 54.6246 60.3478 53.9335 60.9256C52.0757 62.4778 49.7968 63.3334 47.5157 63.3334ZM50.0757 47.29C47.9124 47.29 45.7468 48.1045 43.9791 49.5822C42.0413 51.2011 40.8279 53.4378 40.6524 55.7167C40.5102 57.5478 41.0602 59.27 42.1991 60.5678C43.4791 62.0289 45.3679 62.8334 47.5157 62.8334C49.6791 62.8334 51.8446 62.0189 53.6124 60.5411C54.2713 59.9911 54.8491 59.3678 55.3313 58.6889C55.4657 58.4989 55.5935 58.3056 55.7213 58.0945C55.9713 57.68 56.1868 57.2489 56.3635 56.8122C56.4446 56.6122 56.5191 56.4056 56.5846 56.1978C57.0035 54.8789 57.0735 53.5256 56.7857 52.2834C56.7335 52.0489 56.6668 51.8178 56.5879 51.5967C56.4279 51.1445 56.2213 50.7189 55.9746 50.3311C55.8324 50.1078 55.6735 49.89 55.5035 49.6856C55.4668 49.64 55.4313 49.5978 55.3946 49.5556C54.1124 48.0945 52.2235 47.29 50.0757 47.29Z" fill="#F9FAFB"/>
<path d="M47.8213 53.4047C47.7991 53.3414 47.7713 53.2814 47.7335 53.2247C47.7102 53.1858 47.6824 53.1491 47.6513 53.1136C47.4635 52.9003 47.1902 52.7925 46.8991 52.7925C46.8758 52.7925 46.8524 52.7936 46.828 52.7947C46.558 52.8103 46.2791 52.9169 46.0435 53.1136C45.7458 53.3625 45.5835 53.7014 45.5746 54.0258C45.568 54.2591 45.6402 54.4847 45.7969 54.6636C45.9846 54.8769 46.258 54.9847 46.5491 54.9847C46.8402 54.9847 47.148 54.878 47.4035 54.6636C47.5246 54.5614 47.6246 54.4458 47.7002 54.3203C47.7358 54.2625 47.7646 54.2025 47.7902 54.1403C47.8902 53.8958 47.9024 53.6347 47.8213 53.4047Z" fill="#F7F9FC"/>
<path d="M46.9099 51.4345C46.871 51.3234 46.8188 51.2178 46.7555 51.1178C46.7121 51.05 46.6655 50.9856 46.611 50.9234C46.2799 50.5456 45.7966 50.3567 45.2844 50.3567C44.8166 50.3567 44.3255 50.5134 43.8999 50.8267C43.8588 50.8578 43.8177 50.8889 43.7777 50.9222C42.8744 51.6756 42.6799 52.9 43.3421 53.6545C43.3721 53.6878 43.4021 53.72 43.4344 53.75C43.7588 54.0634 44.201 54.2189 44.6688 54.2189C44.9688 54.2189 45.2799 54.1545 45.5766 54.0256C45.7866 53.9345 45.9888 53.81 46.1766 53.6545C46.3899 53.4745 46.5655 53.27 46.6977 53.05C46.7477 52.9667 46.7921 52.8811 46.8288 52.7945C46.8377 52.7734 46.8466 52.7534 46.8544 52.7322C47.0299 52.3 47.051 51.84 46.9099 51.4345Z" fill="#F7F9FC"/>
<path d="M83.8255 84.2677H41.2132L39.041 81.3066H81.2255L83.8255 84.2677Z" fill="#D0D5DD"/>
<path d="M83.8251 84.5178H41.2139C41.1339 84.5178 41.0595 84.48 41.0128 84.4155L38.8395 81.4544C38.7839 81.3789 38.7751 81.2777 38.8184 81.1933C38.8606 81.1089 38.9473 81.0566 39.0417 81.0566H81.2262C81.2984 81.0566 81.3662 81.0878 81.414 81.1422L84.014 84.1033C84.0784 84.1766 84.094 84.2822 84.054 84.3711C84.0117 84.4611 83.9228 84.5178 83.8251 84.5178ZM41.3395 84.0178H83.2717L81.1106 81.5566H39.5328L41.3395 84.0178Z" fill="#F9FAFB"/>
<path d="M78.57 50.22C78.9467 50.22 79.2033 50.5133 79.1456 50.8766C79.0878 51.2377 78.7367 51.5311 78.3611 51.5311H61.3567C61.2878 51.0877 61.19 50.6477 61.0645 50.22H78.57Z" fill="#D0D5DD"/>
<path d="M78.3613 51.7811H61.3569C61.2335 51.7811 61.1291 51.6911 61.1102 51.5689C61.0435 51.1366 60.948 50.7066 60.8246 50.29C60.8024 50.2144 60.8169 50.1322 60.8646 50.07C60.9113 50.0066 60.9858 49.97 61.0646 49.97H78.5713C78.8269 49.97 79.0624 50.0744 79.2169 50.2555C79.3702 50.4355 79.4335 50.67 79.3935 50.9155C79.3158 51.4011 78.8624 51.7811 78.3613 51.7811ZM61.5691 51.2811H78.3613C78.6147 51.2811 78.8613 51.0777 78.8991 50.8366C78.9146 50.7377 78.8924 50.6466 78.8358 50.58C78.7758 50.5089 78.6813 50.47 78.5702 50.47H61.3924C61.4624 50.7377 61.5213 51.0089 61.5691 51.2811Z" fill="#D0D5DD"/>
<path d="M79.6349 43.5435C80.0116 43.5435 80.2682 43.8368 80.2105 44.2001C80.1527 44.5612 79.8016 44.8546 79.426 44.8546H61.5494C61.1738 44.8546 60.9171 44.5612 60.9749 44.2001C61.0327 43.8379 61.3827 43.5435 61.7582 43.5435H79.6349Z" fill="#D0D5DD"/>
<path d="M79.4278 45.1044H61.5511C61.2956 45.1044 61.0611 45.0011 60.9067 44.82C60.7534 44.64 60.6912 44.4067 60.73 44.1611C60.8078 43.6755 61.26 43.2944 61.76 43.2944H79.6367C79.8923 43.2944 80.1278 43.3989 80.2823 43.58C80.4356 43.76 80.4989 43.9944 80.4589 44.24C80.3823 44.7244 79.9289 45.1044 79.4278 45.1044ZM61.76 43.7933C61.5078 43.7933 61.2623 43.9978 61.2234 44.2389C61.2078 44.3378 61.23 44.4289 61.2867 44.4955C61.3467 44.5655 61.44 44.6044 61.5511 44.6044H79.4278C79.6811 44.6044 79.9278 44.4011 79.9656 44.16C79.9811 44.0611 79.9589 43.97 79.9023 43.9033C79.8423 43.8322 79.7478 43.7933 79.6367 43.7933H61.76Z" fill="#D0D5DD"/>
<path d="M75.3774 70.2522C75.754 70.2522 76.0107 70.5455 75.9529 70.9066C75.8952 71.2689 75.544 71.5633 75.1674 71.5633H48.7974C48.4229 71.5633 48.1652 71.27 48.2229 70.9066C48.2807 70.5455 48.6318 70.2522 49.0063 70.2522H75.3774Z" fill="#D0D5DD"/>
<path d="M75.1677 71.8133H48.7966C48.5421 71.8133 48.3077 71.71 48.1532 71.5289C47.9999 71.3489 47.9366 71.1144 47.9766 70.8678C48.0543 70.3822 48.5066 70.0022 49.0066 70.0022H75.3766C75.6321 70.0022 75.8677 70.1066 76.0221 70.2878C76.1754 70.4678 76.2377 70.7011 76.1988 70.9466C76.1221 71.4322 75.6688 71.8133 75.1677 71.8133ZM49.0054 70.5022C48.7532 70.5022 48.5077 70.7055 48.4688 70.9466C48.4532 71.0455 48.4754 71.1378 48.5321 71.2044C48.5921 71.2755 48.6854 71.3144 48.7954 71.3144H75.1666C75.4199 71.3144 75.6666 71.11 75.7043 70.8689C75.7199 70.7711 75.6977 70.68 75.641 70.6133C75.581 70.5422 75.4866 70.5033 75.3754 70.5033H49.0054V70.5022Z" fill="#D0D5DD"/>
<path d="M64.1594 55.351C64.1394 55.2232 64.1172 55.0955 64.0927 54.9688C64.0905 54.9566 64.0883 54.9443 64.0861 54.9321C64.0816 54.9088 64.075 54.8855 64.0705 54.861C64.0494 54.7577 64.0261 54.6543 64.0016 54.5521C63.9927 54.5143 63.9838 54.4755 63.9738 54.4377C63.9405 54.3043 63.905 54.1721 63.8672 54.041C63.815 53.8621 63.7549 53.6855 63.6927 53.5099C63.6849 53.4877 63.6794 53.4655 63.6705 53.4432C63.6627 53.4199 63.6516 53.3977 63.6438 53.3755C63.5849 53.2155 63.5227 53.0577 63.4549 52.901C63.4494 52.8866 63.4438 52.8732 63.4372 52.8588C63.3638 52.691 63.2838 52.5255 63.2016 52.361C63.1916 52.3421 63.1838 52.3232 63.175 52.3043C63.1616 52.2777 63.145 52.251 63.1316 52.2243C63.075 52.1166 63.0161 52.011 62.9561 51.9043C62.9305 51.861 62.9072 51.8166 62.8805 51.7732C62.7949 51.6288 62.7061 51.4855 62.6116 51.3443C62.6116 51.3432 62.6105 51.3432 62.6105 51.3421C62.5316 51.2243 62.4505 51.1077 62.3661 50.9921L59.5638 47.1721C59.6494 47.2877 59.7305 47.4055 59.8105 47.5243C59.9049 47.6655 59.9938 47.8088 60.0794 47.9532C60.1049 47.9966 60.1294 48.041 60.1549 48.0843C60.2149 48.1899 60.2738 48.2966 60.3305 48.4032C60.3549 48.4488 60.3783 48.4943 60.4016 48.5399C60.4849 48.7043 60.5638 48.8699 60.6372 49.0377C60.6427 49.051 60.6483 49.0655 60.6538 49.0799C60.7216 49.2366 60.7838 49.3943 60.8427 49.5543C60.8594 49.5988 60.8761 49.6443 60.8916 49.6888C60.9538 49.8643 61.0127 50.041 61.0649 50.2199C61.1038 50.351 61.1383 50.4832 61.1716 50.6166C61.1816 50.6555 61.1905 50.6932 61.1994 50.7321C61.2238 50.8343 61.2461 50.9366 61.2672 51.0399C61.2749 51.0766 61.2827 51.1121 61.2894 51.1488C61.3138 51.2755 61.3372 51.4032 61.3561 51.531C61.6272 53.2721 61.4683 55.1099 60.8994 56.8977C60.7605 57.3388 60.5938 57.7766 60.4049 58.2088C60.3661 58.2977 60.325 58.3855 60.285 58.4732C60.2527 58.5421 60.2205 58.611 60.1872 58.6799C60.1594 58.7366 60.1316 58.7943 60.1038 58.851C60.0694 58.9199 60.0338 58.9877 59.9983 59.0566C59.9694 59.1132 59.9394 59.1688 59.9094 59.2243C59.8727 59.2932 59.8349 59.361 59.7961 59.4299C59.7649 59.4855 59.7338 59.5399 59.7027 59.5955C59.6627 59.6632 59.6227 59.7321 59.5816 59.7999C59.5516 59.8499 59.5227 59.8988 59.4916 59.9488C59.3849 60.121 59.275 60.2921 59.1605 60.461C59.1383 60.4943 59.115 60.5277 59.0916 60.5621C58.9738 60.7343 58.8516 60.9043 58.7249 61.0732C58.7094 61.0932 58.6938 61.1132 58.6794 61.1321C58.5783 61.2643 58.475 61.3955 58.3694 61.5255C58.3405 61.561 58.3116 61.5966 58.2816 61.6332C58.1616 61.7777 58.0383 61.9221 57.9116 62.0632C57.8916 62.0855 57.8716 62.1066 57.8516 62.1288C57.7483 62.2432 57.6427 62.3555 57.535 62.4677C57.4994 62.5055 57.4627 62.5421 57.4261 62.5788C57.3127 62.6943 57.1961 62.8099 57.0783 62.9221C57.0616 62.9388 57.045 62.9555 57.0283 62.971C56.9572 63.0377 56.8849 63.1032 56.8127 63.1699C56.7738 63.2055 56.7349 63.2421 56.6949 63.2777C56.5816 63.3788 56.4672 63.4777 56.3505 63.5766C56.205 63.6988 56.0605 63.8143 55.9172 63.9266C55.9072 63.9343 55.8972 63.9421 55.8872 63.9499C55.7527 64.0543 55.6194 64.1543 55.4861 64.2521C55.4638 64.2688 55.4405 64.2854 55.4183 64.3021C55.2983 64.3888 55.1783 64.4732 55.0583 64.5543C54.8905 64.6688 54.7216 64.7799 54.5527 64.8866C54.3861 64.991 54.2183 65.091 54.0483 65.1877C54.0038 65.2132 53.9594 65.2366 53.9149 65.2621C53.7661 65.3455 53.6172 65.4266 53.4672 65.5043C53.4105 65.5332 53.3538 65.5632 53.2972 65.5921C53.1327 65.6755 52.9672 65.7543 52.8005 65.831C52.7705 65.8443 52.7416 65.8588 52.7116 65.8721C52.6727 65.8899 52.6327 65.9066 52.5938 65.9232C52.4849 65.971 52.3761 66.0188 52.2661 66.0632C52.2116 66.0855 52.1572 66.1066 52.1027 66.1288C52.0072 66.1666 51.9105 66.2043 51.8149 66.241C51.7572 66.2632 51.6983 66.2843 51.6405 66.3055C51.5461 66.3399 51.4516 66.3721 51.3572 66.4043C51.2994 66.4243 51.2416 66.4432 51.1827 66.4621C51.1049 66.4877 51.0261 66.511 50.9483 66.5355C50.8527 66.5643 50.7561 66.5932 50.6605 66.621C50.5861 66.6421 50.5116 66.6621 50.4361 66.6821C50.3405 66.7077 50.2461 66.7321 50.1505 66.7555C50.0749 66.7743 49.9994 66.7921 49.9249 66.8088C49.8294 66.831 49.7338 66.851 49.6383 66.871C49.5638 66.8866 49.4883 66.9021 49.4138 66.9155C49.3172 66.9332 49.2205 66.951 49.1238 66.9666C49.0505 66.9788 48.9761 66.991 48.9027 67.0021C48.8038 67.0166 48.7049 67.0299 48.6072 67.0432C48.5361 67.0521 48.4638 67.0621 48.3927 67.071C48.2894 67.0832 48.1872 67.0921 48.0849 67.101C48.0183 67.1066 47.9505 67.1143 47.8838 67.1188C47.7705 67.1277 47.6583 67.1332 47.5461 67.1388C47.4894 67.1421 47.4338 67.1455 47.3772 67.1477C47.2083 67.1543 47.0405 67.1577 46.8727 67.1577C44.9605 67.1577 43.1149 66.7388 41.4961 65.901C40.9672 65.6277 40.4627 65.3088 39.9883 64.9455L42.7905 68.7655C43.2649 69.1288 43.7694 69.4466 44.2983 69.721C45.9161 70.5588 47.7627 70.9777 49.6738 70.9777C49.8416 70.9777 50.0094 70.9743 50.1783 70.9677C50.2349 70.9655 50.2905 70.961 50.3472 70.9588C50.4594 70.9532 50.5727 70.9477 50.6849 70.9388C50.7516 70.9332 50.8183 70.9266 50.8849 70.921C50.9883 70.9121 51.0905 70.9021 51.1938 70.891C51.2649 70.8832 51.3361 70.8732 51.4072 70.8643C51.5061 70.851 51.6049 70.8388 51.7038 70.8232C51.7772 70.8121 51.8516 70.7999 51.9249 70.7877C52.0216 70.771 52.1183 70.7543 52.2149 70.7366C52.2894 70.7221 52.3649 70.7077 52.4394 70.6921C52.5349 70.6721 52.6305 70.6521 52.7261 70.6299C52.8016 70.6132 52.8761 70.5955 52.9505 70.5766C53.0461 70.5532 53.1416 70.5288 53.2372 70.5032C53.3116 70.4832 53.3861 70.4632 53.4605 70.4421C53.5572 70.4143 53.6527 70.3855 53.7494 70.3566C53.7972 70.3421 53.8461 70.3288 53.8938 70.3143C53.9238 70.3043 53.9538 70.2943 53.9838 70.2843C54.0416 70.2655 54.0994 70.2455 54.1583 70.2266C54.2527 70.1943 54.3472 70.1621 54.4416 70.1277C54.4994 70.1066 54.5583 70.0855 54.6161 70.0632C54.7127 70.0277 54.8083 69.9899 54.9038 69.951C54.9583 69.9288 55.0127 69.9077 55.0672 69.8854C55.1772 69.8399 55.2861 69.7932 55.3949 69.7455C55.4338 69.7277 55.4738 69.7121 55.5127 69.6943C55.5194 69.691 55.5272 69.6877 55.5338 69.6855C55.5561 69.6755 55.5783 69.6632 55.6005 69.6532C55.7672 69.5766 55.9327 69.4977 56.0972 69.4143C56.1538 69.3855 56.2105 69.3566 56.2672 69.3266C56.4172 69.2488 56.5672 69.1677 56.715 69.0843C56.7472 69.0666 56.7794 69.051 56.8105 69.0321C56.8227 69.0255 56.8361 69.0166 56.8483 69.0099C57.0172 68.9132 57.1861 68.8132 57.3527 68.7088C57.5227 68.6021 57.6905 68.491 57.8583 68.3766C57.8738 68.3666 57.8883 68.3566 57.9038 68.3466C58.0083 68.2743 58.1138 68.1999 58.2183 68.1243C58.2405 68.1077 58.2638 68.091 58.2861 68.0743C58.4194 67.9766 58.5527 67.8766 58.6861 67.7721C58.6961 67.7643 58.7061 67.7566 58.7161 67.7488C58.7872 67.6932 58.8594 67.6366 58.9305 67.5777C59.0027 67.5188 59.0761 67.4588 59.1483 67.3977C59.2649 67.2988 59.3794 67.1999 59.4927 67.0988C59.5327 67.0632 59.5705 67.0277 59.6094 66.9921C59.6816 66.9255 59.755 66.8599 59.8261 66.7921C59.8294 66.7888 59.8338 66.7855 59.8372 66.7821C59.8505 66.7699 59.8627 66.7566 59.875 66.7443C59.9938 66.631 60.1094 66.5154 60.2238 66.3999C60.2605 66.3632 60.2961 66.3254 60.3316 66.2888C60.4394 66.1766 60.5449 66.0643 60.6483 65.9499C60.6638 65.9332 60.6805 65.9166 60.695 65.8999C60.6994 65.8955 60.7027 65.8899 60.7072 65.8854C60.8338 65.7432 60.9572 65.5999 61.0772 65.4555C61.1072 65.4199 61.1361 65.3843 61.1649 65.3488C61.2705 65.2188 61.3749 65.0877 61.4749 64.9555C61.4861 64.9399 61.4994 64.9255 61.5105 64.9099C61.5138 64.9055 61.5172 64.901 61.5205 64.8966C61.6472 64.7277 61.7694 64.5577 61.8872 64.3854C61.9105 64.3521 61.9327 64.3188 61.9561 64.2855C62.0705 64.1155 62.1816 63.9443 62.2883 63.7721C62.2949 63.761 62.3027 63.751 62.3094 63.7399C62.3327 63.701 62.3549 63.6621 62.3783 63.6232C62.4194 63.5555 62.4594 63.4877 62.4994 63.4188C62.5316 63.3632 62.5616 63.3077 62.5927 63.2532C62.6305 63.1855 62.6683 63.1177 62.7049 63.0488C62.7349 62.9932 62.7649 62.9366 62.7938 62.8799C62.8294 62.8121 62.8649 62.7432 62.8983 62.6743C62.9272 62.6177 62.9549 62.561 62.9827 62.5032C63.0161 62.4343 63.0483 62.3655 63.0805 62.2966C63.0938 62.2666 63.1094 62.2377 63.1227 62.2077C63.1494 62.1488 63.175 62.091 63.2005 62.0321C63.3905 61.5999 63.5561 61.1621 63.695 60.721C64.2716 58.931 64.4305 57.0932 64.1594 55.351Z" fill="#D0D5DD"/>
<path d="M49.6735 71.2277C47.7047 71.2277 45.8069 70.7832 44.1824 69.9421C43.6369 69.6599 43.118 69.331 42.6369 68.9632C42.618 68.9488 42.6013 68.9321 42.5869 68.9121L39.7847 65.0921C39.7113 64.9921 39.7224 64.8532 39.8113 64.7655C39.9002 64.6788 40.0391 64.6699 40.138 64.7455C40.5947 65.0955 41.0891 65.4088 41.6091 65.6777C43.1624 66.4821 44.9813 66.9066 46.8702 66.9066C47.0269 66.9066 47.1935 66.9032 47.3647 66.8966C47.3969 66.8955 47.428 66.8932 47.4602 66.891L47.5302 66.8866C47.6413 66.881 47.7513 66.8755 47.8624 66.8666C47.9058 66.8632 47.9491 66.8588 47.9913 66.8555L48.0591 66.8488C48.1624 66.8399 48.2624 66.8299 48.3613 66.8188C48.4135 66.8132 48.4658 66.8055 48.518 66.7988L48.5724 66.7921C48.6691 66.7799 48.7658 66.7666 48.8635 66.7521C48.928 66.7421 48.9935 66.731 49.058 66.7199L49.0802 66.7166C49.1747 66.701 49.2702 66.6843 49.3647 66.6666C49.438 66.6521 49.5113 66.6377 49.5858 66.6221C49.6791 66.6032 49.7735 66.5821 49.8669 66.561C49.9413 66.5443 50.0147 66.5266 50.0891 66.5088C50.1824 66.4855 50.2769 66.4621 50.3702 66.4366C50.4435 66.4166 50.5169 66.3977 50.5902 66.3766C50.6847 66.3499 50.7791 66.321 50.8735 66.2921L50.9047 66.2821C50.9713 66.2621 51.038 66.241 51.1035 66.2199C51.1613 66.201 51.218 66.1821 51.2747 66.1632C51.368 66.1321 51.4602 66.0999 51.5535 66.0655C51.6102 66.0443 51.668 66.0243 51.7247 66.0021C51.8191 65.9666 51.9135 65.9299 52.008 65.8921L52.0513 65.8755C52.0902 65.8599 52.1302 65.8443 52.1691 65.8288C52.2769 65.7843 52.3835 65.7377 52.4913 65.691L52.5424 65.6688C52.5635 65.6599 52.5858 65.6499 52.6069 65.641L52.6935 65.5999C52.8535 65.5266 53.018 65.4477 53.1813 65.3655C53.2369 65.3377 53.2935 65.3088 53.3491 65.2799C53.4958 65.2043 53.6435 65.1243 53.7902 65.0421L53.8447 65.0121C53.8702 64.9977 53.8958 64.9843 53.9213 64.9699C54.1035 64.8655 54.2658 64.7688 54.4169 64.6732C54.5713 64.5766 54.7335 64.4699 54.9147 64.3466C55.0324 64.2655 55.1513 64.1832 55.2691 64.0977L55.3358 64.0488C55.4802 63.9432 55.6091 63.8455 55.7302 63.751L55.7602 63.7266C55.9102 63.6088 56.0502 63.4955 56.1858 63.3821C56.3002 63.2855 56.4124 63.1877 56.5235 63.0888C56.5469 63.0677 56.5691 63.0466 56.5924 63.0255L56.668 62.9566C56.7291 62.901 56.7913 62.8443 56.8513 62.7877L56.9013 62.7399C57.0135 62.6321 57.1258 62.5221 57.2447 62.401C57.2802 62.3643 57.3158 62.3277 57.3513 62.291C57.4569 62.181 57.5613 62.0699 57.6624 61.9577L57.7213 61.8943C57.8391 61.7632 57.958 61.6243 58.0858 61.471L58.1724 61.3655C58.2824 61.231 58.3824 61.1043 58.4769 60.9788L58.5224 60.921C58.638 60.7677 58.7558 60.6032 58.8824 60.4188L58.9502 60.3199C59.0658 60.1499 59.1747 59.9799 59.2758 59.8166C59.3013 59.7743 59.3269 59.7321 59.3524 59.6899L59.3635 59.671C59.4035 59.6043 59.4435 59.5377 59.4824 59.4699C59.5102 59.4221 59.5369 59.3743 59.5635 59.3266L59.5747 59.3066C59.6124 59.2399 59.6491 59.1721 59.6858 59.1055C59.7158 59.051 59.7447 58.9955 59.7735 58.9399C59.808 58.8732 59.8424 58.8055 59.8769 58.7388C59.9047 58.6832 59.9324 58.6277 59.9591 58.571C59.9913 58.5032 60.0235 58.4366 60.0547 58.3688L60.0647 58.3455C60.1013 58.2666 60.138 58.1877 60.1724 58.1088C60.3602 57.6799 60.5247 57.2477 60.658 56.8221C61.2147 55.0755 61.3691 53.2599 61.1058 51.5699C61.088 51.4543 61.0669 51.3321 61.0402 51.1966L61.018 51.0899C60.9969 50.9888 60.9758 50.8888 60.9513 50.7888L60.9235 50.6755C60.8869 50.5277 60.8535 50.4043 60.8191 50.2899C60.7735 50.1355 60.7202 49.971 60.6491 49.771C60.6335 49.7277 60.618 49.6832 60.6013 49.6399C60.538 49.4699 60.478 49.3188 60.4169 49.1777L60.4002 49.1366C60.3358 48.9888 60.2613 48.831 60.1702 48.6521C60.148 48.6077 60.1247 48.5632 60.1013 48.5188C60.0458 48.4143 59.9891 48.311 59.9302 48.2077L59.9069 48.1677C59.8902 48.1388 59.8735 48.1088 59.8558 48.0799C59.7624 47.9232 59.6769 47.7866 59.5935 47.6621C59.5158 47.5455 59.4347 47.4299 59.3535 47.3188C59.2724 47.2077 59.2958 47.051 59.4069 46.9699C59.518 46.8888 59.6747 46.9121 59.7558 47.0232L59.7569 47.0243L62.558 50.8432C62.6435 50.9599 62.728 51.081 62.8091 51.2021C62.8102 51.2043 62.8113 51.2066 62.8135 51.2088C62.9013 51.341 62.9902 51.4832 63.0869 51.6443C63.1058 51.6755 63.1224 51.7066 63.1402 51.7366L63.1635 51.7777C63.2258 51.8866 63.2858 51.9955 63.3435 52.1055L63.3591 52.1343C63.3691 52.1521 63.3791 52.1699 63.388 52.1877C63.3947 52.1999 63.4002 52.2132 63.4058 52.2255L63.4147 52.2455C63.5091 52.4321 63.588 52.5988 63.6569 52.7566L63.6747 52.7988C63.7402 52.9521 63.8035 53.111 63.8691 53.2866L63.878 53.3099C63.8847 53.3255 63.8913 53.341 63.8969 53.3577C63.9024 53.3721 63.9069 53.3877 63.9113 53.4032L63.9191 53.4266C63.9924 53.6321 64.0491 53.8055 64.0969 53.9699C64.1324 54.091 64.1669 54.2199 64.2069 54.3755C64.2147 54.4055 64.2213 54.4366 64.2291 54.4666L64.2358 54.4932C64.2613 54.5988 64.2847 54.7043 64.3058 54.8099L64.3124 54.8377C64.3158 54.8521 64.3191 54.8666 64.3224 54.8821L64.3291 54.921C64.3569 55.0655 64.3791 55.1932 64.398 55.3132C64.6724 57.0799 64.5124 58.9743 63.9324 60.7932C63.7935 61.2332 63.6235 61.6832 63.428 62.1288C63.4024 62.1877 63.3758 62.2477 63.3491 62.3066C63.3402 62.3255 63.3324 62.3432 63.3235 62.361L63.3058 62.3977C63.2735 62.4677 63.2402 62.5377 63.2069 62.6066C63.1791 62.6655 63.1502 62.7232 63.1213 62.781C63.0869 62.851 63.0513 62.9199 63.0147 62.9899C62.9847 63.0477 62.9547 63.1043 62.9235 63.1621C62.8858 63.2321 62.848 63.301 62.8091 63.3699L62.7924 63.3999C62.7669 63.4466 62.7402 63.4932 62.7135 63.5388C62.6735 63.6088 62.6324 63.6777 62.5902 63.7466L62.5613 63.7943C62.548 63.8177 62.5335 63.841 62.5202 63.8643L62.5047 63.8888C62.3935 64.0677 62.2802 64.2432 62.1613 64.4188L62.0913 64.5199C61.9591 64.7121 61.8369 64.8821 61.718 65.0399L61.6713 65.101C61.5735 65.2288 61.468 65.3643 61.3558 65.501L61.3447 65.5155C61.3191 65.5466 61.2935 65.5788 61.2669 65.6099C61.1347 65.7688 61.0124 65.9121 60.8902 66.0477L60.8769 66.0632C60.868 66.0732 60.858 66.0843 60.848 66.0943L60.8291 66.1143C60.7235 66.2299 60.6169 66.3443 60.508 66.4577C60.4713 66.4955 60.4347 66.5332 60.398 66.571C60.2747 66.6966 60.158 66.811 60.0435 66.921L60.0302 66.9343C60.0213 66.9432 60.0135 66.951 60.0047 66.9599C60.0035 66.961 59.9958 66.9677 59.9947 66.9688C59.9324 67.0277 59.8691 67.0855 59.8058 67.1432L59.7291 67.2143C59.7047 67.2366 59.6802 67.2599 59.6547 67.2821C59.5402 67.3843 59.4235 67.4855 59.3047 67.5855C59.2302 67.6477 59.1569 67.7088 59.0835 67.7677C59.0102 67.8266 58.938 67.8843 58.8658 67.941L58.8358 67.9655C58.7091 68.0643 58.5758 68.1655 58.4291 68.2721L58.3602 68.3232C58.2535 68.3999 58.1469 68.4766 58.0402 68.5499C58.0302 68.5566 58.0202 68.5632 58.0102 68.5699L57.9935 68.581C57.808 68.7077 57.6391 68.8177 57.4791 68.9188C57.3202 69.0188 57.1524 69.1188 56.9669 69.2255L56.928 69.2488C56.9091 69.2599 56.8891 69.2699 56.8702 69.2799C56.8569 69.2866 56.8435 69.2932 56.8313 69.301C56.6791 69.3866 56.5258 69.4688 56.3758 69.5466C56.318 69.5766 56.2602 69.6066 56.2024 69.6354C56.0324 69.721 55.8624 69.8021 55.698 69.8777L55.6724 69.8899C55.658 69.8966 55.6435 69.9043 55.6291 69.9099L55.6135 69.9166C55.5835 69.9299 55.5591 69.941 55.5347 69.951L55.488 69.971C55.3769 70.0199 55.2658 70.0677 55.1547 70.1132C55.1158 70.1299 55.0758 70.1455 55.0358 70.161L54.9891 70.1799C54.8913 70.2188 54.7935 70.2566 54.6958 70.2932C54.6369 70.3155 54.578 70.3366 54.5191 70.3588C54.4235 70.3932 54.3269 70.4266 54.2313 70.4599C54.1702 70.4799 54.1124 70.4999 54.0547 70.5188L54.0169 70.531C53.9991 70.5377 53.9802 70.5432 53.9624 70.5488C53.9335 70.5577 53.9047 70.5666 53.8747 70.5743L53.8158 70.5921C53.718 70.6221 53.6202 70.651 53.5224 70.6788C53.4469 70.6999 53.3713 70.721 53.2958 70.741C53.198 70.7666 53.1013 70.7921 53.0035 70.8155C52.928 70.8343 52.8513 70.8521 52.7747 70.8699C52.6769 70.8921 52.5802 70.9132 52.4824 70.9332C52.4058 70.9488 52.3302 70.9643 52.2535 70.9788C52.1558 70.9977 52.0569 71.0143 51.958 71.031L51.9324 71.0355C51.8658 71.0466 51.8002 71.0577 51.7335 71.0677C51.6324 71.0832 51.5324 71.0966 51.4313 71.1088L51.3769 71.1154C51.3224 71.1221 51.268 71.1299 51.2147 71.1354C51.1102 71.1477 51.0058 71.1566 50.9013 71.1666L50.8347 71.1732C50.788 71.1777 50.7424 71.1821 50.6958 71.1855C50.5802 71.1943 50.4658 71.1999 50.3513 71.2054L50.2869 71.2088C50.2513 71.211 50.2158 71.2132 50.1802 71.2143C50.0102 71.2243 49.8369 71.2277 49.6735 71.2277ZM42.9702 68.5877C43.4191 68.9288 43.9047 69.2343 44.4135 69.4977C45.9669 70.3021 47.7858 70.7266 49.6747 70.7266C49.8313 70.7266 49.998 70.7232 50.1691 70.7166C50.2013 70.7155 50.2335 70.7132 50.2658 70.711L50.3347 70.7066C50.4458 70.701 50.5558 70.6955 50.6669 70.6866C50.7102 70.6832 50.7535 70.6788 50.7969 70.6755L50.8647 70.6688C50.9669 70.6599 51.0669 70.6499 51.168 70.6388C51.2191 70.6332 51.2702 70.6266 51.3224 70.6199L51.378 70.6121C51.4747 70.5999 51.5724 70.5866 51.6691 70.5721C51.7324 70.5621 51.7969 70.5521 51.8602 70.541L51.8858 70.5366C51.9813 70.521 52.0758 70.5043 52.1702 70.4866C52.2435 70.4721 52.3169 70.4577 52.3913 70.4421C52.4858 70.4232 52.5791 70.4021 52.6735 70.381C52.7469 70.3643 52.8213 70.3466 52.8947 70.3288C52.9891 70.3055 53.0824 70.281 53.1769 70.2566C53.2502 70.2366 53.3235 70.2177 53.3958 70.1966C53.4902 70.1699 53.5847 70.141 53.6791 70.1121L53.7458 70.0921C53.7713 70.0843 53.7958 70.0777 53.8202 70.0699L53.9091 70.0399C53.9647 70.0221 54.0213 70.0032 54.0769 69.9843C54.1724 69.9521 54.2658 69.9199 54.358 69.8866C54.4147 69.8655 54.4724 69.8454 54.5291 69.8232C54.6235 69.7877 54.718 69.751 54.8124 69.7132L54.8602 69.6943C54.898 69.6799 54.9347 69.6643 54.9724 69.6499C55.0802 69.6054 55.188 69.5588 55.2947 69.5121L55.3458 69.4899C55.368 69.481 55.3891 69.471 55.4102 69.4621L55.4591 69.4399C55.4724 69.4332 55.4847 69.4277 55.498 69.421C55.6569 69.3477 55.8213 69.2688 55.9869 69.1866C56.0435 69.1588 56.0991 69.1299 56.1547 69.101C56.3002 69.0254 56.448 68.9455 56.5958 68.8632C56.6124 68.8543 56.6291 68.8455 56.6458 68.8366C56.6602 68.8288 56.6747 68.821 56.6891 68.8132L56.7258 68.791C56.9069 68.6877 57.0691 68.5899 57.2224 68.4943C57.3769 68.3977 57.5402 68.291 57.7202 68.1677L57.7647 68.1388C57.868 68.0677 57.9713 67.9943 58.0747 67.9199L58.1424 67.8699C58.2847 67.7655 58.4135 67.6688 58.5358 67.5721L58.5658 67.5477C58.6347 67.4932 58.7058 67.4377 58.7769 67.3799C58.848 67.3221 58.9202 67.2632 58.9913 67.2032C59.1058 67.1066 59.218 67.0088 59.3291 66.9099C59.3524 66.8899 59.3747 66.8688 59.3958 66.8488L59.4758 66.7755C59.5358 66.7199 59.5969 66.6655 59.6558 66.6088C59.6569 66.6077 59.6624 66.6021 59.6647 66.601L59.7058 66.561C59.8169 66.4555 59.9291 66.3443 60.0491 66.2221C60.0847 66.1855 60.1202 66.1488 60.1558 66.1121C60.2613 66.0021 60.3658 65.891 60.4669 65.7788L60.5258 65.7143C60.6424 65.5832 60.7624 65.4455 60.8902 65.291C60.9158 65.261 60.9402 65.231 60.9647 65.1999L60.9769 65.1855C61.0847 65.0532 61.188 64.9221 61.2824 64.7988L61.328 64.7399C61.4424 64.5888 61.5602 64.4243 61.688 64.2388L61.7547 64.141C61.8702 63.971 61.9791 63.801 62.0813 63.6366L62.1013 63.6055C62.1135 63.5855 62.1258 63.5643 62.138 63.5432L62.1691 63.491C62.2091 63.4243 62.2491 63.3577 62.288 63.291C62.3135 63.2466 62.3391 63.2021 62.3635 63.1566L62.3802 63.1266C62.4169 63.0599 62.4547 62.9932 62.4902 62.9266C62.5202 62.871 62.5491 62.8166 62.578 62.761C62.6124 62.6943 62.6469 62.6277 62.6802 62.5599C62.708 62.5032 62.7358 62.4477 62.7635 62.391C62.7958 62.3243 62.828 62.2566 62.8591 62.1888L62.9013 62.101C62.9269 62.0443 62.9524 61.9877 62.978 61.9299C63.1669 61.4999 63.3302 61.0677 63.4635 60.6432C64.0202 58.8966 64.1747 57.081 63.9113 55.391C63.8935 55.2777 63.8724 55.1566 63.8458 55.0188L63.8247 54.9132C63.8035 54.8121 63.7813 54.7121 63.758 54.6121L63.7513 54.5843C63.7447 54.5566 63.738 54.5277 63.7313 54.4999C63.6935 54.351 63.6602 54.2277 63.6269 54.1132C63.5813 53.9566 63.5269 53.7921 63.4569 53.5955C63.4524 53.581 63.448 53.5688 63.4435 53.5555C63.4413 53.5477 63.438 53.5388 63.4358 53.531C63.4324 53.5221 63.4291 53.5143 63.4258 53.5066C63.4202 53.4932 63.4147 53.4788 63.4091 53.4655C63.3469 53.2988 63.2869 53.1466 63.2247 53.0032L63.208 52.9621C63.1435 52.8132 63.068 52.6543 62.978 52.4766C62.9724 52.4655 62.9658 52.4521 62.9602 52.4399L62.9513 52.4199C62.9458 52.4088 62.9391 52.3966 62.9324 52.3855C62.9247 52.3721 62.9169 52.3577 62.9091 52.3432C62.8535 52.2377 62.7969 52.1343 62.738 52.031L62.7135 51.9877C62.698 51.9599 62.6813 51.931 62.6647 51.9032C62.5713 51.7466 62.4858 51.6088 62.4024 51.4855C62.4013 51.4843 62.4002 51.4821 62.3991 51.4799C62.3224 51.3655 62.2424 51.2521 62.1624 51.1421L61.2058 49.8377C61.2435 49.9499 61.2758 50.0532 61.3047 50.1521C61.3402 50.2732 61.3758 50.4021 61.4147 50.5577L61.4435 50.6755C61.468 50.781 61.4913 50.8855 61.5135 50.991L61.5369 51.1021C61.5647 51.2443 61.5869 51.3721 61.6058 51.4943C61.8802 53.261 61.7191 55.1555 61.1402 56.9743C61.0013 57.4155 60.8313 57.8654 60.6358 58.3099C60.6002 58.3921 60.5613 58.4743 60.5235 58.5566L60.5135 58.5788C60.4813 58.6488 60.448 58.7188 60.4147 58.7888C60.3869 58.8466 60.358 58.9043 60.3291 58.9632C60.2935 59.0332 60.258 59.1032 60.2224 59.1721C60.1924 59.2288 60.1624 59.2866 60.1324 59.3432C60.0947 59.4132 60.0558 59.4821 60.0169 59.5521L60.0058 59.5721C59.978 59.6221 59.9502 59.671 59.9213 59.721C59.8813 59.791 59.8402 59.8599 59.798 59.9288L59.7869 59.9477C59.7602 59.9921 59.7335 60.0366 59.7069 60.0799C59.6024 60.2499 59.4891 60.4255 59.3691 60.6021L59.2991 60.7043C59.168 60.8955 59.0458 61.0655 58.9258 61.2243L58.8791 61.2843C58.7802 61.4143 58.6769 61.5454 58.5635 61.6843L58.4735 61.7932C58.3424 61.9521 58.2191 62.0943 58.0969 62.2299L58.0358 62.2954C57.9302 62.411 57.8235 62.5255 57.7135 62.6399C57.6769 62.6777 57.6402 62.7155 57.6035 62.7532C57.4813 62.8777 57.3658 62.9921 57.2491 63.1032L57.198 63.1532C57.1358 63.2121 57.0724 63.2699 57.008 63.3288L56.9358 63.3955C56.9102 63.4188 56.8858 63.4421 56.8602 63.4643C56.7458 63.5666 56.6291 63.6677 56.5102 63.7677C56.3691 63.8854 56.2258 64.0021 56.0702 64.1232L56.0402 64.1477C55.9147 64.2455 55.7813 64.3466 55.6335 64.4543L55.5647 64.5055C55.4424 64.5943 55.3202 64.6788 55.1991 64.7621C55.0135 64.8888 54.8447 64.9988 54.6847 65.0999C54.5269 65.1988 54.3591 65.2988 54.1724 65.4066C54.1447 65.4221 54.1169 65.4377 54.088 65.4532L54.0369 65.4821C53.8858 65.5666 53.7324 65.6499 53.5813 65.7277C53.5235 65.7577 53.4658 65.7877 53.408 65.8166C53.238 65.9021 53.0691 65.9832 52.9035 66.0588L52.8647 66.0766C52.848 66.0843 52.8302 66.0932 52.8135 66.101C52.7891 66.1121 52.7647 66.1221 52.7402 66.1332L52.6924 66.1532C52.5813 66.2021 52.4702 66.2499 52.3591 66.2954C52.318 66.3121 52.2769 66.3288 52.2347 66.3455L52.1924 66.3621C52.0947 66.401 51.998 66.4388 51.8991 66.4755C51.8402 66.4977 51.7813 66.5188 51.7213 66.541C51.6258 66.5755 51.5291 66.6088 51.4335 66.641C51.3747 66.661 51.3158 66.681 51.2569 66.6999C51.188 66.7221 51.118 66.7432 51.0491 66.7643L51.018 66.7732C50.9202 66.8032 50.8224 66.8321 50.7247 66.8599C50.6491 66.881 50.5724 66.9021 50.4969 66.9221C50.4002 66.9477 50.3035 66.9732 50.2058 66.9966C50.1291 67.0154 50.0524 67.0332 49.9758 67.051C49.8791 67.0732 49.7813 67.0943 49.6847 67.1143C49.6091 67.1299 49.5324 67.1455 49.4558 67.1599C49.3569 67.1788 49.2591 67.1954 49.1602 67.2121L49.138 67.2155C49.0702 67.2266 49.0024 67.2377 48.9347 67.2488C48.8335 67.2643 48.7335 67.2777 48.6335 67.2899L48.5802 67.2966C48.5247 67.3043 48.4702 67.311 48.4158 67.3177C48.3124 67.3299 48.2091 67.3388 48.1058 67.3488L48.0369 67.3555C47.9902 67.3599 47.9435 67.3643 47.898 67.3677C47.7835 67.3766 47.6691 67.3821 47.5547 67.3877L47.4891 67.391C47.4535 67.3932 47.418 67.3955 47.3824 67.3966C47.2047 67.4032 47.0324 67.4066 46.8691 67.4066C44.9002 67.4066 43.0024 66.9621 41.378 66.121C41.2547 66.0577 41.1335 65.991 41.0135 65.9232L42.9702 68.5877Z" fill="#F9FAFB"/>
<path d="M96.6729 72.0301C97.586 72.0301 98.3262 71.2898 98.3262 70.3767C98.3262 69.4636 97.586 68.7234 96.6729 68.7234C95.7598 68.7234 95.0195 69.4636 95.0195 70.3767C95.0195 71.2898 95.7598 72.0301 96.6729 72.0301Z" fill="#F9FAFB"/>
<path d="M27.1494 65.93C28.0625 65.93 28.8028 65.1897 28.8028 64.2766C28.8028 63.3635 28.0625 62.6233 27.1494 62.6233C26.2363 62.6233 25.4961 63.3635 25.4961 64.2766C25.4961 65.1897 26.2363 65.93 27.1494 65.93Z" fill="#F9FAFB"/>
<path d="M27.9768 67.2667C28.2983 67.2667 28.559 67.0061 28.559 66.6845C28.559 66.363 28.2983 66.1023 27.9768 66.1023C27.6552 66.1023 27.3945 66.363 27.3945 66.6845C27.3945 67.0061 27.6552 67.2667 27.9768 67.2667Z" fill="#F9FAFB"/>
<path d="M36.1729 45.1355C37.086 45.1355 37.8262 44.3953 37.8262 43.4822C37.8262 42.5691 37.086 41.8289 36.1729 41.8289C35.2598 41.8289 34.5195 42.5691 34.5195 43.4822C34.5195 44.3953 35.2598 45.1355 36.1729 45.1355Z" fill="#F9FAFB"/>
<path d="M38.1057 42.4066C38.4272 42.4066 38.6879 42.146 38.6879 41.8244C38.6879 41.5029 38.4272 41.2422 38.1057 41.2422C37.7841 41.2422 37.5234 41.5029 37.5234 41.8244C37.5234 42.146 37.7841 42.4066 38.1057 42.4066Z" fill="#F9FAFB"/>
<path d="M100.921 36.4289C102.492 36.4289 103.765 35.1554 103.765 33.5844C103.765 32.0135 102.492 30.74 100.921 30.74C99.3497 30.74 98.0762 32.0135 98.0762 33.5844C98.0762 35.1554 99.3497 36.4289 100.921 36.4289Z" fill="#E4E7EC"/>
<path d="M98.0771 32.1798C98.8251 32.1798 99.4315 31.5734 99.4315 30.8254C99.4315 30.0774 98.8251 29.4709 98.0771 29.4709C97.3291 29.4709 96.7227 30.0774 96.7227 30.8254C96.7227 31.5734 97.3291 32.1798 98.0771 32.1798Z" fill="#F9FAFB"/>
</svg>
