<svg width="400" height="293" viewBox="0 0 400 293" fill="none" xmlns="http://www.w3.org/2000/svg">
<g clip-path="url(#clip0_206_30819)">
<path d="M173.187 119.902C170.349 119.9 167.549 120.556 165.007 121.818C162.466 123.08 160.252 124.914 158.541 127.175C156.704 126.386 154.699 126.064 152.707 126.239C150.715 126.415 148.798 127.081 147.128 128.179C145.457 129.277 144.086 130.772 143.137 132.53C142.188 134.287 141.691 136.253 141.69 138.25H191.56C191.56 135.84 191.085 133.455 190.162 131.229C189.238 129.003 187.885 126.98 186.179 125.276C184.473 123.572 182.447 122.221 180.218 121.299C177.989 120.377 175.6 119.902 173.187 119.902Z" fill="#E6E6E6"/>
<path d="M242.078 107.205H23.8159C20.8971 107.209 18.099 108.369 16.035 110.43C13.9711 112.491 12.8098 115.285 12.8057 118.2V281.83C12.8098 284.745 13.9711 287.539 16.035 289.6C18.099 291.661 20.8971 292.821 23.8159 292.825H242.078C244.996 292.821 247.795 291.661 249.858 289.6C251.922 287.539 253.084 284.745 253.088 281.83V118.2C253.084 115.285 251.922 112.491 249.858 110.43C247.795 108.369 244.996 107.209 242.078 107.205ZM251.793 281.83C251.789 284.402 250.765 286.868 248.944 288.686C247.122 290.505 244.653 291.528 242.078 291.531H23.8159C21.2403 291.528 18.7711 290.505 16.9499 288.686C15.1286 286.868 14.1041 284.402 14.101 281.83V118.2C14.1041 115.628 15.1286 113.162 16.9499 111.344C18.7711 109.525 21.2403 108.502 23.8159 108.499H242.078C244.653 108.502 247.122 109.525 248.944 111.344C250.765 113.162 251.789 115.628 251.793 118.2V281.83Z" fill="#3F3D56"/>
<path d="M49.3984 224.914C76.4042 224.914 98.2968 203.052 98.2968 176.084C98.2968 149.116 76.4042 127.254 49.3984 127.254C22.3926 127.254 0.5 149.116 0.5 176.084C0.5 203.052 22.3926 224.914 49.3984 224.914Z" fill="#002B3F"/>
<path d="M253.088 245.655V259.192H12.8057V245.591L14.101 243.728L90.2789 134.187C90.6245 133.69 91.0854 133.284 91.6222 133.003C92.1591 132.723 92.7559 132.576 93.3618 132.576C93.9677 132.576 94.5645 132.723 95.1014 133.003C95.6383 133.284 96.0992 133.69 96.4447 134.187L147.532 207.639L183.898 155.808C184.244 155.313 184.705 154.91 185.24 154.631C185.776 154.352 186.371 154.207 186.975 154.207C187.578 154.207 188.173 154.352 188.709 154.631C189.245 154.91 189.705 155.313 190.051 155.808L251.793 243.806L253.088 245.655Z" fill="#3F3D56"/>
<path d="M65.5901 274.715H27.3781C27.2067 274.715 27.0424 274.647 26.9214 274.525C26.8004 274.404 26.7324 274.24 26.7324 274.069C26.7324 273.897 26.8004 273.733 26.9214 273.612C27.0424 273.491 27.2067 273.422 27.3781 273.422H65.5901C65.7619 273.422 65.9266 273.49 66.048 273.611C66.1695 273.733 66.2377 273.897 66.2377 274.069C66.2377 274.24 66.1695 274.405 66.048 274.526C65.9266 274.647 65.7619 274.715 65.5901 274.715Z" fill="#3F3D56"/>
<path d="M123.232 274.715H85.0198C84.9345 274.716 84.8501 274.699 84.7713 274.667C84.6925 274.634 84.6209 274.587 84.5605 274.527C84.5002 274.467 84.4523 274.395 84.4196 274.317C84.3869 274.238 84.3701 274.154 84.3701 274.069C84.3701 273.984 84.3869 273.899 84.4196 273.821C84.4523 273.742 84.5002 273.671 84.5605 273.611C84.6209 273.551 84.6925 273.503 84.7713 273.471C84.8501 273.438 84.9345 273.422 85.0198 273.422H123.232C123.404 273.422 123.568 273.49 123.69 273.611C123.811 273.733 123.879 273.897 123.879 274.069C123.879 274.24 123.811 274.405 123.69 274.526C123.568 274.647 123.404 274.715 123.232 274.715Z" fill="#3F3D56"/>
<path d="M180.873 274.715H142.661C142.49 274.715 142.326 274.647 142.205 274.525C142.084 274.404 142.016 274.24 142.016 274.069C142.016 273.897 142.084 273.733 142.205 273.612C142.326 273.491 142.49 273.422 142.661 273.422H180.873C181.045 273.422 181.21 273.49 181.331 273.611C181.453 273.733 181.521 273.897 181.521 274.069C181.521 274.24 181.453 274.405 181.331 274.526C181.21 274.647 181.045 274.715 180.873 274.715Z" fill="#3F3D56"/>
<path d="M238.515 274.715H200.303C200.131 274.715 199.967 274.647 199.846 274.525C199.725 274.404 199.657 274.24 199.657 274.069C199.657 273.897 199.725 273.733 199.846 273.612C199.967 273.491 200.131 273.422 200.303 273.422H238.515C238.687 273.422 238.851 273.49 238.973 273.611C239.094 273.733 239.163 273.897 239.163 274.069C239.163 274.24 239.094 274.405 238.973 274.526C238.851 274.647 238.687 274.715 238.515 274.715Z" fill="#3F3D56"/>
<path d="M350.583 144.188C396.73 102.483 413.125 45.4878 387.203 16.8853C361.281 -11.7173 302.858 -1.09565 256.711 40.6094C210.565 82.3144 194.17 139.31 220.092 167.913C246.014 196.515 304.437 185.894 350.583 144.188Z" fill="#E6E6E6"/>
<path d="M216.319 258.357C210.096 245.52 207.893 231.056 208.976 216.894C210.152 202.821 214.309 189.159 221.173 176.812C227.727 164.845 236.39 154.133 246.237 144.713C256.689 134.715 268.474 126.228 280.873 118.81C293.967 110.978 307.725 104.321 321.644 98.0933C323.378 97.3171 325.115 96.547 326.855 95.7829C327.997 95.2809 327.01 93.6085 325.875 94.1075C311.684 100.347 297.613 106.923 284.157 114.638C271.302 122.009 259.003 130.441 248.016 140.405C237.766 149.7 228.631 160.333 221.548 172.239C214.183 184.445 209.407 198.032 207.517 212.158C205.702 226.383 207.105 241.176 212.505 254.524C213.164 256.152 213.876 257.756 214.642 259.337C215.186 260.46 216.862 259.477 216.319 258.357Z" fill="#CCCCCC"/>
<path d="M269.915 123.758C269.272 113.179 270.07 102.562 272.284 92.1965C274.492 81.8256 278.077 71.7954 282.942 62.3715C285.681 57.0811 288.819 52.0069 292.331 47.193C293.068 46.1824 291.383 45.2132 290.653 46.2137C284.344 54.8913 279.238 64.3798 275.472 74.4222C271.697 84.4657 269.276 94.9653 268.27 105.646C267.703 111.666 267.603 117.722 267.972 123.758C268.047 124.998 269.991 125.007 269.915 123.758Z" fill="#CCCCCC"/>
<path d="M133.918 150.537C130.416 150.535 126.962 151.344 123.826 152.901C120.69 154.458 117.959 156.72 115.848 159.51C113.582 158.536 111.109 158.139 108.651 158.356C106.193 158.572 103.828 159.394 101.767 160.749C99.706 162.103 98.0141 163.947 96.8433 166.116C95.6724 168.285 95.0592 170.71 95.0586 173.174H156.586C156.586 170.201 156 167.257 154.861 164.511C153.722 161.765 152.052 159.269 149.947 157.167C147.842 155.065 145.343 153.398 142.593 152.26C139.843 151.123 136.895 150.537 133.918 150.537Z" fill="#CCCCCC"/>
</g>
<defs>
<clipPath id="clip0_206_30819">
<rect width="399" height="292" fill="white" transform="translate(0.5 0.824219)"/>
</clipPath>
</defs>
</svg>
