<svg width="35" height="24" viewBox="0 0 35 24" fill="none" xmlns="http://www.w3.org/2000/svg">
<rect x="0.5" y="0.5" width="34" height="23" rx="3.5" fill="white" stroke="#D9D9D9"/>
<path d="M22.3171 12.2873C22.8308 12.2984 23.3474 12.2646 23.859 12.3049C24.3771 12.4015 24.502 13.1859 24.0417 13.4428C23.7276 13.612 23.3545 13.5058 23.014 13.5357H22.3171V12.2873ZM24.156 10.8743C24.2701 11.2771 23.8818 11.6388 23.4938 11.5833H22.3171C22.3254 11.2034 22.301 10.7911 22.3291 10.4312C22.8005 10.4445 23.2762 10.4041 23.7449 10.4523C23.9463 10.5029 24.1148 10.6684 24.156 10.8743ZM26.988 4.90042C27.0099 5.66972 26.9911 6.47968 26.9974 7.26459C26.996 10.4557 27.0005 13.6468 26.9949 16.8381C26.9743 18.0341 25.9144 19.0733 24.7267 19.0971C23.5379 19.102 22.3488 19.0979 21.1598 19.0992V14.2749C22.4553 14.2682 23.7514 14.2884 25.0464 14.2647C25.6471 14.227 26.3051 13.8307 26.3331 13.1696C26.4038 12.5057 25.7778 12.0464 25.1835 11.9739C24.9551 11.968 24.9618 11.9073 25.1835 11.8808C25.7504 11.7583 26.1955 11.1717 26.0287 10.5841C25.8866 9.96618 25.2036 9.72701 24.6355 9.72819C23.4771 9.72032 22.3185 9.72709 21.1601 9.72481C21.1676 8.82416 21.1445 7.92255 21.1725 7.02256C21.2643 5.84819 22.3509 4.87971 23.5219 4.90073C24.6774 4.90055 25.8327 4.90055 26.988 4.90051V4.90042Z" fill="url(#paint0_linear_193_89085)"/>
<path d="M8.06987 7.14441C8.09946 5.95034 9.16389 4.91967 10.35 4.90222C11.5345 4.89857 12.7191 4.90169 13.9035 4.90064C13.9003 8.89572 13.9099 12.8912 13.8986 16.8861C13.853 18.0657 12.8002 19.0767 11.627 19.0976C10.4403 19.1019 9.25348 19.0982 8.06675 19.0994V14.1124C9.21945 14.3847 10.4282 14.5006 11.6042 14.32C12.3071 14.2069 13.0762 13.8617 13.3142 13.1324C13.4893 12.5086 13.3907 11.8521 13.4168 11.2119V9.72503H11.3817C11.3725 10.7084 11.4004 11.6935 11.367 12.6757C11.3121 13.2794 10.7142 13.663 10.1448 13.6425C9.43871 13.65 8.03941 13.1307 8.03941 13.1307C8.03589 11.2883 8.0599 8.98091 8.06987 7.14458V7.14441Z" fill="url(#paint1_linear_193_89085)"/>
<path d="M14.6631 10.325C14.5559 10.3477 14.6415 9.96009 14.6141 9.81305C14.6214 8.88335 14.5989 7.95263 14.6266 7.02359C14.7181 5.84425 15.813 4.87336 16.9888 4.90097H20.4512C20.4479 8.89605 20.4576 12.8916 20.4463 16.8864C20.4006 18.066 19.3477 19.077 18.1745 19.0979C16.9878 19.1024 15.8009 19.0986 14.6141 19.0997V13.6358C15.4246 14.3009 16.5262 14.4044 17.536 14.4062C18.2973 14.4059 19.0541 14.2885 19.7934 14.113V13.112C18.9602 13.5272 17.9809 13.7909 17.0573 13.5524C16.4131 13.392 15.9454 12.7694 15.9559 12.1046C15.8812 11.4131 16.2865 10.6832 16.9659 10.4776C17.8095 10.2135 18.7289 10.4155 19.5197 10.7589C19.6891 10.8476 19.8611 10.9576 19.7933 10.6744V9.88764C18.4708 9.573 17.0634 9.45721 15.7348 9.79951C15.3502 9.908 14.9755 10.0725 14.6631 10.3251V10.325Z" fill="url(#paint2_linear_193_89085)"/>
<defs>
<linearGradient id="paint0_linear_193_89085" x1="21.12" y1="11.6962" x2="26.9606" y2="11.6962" gradientUnits="userSpaceOnUse">
<stop stop-color="#58B03A"/>
<stop offset="1" stop-color="#55B330"/>
</linearGradient>
<linearGradient id="paint1_linear_193_89085" x1="7.94257" y1="12.136" x2="13.8078" y2="12.136" gradientUnits="userSpaceOnUse">
<stop stop-color="#0F6EB6"/>
<stop offset="1" stop-color="#006DBA"/>
</linearGradient>
<linearGradient id="paint2_linear_193_89085" x1="14.6055" y1="11.8343" x2="20.4501" y2="11.8343" gradientUnits="userSpaceOnUse">
<stop stop-color="#DE0D3D"/>
<stop offset="1" stop-color="#E30138"/>
</linearGradient>
</defs>
</svg>
