<svg width="24" height="24" viewBox="0 0 24 24" fill="none" xmlns="http://www.w3.org/2000/svg">
<g clip-path="url(#clip0_193_88869)">
<path d="M24 0H0V24H24V0Z" fill="#776764"/>
<path d="M11.9743 10.0625C12.0654 10.2353 12.0367 10.3841 12.0511 10.5281C12.147 11.3393 12.339 12.1265 12.5742 12.9041C12.9582 14.1857 13.4621 15.4241 14.0621 16.6193C14.6141 17.7137 15.2476 18.7505 16.0299 19.6961C16.2027 19.9073 16.3995 20.0993 16.5867 20.2961C16.6587 20.3729 16.6491 20.4017 16.5627 20.4449C15.6508 20.9345 14.6908 21.2753 13.6685 21.4529C12.9966 21.5681 12.315 21.6257 11.6335 21.5921C10.4 21.5345 9.21447 21.2753 8.08656 20.7665C7.86577 20.6657 7.64499 20.5601 7.43381 20.4449C7.36661 20.4065 7.32342 20.3825 7.40021 20.3009C8.55212 19.1297 9.37766 17.7425 10.0928 16.2785C10.7935 14.8481 11.3455 13.3601 11.7103 11.8097C11.8447 11.2529 11.9551 10.6817 11.9743 10.0625Z" fill="#FEC428"/>
<path d="M7.36327 3.73608C7.32008 3.62088 7.42567 3.54408 7.57446 3.47208C8.62557 2.93928 9.72949 2.60328 10.9006 2.46408C11.1886 2.43048 11.4766 2.42568 11.7645 2.40168C11.8893 2.39208 11.9229 2.43528 11.9133 2.55528C11.8797 2.93448 11.8605 3.30888 11.8221 3.68808C11.7693 4.21128 11.7117 4.73448 11.6349 5.25288C11.4622 6.45288 11.2606 7.64328 10.9678 8.81928C10.7374 9.73608 10.4686 10.6433 10.0943 11.5121C10.0751 11.5601 10.0463 11.6033 10.0319 11.6513C9.98867 11.7953 9.92627 11.7713 9.83508 11.6945C9.47511 11.4065 9.21593 11.0417 8.99515 10.6433C8.53438 9.80808 8.2512 8.91048 8.02082 7.98888C7.78564 7.05288 7.62245 6.10248 7.50726 5.14728C7.44487 4.70088 7.41127 4.25448 7.36327 3.73608Z" fill="#FEC428"/>
<path d="M12.0936 2.62648C12.0936 2.60248 12.0984 2.57368 12.0936 2.54968C12.0696 2.42488 12.1272 2.39608 12.2424 2.40088C13.2935 2.44408 14.3158 2.62648 15.3045 2.98648C15.7125 3.13528 16.1109 3.31288 16.4996 3.51448C16.6052 3.56728 16.634 3.62968 16.6244 3.74008C16.586 4.22488 16.538 4.70488 16.4852 5.18488C16.4084 5.90488 16.2837 6.61528 16.1349 7.32088C15.9285 8.29048 15.6645 9.24568 15.2517 10.1529C14.9926 10.7193 14.6902 11.2569 14.2006 11.6601C14.0422 11.7945 14.0326 11.7897 13.951 11.6073C13.4663 10.5129 13.1447 9.36088 12.8855 8.19448C12.5975 6.89368 12.3912 5.57848 12.2424 4.24888C12.18 3.70648 12.1368 3.16408 12.084 2.62168C12.0888 2.62648 12.0888 2.62648 12.0936 2.62648Z" fill="#FEC428"/>
<path d="M16.8125 3.70312C17.3213 4.00073 17.7772 4.31753 18.1996 4.68233C19.8651 6.12713 20.9258 7.92712 21.3913 10.0823C21.5065 10.6199 21.5689 11.1671 21.5929 11.7191C21.6121 12.1511 21.5785 12.5783 21.5545 13.0055C21.5449 13.1927 21.5353 13.1927 21.3625 13.1207C19.6683 12.3623 18.5836 11.0423 17.8684 9.37193C17.4125 8.30633 17.1341 7.19273 16.9805 6.04553C16.8845 5.33033 16.8269 4.61033 16.8173 3.89033C16.8125 3.83273 16.8125 3.78473 16.8125 3.70312Z" fill="#FEC428"/>
<path d="M7.15572 3.72266C7.21331 3.87626 7.17011 4.02986 7.16532 4.17866C7.13172 5.35466 6.99253 6.51626 6.69975 7.65386C6.35418 8.99306 5.82622 10.2507 4.95269 11.3451C4.31914 12.1419 3.5032 12.7131 2.58167 13.1403C2.46168 13.1931 2.45208 13.1355 2.44728 13.0491C2.41848 12.5979 2.38489 12.1515 2.40408 11.7003C2.50968 9.36266 3.34001 7.31786 4.88549 5.56586C5.51424 4.85066 6.25339 4.25546 7.06932 3.76586C7.09812 3.74666 7.12212 3.73706 7.15572 3.72266Z" fill="#FEC428"/>
<path d="M7.2847 9.99609C7.32309 10.1785 7.35189 10.3561 7.39989 10.5337C7.71666 11.7001 8.20622 12.7801 8.98376 13.7161C9.03176 13.7737 9.03176 13.8121 8.99816 13.8745C8.27822 15.2233 7.42388 16.4713 6.25757 17.4841C5.85921 17.8297 5.42724 18.1273 4.96168 18.3865C4.88968 18.4249 4.84168 18.4297 4.78409 18.3577C4.01615 17.4649 3.4162 16.4761 2.99863 15.3769C2.96023 15.2713 3.00343 15.2473 3.08022 15.2137C3.89616 14.8297 4.6161 14.3065 5.24005 13.6633C6.09919 12.7753 6.78073 11.7721 7.14071 10.5769C7.1695 10.4809 7.1983 10.3849 7.2127 10.2841C7.2319 10.1881 7.2607 10.0969 7.2847 9.99609Z" fill="#FEC428"/>
<path d="M16.6965 10C16.7637 10.2256 16.8069 10.4512 16.8789 10.672C17.162 11.5648 17.6372 12.3472 18.2228 13.0672C18.8371 13.8256 19.5618 14.4592 20.4114 14.944C20.5746 15.0352 20.7426 15.1216 20.9105 15.2032C21.0065 15.2464 21.0209 15.2896 20.9873 15.3904C20.637 16.3168 20.157 17.1664 19.5426 17.944C19.4419 18.0736 19.3315 18.1888 19.2355 18.3232C19.1635 18.4192 19.1059 18.4336 18.9955 18.3712C18.1796 17.9104 17.474 17.3152 16.8549 16.6192C16.1253 15.8032 15.5398 14.8864 15.0214 13.9264C14.9638 13.8208 14.9734 13.7584 15.0502 13.6672C15.4678 13.1824 15.7749 12.6304 16.0389 12.0544C16.3173 11.4592 16.5429 10.84 16.6629 10.192C16.6773 10.1296 16.6869 10.0672 16.6965 10Z" fill="#FEC428"/>
</g>
<defs>
<clipPath id="clip0_193_88869">
<rect width="24" height="24" rx="5" fill="white"/>
</clipPath>
</defs>
</svg>
