<svg width="343" height="76" viewBox="0 0 343 76" fill="none" xmlns="http://www.w3.org/2000/svg">
<path d="M142.322 21.936C142.322 24.096 141.914 25.952 141.098 27.504C140.298 29.04 139.146 30.216 137.642 31.032C136.154 31.848 134.394 32.256 132.362 32.256C130.89 32.256 129.61 32.064 128.522 31.68C127.434 31.312 126.57 30.912 125.93 30.48C125.29 30.032 124.898 29.696 124.754 29.472L127.442 23.256C127.634 23.528 127.906 23.824 128.258 24.144C128.61 24.464 129.042 24.744 129.554 24.984C130.066 25.208 130.642 25.32 131.282 25.32C132.018 25.32 132.674 25.168 133.25 24.864C133.826 24.56 134.282 24.056 134.618 23.352C134.97 22.648 135.146 21.712 135.146 20.544V0H142.322V21.936Z" fill="#2C0735"/>
<path d="M105.397 0H112.525L125.029 31.68H117.373L115.069 25.32H102.877L100.549 31.68H92.8691L105.397 0ZM105.277 19.032H112.693L109.021 8.64H108.949L105.277 19.032Z" fill="#2C0735"/>
<path d="M56.7812 0H77.0132V6.288H63.9332V12.744H76.8933V18.84H63.9332V25.392H77.0132V31.68H56.7812V0Z" fill="#2C0735"/>
<path d="M44.221 18.936H33.277V31.68H26.125V0H33.277V12.672H44.221V0H51.349V31.68H44.221V18.936Z" fill="#2C0735"/>
<path d="M7.56 6.288H0V0H22.272V6.288H14.736V31.68H7.56V6.288Z" fill="#2C0735"/>
<path d="M87.9102 41H95.0862V66.392H106.582V72.68H87.9102V41Z" fill="#2C0735"/>
<path d="M61.2344 41H72.7544C74.7864 41 76.6184 41.36 78.2504 42.08C79.8824 42.784 81.1784 43.864 82.1384 45.32C83.1144 46.76 83.6024 48.568 83.6024 50.744C83.6024 52.904 83.1144 54.744 82.1384 56.264C81.1784 57.768 79.8824 58.92 78.2504 59.72C76.6184 60.504 74.7864 60.896 72.7544 60.896H68.4104V72.68H61.2344V41ZM68.4104 55.232H70.7624C71.7384 55.232 72.6104 55.088 73.3784 54.8C74.1624 54.512 74.7864 54.056 75.2504 53.432C75.7144 52.792 75.9464 51.952 75.9464 50.912C75.9464 49.856 75.7144 49.024 75.2504 48.416C74.7864 47.792 74.1624 47.344 73.3784 47.072C72.6104 46.8 71.7384 46.664 70.7624 46.664H68.4104V55.232Z" fill="#2C0735"/>
<path d="M46.0175 55.64L57.9215 72.68H48.5615L41.2415 61.616L34.1615 72.68H25.5215L36.7535 55.64L26.5535 41H35.6735L41.5295 50.12L47.3135 41H56.0495L46.0175 55.64Z" fill="#2C0735"/>
<path d="M1.65625 41H21.8883V47.288H8.80825V53.744H21.7683V59.84H8.80825V66.392H21.8883V72.68H1.65625V41Z" fill="#2C0735"/>
<path d="M204.559 41H217.471C219.311 41 220.951 41.384 222.391 42.152C223.831 42.92 224.967 44.032 225.799 45.488C226.647 46.928 227.071 48.648 227.071 50.648C227.071 52.648 226.711 54.288 225.991 55.568C225.287 56.832 224.439 57.784 223.447 58.424C222.455 59.048 221.535 59.424 220.687 59.552L228.391 72.68H220.327L213.463 60.104H211.735V72.68H204.559V41ZM211.735 55.136H214.903C216.183 55.136 217.303 54.824 218.263 54.2C219.223 53.576 219.703 52.472 219.703 50.888C219.703 49.304 219.231 48.208 218.287 47.6C217.343 46.976 216.231 46.664 214.951 46.664H211.735V55.136Z" fill="#2C0735"/>
<path d="M179.062 41H199.295V47.288H186.215V53.744H199.174V59.84H186.215V66.392H199.295V72.68H179.062V41Z" fill="#2C0735"/>
<path d="M150.512 41H163.424C165.264 41 166.904 41.384 168.344 42.152C169.784 42.92 170.92 44.032 171.752 45.488C172.6 46.928 173.024 48.648 173.024 50.648C173.024 52.648 172.664 54.288 171.944 55.568C171.24 56.832 170.392 57.784 169.4 58.424C168.408 59.048 167.488 59.424 166.64 59.552L174.344 72.68H166.28L159.416 60.104H157.688V72.68H150.512V41ZM157.688 55.136H160.856C162.136 55.136 163.256 54.824 164.216 54.2C165.176 53.576 165.656 52.472 165.656 50.888C165.656 49.304 165.184 48.208 164.24 47.6C163.296 46.976 162.184 46.664 160.904 46.664H157.688V55.136Z" fill="#2C0735"/>
<path d="M342.962 41V72.68H335.81V54.032L336.122 48.728L334.898 54.8L329.57 70.136H322.538L317.234 54.8L316.034 48.728L316.346 54.032V72.68H309.17V41H319.25L325.634 62.144L326.066 64.664L326.498 62.144L332.882 41H342.962Z" fill="#2C0735"/>
<path d="M280.05 56.8158C280.05 58.6238 280.418 60.2638 281.154 61.7358C281.906 63.1918 282.938 64.3518 284.25 65.2158C285.578 66.0798 287.114 66.5118 288.858 66.5118C290.602 66.5118 292.13 66.0798 293.442 65.2158C294.77 64.3518 295.802 63.1918 296.538 61.7358C297.29 60.2638 297.666 58.6238 297.666 56.8158C297.666 55.0078 297.29 53.3758 296.538 51.9198C295.802 50.4638 294.77 49.3038 293.442 48.4398C292.13 47.5598 290.602 47.1198 288.858 47.1198C287.114 47.1198 285.578 47.5598 284.25 48.4398C282.938 49.3038 281.906 50.4638 281.154 51.9198C280.418 53.3758 280.05 55.0078 280.05 56.8158ZM272.586 56.8158C272.586 54.5118 272.994 52.3678 273.81 50.3838C274.626 48.3838 275.77 46.6398 277.242 45.1518C278.714 43.6638 280.442 42.5038 282.426 41.6718C284.41 40.8398 286.554 40.4238 288.858 40.4238C291.194 40.4238 293.346 40.8398 295.314 41.6718C297.298 42.5038 299.018 43.6638 300.474 45.1518C301.946 46.6398 303.082 48.3838 303.882 50.3838C304.698 52.3678 305.106 54.5118 305.106 56.8158C305.106 59.1358 304.714 61.2958 303.93 63.2958C303.146 65.2798 302.026 67.0238 300.57 68.5278C299.114 70.0158 297.394 71.1758 295.41 72.0078C293.426 72.8398 291.242 73.2558 288.858 73.2558C286.426 73.2558 284.21 72.8398 282.21 72.0078C280.226 71.1758 278.514 70.0158 277.074 68.5278C275.634 67.0238 274.522 65.2798 273.738 63.2958C272.97 61.2958 272.586 59.1358 272.586 56.8158Z" fill="#2C0735"/>
<path d="M259.432 66.1518C260.904 66.1518 262.24 65.9358 263.44 65.5038C264.656 65.0718 265.56 64.6478 266.152 64.2318L269.224 70.3278C268.472 70.9678 267.184 71.6158 265.36 72.2718C263.552 72.9278 261.4 73.2558 258.904 73.2558C256.568 73.2558 254.376 72.8478 252.328 72.0318C250.28 71.2158 248.472 70.0718 246.904 68.5998C245.352 67.1118 244.128 65.3758 243.232 63.3918C242.352 61.3918 241.912 59.2238 241.912 56.8878C241.912 54.5518 242.352 52.3838 243.232 50.3838C244.112 48.3678 245.328 46.6158 246.88 45.1278C248.448 43.6398 250.256 42.4878 252.304 41.6718C254.368 40.8398 256.568 40.4238 258.904 40.4238C261.4 40.4238 263.552 40.7518 265.36 41.4078C267.184 42.0638 268.472 42.7118 269.224 43.3518L266.152 49.4478C265.56 49.0158 264.656 48.5918 263.44 48.1758C262.24 47.7438 260.904 47.5278 259.432 47.5278C257.8 47.5278 256.376 47.7838 255.16 48.2958C253.944 48.7918 252.928 49.4798 252.112 50.3598C251.296 51.2398 250.688 52.2318 250.288 53.3358C249.888 54.4398 249.688 55.5998 249.688 56.8158C249.688 58.0478 249.888 59.2238 250.288 60.3438C250.688 61.4478 251.296 62.4398 252.112 63.3198C252.928 64.1998 253.944 64.8958 255.16 65.4078C256.376 65.9038 257.8 66.1518 259.432 66.1518Z" fill="#2C0735"/>
<path d="M128.165 72.596C136.679 72.596 143.581 65.6938 143.581 57.1794C143.581 48.665 136.679 41.7627 128.165 41.7627C119.65 41.7627 112.748 48.665 112.748 57.1794C112.748 65.6938 119.65 72.596 128.165 72.596Z" stroke="#4E148C" stroke-width="3" stroke-linecap="round" stroke-linejoin="round"/>
<path d="M132.361 51.4227C133.114 51.1717 133.491 51.0461 133.741 51.1354C133.959 51.2132 134.131 51.3847 134.209 51.6026C134.298 51.853 134.172 52.2296 133.921 52.9828L131.628 59.8627C131.557 60.0772 131.521 60.1844 131.46 60.2735C131.406 60.3524 131.338 60.4206 131.259 60.4745C131.17 60.5355 131.063 60.5712 130.848 60.6427L123.968 62.936C123.215 63.1871 122.838 63.3126 122.588 63.2233C122.37 63.1456 122.199 62.9741 122.121 62.7561C122.031 62.5057 122.157 62.1291 122.408 61.3759L124.701 54.4961C124.773 54.2815 124.809 54.1743 124.87 54.0852C124.924 54.0063 124.992 53.9382 125.071 53.8842C125.16 53.8233 125.267 53.7875 125.481 53.716L132.361 51.4227Z" stroke="#4E148C" stroke-width="3" stroke-linecap="round" stroke-linejoin="round"/>
<path d="M238.664 69.1797C238.664 71.1127 237.097 72.6797 235.164 72.6797C233.231 72.6797 231.664 71.1127 231.664 69.1797C231.664 67.2467 233.231 65.6797 235.164 65.6797C237.097 65.6797 238.664 67.2467 238.664 69.1797Z" fill="#4E148C"/>
</svg>
