<svg width="16" height="16" viewBox="0 0 16 16" fill="none" xmlns="http://www.w3.org/2000/svg">
<path d="M3.33203 9.52489C2.09779 10.0694 1.33203 10.8281 1.33203 11.6673C1.33203 13.3242 4.3168 14.6673 7.9987 14.6673C11.6806 14.6673 14.6654 13.3242 14.6654 11.6673C14.6654 10.8281 13.8996 10.0694 12.6654 9.52489M11.9987 5.33398C11.9987 8.04312 8.9987 9.33398 7.9987 11.334C6.9987 9.33398 3.9987 8.04312 3.9987 5.33398C3.9987 3.12485 5.78956 1.33398 7.9987 1.33398C10.2078 1.33398 11.9987 3.12485 11.9987 5.33398ZM8.66536 5.33398C8.66536 5.70217 8.36689 6.00065 7.9987 6.00065C7.63051 6.00065 7.33203 5.70217 7.33203 5.33398C7.33203 4.96579 7.63051 4.66732 7.9987 4.66732C8.36689 4.66732 8.66536 4.96579 8.66536 5.33398Z" stroke="black" stroke-width="1.5" stroke-linecap="round" stroke-linejoin="round"/>
</svg>
