<svg width="400" height="272" viewBox="0 0 400 272" fill="none" xmlns="http://www.w3.org/2000/svg">
<path d="M276.535 248.162L283.97 255.796C283.97 255.796 290.849 255.871 289.504 252.26C289.235 251.478 289.043 250.674 288.932 249.857C288.593 247.295 288.431 244.713 288.448 242.131C288.448 240.438 288.475 239.25 288.475 239.25C288.475 239.25 277.645 234.737 278.751 239.438C278.889 240.026 278.963 240.626 278.973 241.228C278.977 242.97 278.554 244.689 277.737 246.249C277.404 246.922 277.001 247.563 276.535 248.162Z" fill="#FFB9B9"/>
<path d="M259.284 259.658C261.805 261.702 265.028 262.794 268.339 262.728C274.472 262.646 285.929 262.474 288.589 262.368C292.149 262.219 290.967 259.329 290.853 257.338V257.141C290.81 255.146 290.392 250.822 289.682 250.147C288.972 249.471 286.542 253.155 286.542 253.155C286.542 253.155 281.798 254.471 280.493 250.524C279.188 246.577 276.537 246.196 276.537 246.196C275.334 245.7 275.274 248.678 275.274 248.678L265.232 253.602L259.34 254.479C259.151 254.561 258.98 254.646 258.819 254.729C256.153 256.151 257.334 258.054 259.284 259.658Z" fill="#090814"/>
<path d="M248.586 248.162L256.021 255.796C256.021 255.796 262.9 255.871 261.555 252.26C261.285 251.478 261.094 250.674 260.983 249.857C260.644 247.295 260.482 244.713 260.498 242.131C260.498 240.438 260.526 239.25 260.526 239.25C260.526 239.25 249.696 234.737 250.802 239.438C250.94 240.026 251.014 240.626 251.024 241.228C251.028 242.97 250.605 244.689 249.788 246.249C249.454 246.922 249.052 247.563 248.586 248.162Z" fill="#FFB9B9"/>
<path d="M231.335 259.658C233.856 261.702 237.078 262.794 240.39 262.728C246.523 262.646 257.98 262.474 260.64 262.368C264.2 262.219 263.018 259.329 262.904 257.338V257.141C262.861 255.146 262.443 250.822 261.733 250.147C261.023 249.471 258.593 253.155 258.593 253.155C258.593 253.155 253.849 254.471 252.544 250.524C251.239 246.577 248.588 246.196 248.588 246.196C247.385 245.7 247.325 248.678 247.325 248.678L237.283 253.602L231.39 254.479C231.201 254.561 231.031 254.646 230.869 254.729C228.204 256.151 229.385 258.054 231.335 259.658Z" fill="#090814"/>
<path d="M113.842 23.3141C113.842 23.3141 114.058 35.1204 109.714 36.1502C105.37 37.18 115.97 47.8562 121.65 46.4855C127.33 45.1148 129.521 36.46 129.521 36.46C129.521 36.46 124.377 30.4809 126.331 27.2563C128.285 24.0316 113.842 23.3141 113.842 23.3141Z" fill="#A0616A"/>
<path d="M282.414 52.6914C284.658 43.8801 286.559 33.9432 282.328 25.8264C279.392 20.1937 268.53 18.2992 262.304 20.3278C256.078 22.3564 251.576 27.8599 249.595 33.8606C247.614 39.8612 247.845 46.3277 248.708 52.5676C260.16 52.3567 271.611 52.1474 282.414 52.6914Z" fill="#090814"/>
<path d="M39.9119 244.326C40.0841 250.44 41.161 256.5 43.1108 262.328C43.154 262.463 43.202 262.597 43.2487 262.732H55.185C55.1724 262.611 55.1595 262.475 55.1469 262.328C54.3511 253.626 58.8979 201.293 64.3845 192.235C63.9042 192.97 38.9864 216.675 39.9119 244.326Z" fill="#E6E6E6"/>
<path d="M40.8064 262.327C40.9063 262.463 41.01 262.598 41.1164 262.731H50.0716C50.0037 262.616 49.925 262.481 49.8338 262.327C48.3546 259.788 43.9759 252.196 39.9116 244.325C35.5455 235.867 31.5365 227.089 31.8741 223.911C31.7695 224.628 28.7469 246.473 40.8064 262.327Z" fill="#E6E6E6"/>
<path d="M185.958 253.381C186.046 256.487 186.593 259.566 187.583 262.527C187.606 262.596 187.63 262.663 187.654 262.732H193.718C193.712 262.671 193.705 262.602 193.699 262.527C193.294 258.105 195.604 231.517 198.392 226.915C198.148 227.291 185.488 239.333 185.958 253.381Z" fill="#E6E6E6"/>
<path d="M186.415 262.525C186.465 262.594 186.518 262.663 186.572 262.731H191.122C191.087 262.672 191.048 262.604 191.001 262.525C190.25 261.235 188.025 257.378 185.96 253.379C183.742 249.082 181.705 244.622 181.877 243.008C181.823 243.373 180.288 254.472 186.415 262.525Z" fill="#E6E6E6"/>
<path d="M150.056 76.2988L134.619 86.7419L144.225 87.7204L157.604 76.9525L150.056 76.2988Z" fill="#090814"/>
<path d="M256.363 64.964L275.63 65.2364L270.02 48.3129L257.294 50.8413C259.32 54.9629 258.889 59.7009 256.363 64.964Z" fill="#FFB9B9"/>
<path d="M88.7951 253.878H101.115L106.974 219.817H88.793L88.7951 253.878Z" fill="#9F616A"/>
<path d="M83.8217 132.949C83.8217 132.949 79.798 137.036 86.4587 152.967V240.32H103.473L111.624 197.331L120.268 135.152L83.8217 132.949Z" fill="#F2F2F2"/>
<path d="M62.2653 118.353C60.9898 118.349 59.7658 117.874 58.8531 117.026C57.9404 116.179 57.4107 115.026 57.3766 113.814L56.3633 77.4941L73.7018 46.209C74.0955 45.5045 74.6716 44.9071 75.3756 44.4733C76.0795 44.0395 76.8882 43.7836 77.7251 43.7298L90.9384 42.9231L89.7976 116.133L62.6932 118.336C62.5506 118.347 62.4079 118.353 62.2653 118.353Z" fill="#002B3F"/>
<path d="M127.673 145.734L127.437 145.699C99.8137 141.692 78.9688 137.852 78.7613 137.813L78.502 137.765L85.7453 121.014C85.6883 119.264 84.1208 70.1111 87.1213 55.9891C90.0263 42.3182 103.718 40.0779 105.277 39.8669L106.844 34.9299L126.637 44.7258L130.089 56.0257L130.79 86.9959L127.673 145.734Z" fill="#090814"/>
<path d="M100.473 98.8485C87.7206 98.8485 77.3457 85.6611 77.3457 69.4517C77.3457 53.2424 87.7206 40.0549 100.473 40.0549C113.225 40.0549 123.6 53.2424 123.6 69.4517C123.6 85.6611 113.225 98.8485 100.473 98.8485ZM100.473 42.9329C89.3892 42.9329 80.3717 54.8294 80.3717 69.4517C80.3717 84.074 89.3892 95.9705 100.473 95.9705C111.557 95.9705 120.574 84.074 120.574 69.4517C120.574 54.8294 111.557 42.9329 100.473 42.9329Z" fill="#002B3F"/>
<path d="M139.597 81.9912C138.706 81.9909 137.824 82.1661 137.007 82.5057C136.19 82.8454 135.456 83.3421 134.851 83.9647H101.583L89.3965 86.4316L91.3971 101.109L134.748 92.2414C135.465 93.0127 136.375 93.6006 137.393 93.9516C138.411 94.3025 139.505 94.4053 140.575 94.2506C141.646 94.0959 142.659 93.6885 143.521 93.0658C144.383 92.443 145.068 91.6247 145.512 90.6855C145.957 89.7463 146.147 88.7162 146.065 87.6893C145.983 86.6624 145.631 85.6714 145.043 84.8068C144.455 83.9421 143.648 83.2315 142.697 82.7396C141.746 82.2478 140.68 81.9905 139.597 81.9912Z" fill="#9F616A"/>
<path d="M137.154 32.8501C143.415 26.8947 143.415 17.2391 137.154 11.2837C130.892 5.32831 120.74 5.32831 114.478 11.2837C108.217 17.2391 108.217 26.8947 114.478 32.8501C120.74 38.8055 130.892 38.8055 137.154 32.8501Z" fill="#9F616A"/>
<path d="M110.735 9.87705L109.957 8.38912L113.868 6.53897C113.868 6.53897 118.183 -0.138418 125.991 1.73804C133.799 3.6145 137.312 4.73939 137.312 4.73939L141.213 6.6064L139.255 8.45942L142.768 9.58267L140.421 10.6928L143.151 12.1856L141.681 19.8374C141.681 19.8374 139.24 14.0337 134.549 16.2514C129.857 18.4691 121.27 15.1047 121.27 15.1047L113.81 28.8308C113.81 28.8308 112.272 24.0183 109.528 25.3015C109.528 25.3023 102.52 14.6874 110.735 9.87705Z" fill="#090814"/>
<path d="M250.056 103.76L249.371 91.5353L242.455 86.1904L238.448 97.5109L216.038 125.939C214.979 126.1 213.99 126.547 213.189 127.226C212.388 127.905 211.809 128.788 211.519 129.771C211.229 130.754 211.242 131.795 211.555 132.771C211.867 133.747 212.468 134.617 213.284 135.279C214.101 135.941 215.1 136.367 216.163 136.506C217.226 136.644 218.309 136.491 219.283 136.063C220.257 135.635 221.082 134.95 221.66 134.09C222.238 133.231 222.544 132.231 222.544 131.211C222.544 131.139 222.536 131.069 222.533 130.998L250.056 103.76Z" fill="#FFB9B9"/>
<path d="M269.494 51.1318C275.965 47.7674 278.343 40.0508 274.806 33.8962C271.268 27.7416 263.155 25.4797 256.684 28.844C250.213 32.2084 247.834 39.9251 251.372 46.0797C254.909 52.2343 263.023 54.4962 269.494 51.1318Z" fill="#FFB9B9"/>
<path d="M279.413 37.3717C279.458 35.2329 279.05 33.1074 278.213 31.1217C277.376 29.136 276.128 27.3306 274.543 25.8129C272.958 24.2953 271.068 23.0963 268.986 22.2874C266.904 21.4785 264.672 21.0762 262.423 21.1044C260.174 21.1326 257.954 21.5907 255.895 22.4515C253.836 23.3123 251.979 24.5582 250.437 26.1151C248.894 27.672 247.697 29.508 246.916 31.514C246.134 33.52 245.785 35.655 245.889 37.7919C257.319 37.8153 268.748 37.8384 279.413 37.3717Z" fill="#090814"/>
<path d="M241.645 116.505C241.645 116.505 239.472 146.523 240.651 155.68C241.83 164.837 249.467 242.531 249.467 242.531H262.94L267.232 150.535L276.408 244.801L290.67 243.671L294.382 151.623C294.382 151.623 293.491 116.739 286.249 113.241L241.645 116.505Z" fill="#090814"/>
<path d="M256.838 146.261C249.724 146.258 242.713 144.644 236.386 141.55L236.248 141.483L241.601 107.698L241.256 67.4334C241.246 66.3282 241.468 65.2323 241.909 64.2096C242.349 63.187 243 62.258 243.822 61.4769C244.644 60.6958 245.621 60.0782 246.697 59.6602C247.773 59.2423 248.925 59.0322 250.087 59.0423L278.813 59.2931C280.085 59.3042 281.341 59.5641 282.503 60.0566C283.664 60.5491 284.707 61.2638 285.566 62.156C286.425 63.0483 287.081 64.0991 287.495 65.2431C287.908 66.3871 288.07 67.5998 287.969 68.8058L285.281 101.085L294.171 127.284L292.626 129.238C288.46 134.523 283.057 138.813 276.846 141.767C270.634 144.722 263.785 146.26 256.84 146.259L256.838 146.261Z" fill="#F2F2F2"/>
<path d="M238.367 93.7794L241.377 64.5668L242.345 63.2573C243.007 62.3606 243.85 61.5972 244.823 61.0109C245.797 60.4246 246.883 60.027 248.019 59.8409C249.155 59.6547 250.318 59.6838 251.442 59.9263C252.565 60.1689 253.628 60.6201 254.568 61.2542L255.397 61.8138L254.579 91.4182L238.367 93.7794Z" fill="#F2F2F2"/>
<path d="M361.711 236.499C369.493 234.454 372.814 245.693 365.052 247.803C357.271 249.849 353.95 238.61 361.711 236.499Z" fill="#090814"/>
<path d="M318.563 250.967C326.344 248.922 329.665 260.161 321.903 262.271C314.122 264.315 310.801 253.076 318.563 250.967Z" fill="#090814"/>
<path d="M301.103 132.43L301.223 132.398L321.267 184.153L323.91 183.447L303.722 131.32C303.678 130.517 303.347 129.752 302.783 129.152C302.219 128.552 301.457 128.154 300.622 128.024C290.598 126.516 286.535 134.979 286.535 134.979L286.575 135.035L307.066 187.95L309.708 187.243L289.821 135.886C295.876 130.19 301.103 132.43 301.103 132.43Z" fill="#090814"/>
<path d="M324.073 253.878C321.213 253.855 318.436 252.963 316.146 251.334C313.856 249.704 312.173 247.422 311.342 244.819C307.516 232.911 298.49 204.377 297.292 196.633C295.736 186.551 304.511 183.682 304.705 183.622C304.941 183.547 308.469 182.608 313.35 181.308C321.65 179.099 334.192 175.76 334.653 175.563C336.596 174.921 338.658 174.667 340.71 174.817C342.761 174.968 344.758 175.52 346.574 176.439C348.447 177.375 350.1 178.665 351.432 180.228C352.765 181.791 353.749 183.595 354.325 185.532L367.235 229.217C368.032 231.895 367.809 234.755 366.605 237.291C365.401 239.828 363.293 241.879 360.655 243.082C350.693 247.634 336.083 253.706 324.268 253.877L324.073 253.878Z" fill="#002B3F"/>
<path d="M298.972 130.64L292.482 94.5825L291.758 82.4126L281.266 85.6812L290.115 132.894C289.757 133.813 289.673 134.808 289.87 135.769C290.067 136.731 290.538 137.622 291.232 138.346C291.926 139.07 292.816 139.599 293.804 139.874C294.793 140.149 295.842 140.161 296.837 139.907C297.832 139.654 298.734 139.145 299.446 138.437C300.157 137.728 300.65 136.847 300.87 135.89C301.091 134.933 301.03 133.937 300.695 133.011C300.361 132.084 299.764 131.263 298.972 130.637L298.972 130.64Z" fill="#FFB9B9"/>
<path d="M294.255 92.3223L277.879 91.4749L274.031 62.0868L274.406 61.778C275.328 61.0172 276.399 60.4371 277.557 60.0711C278.716 59.705 279.939 59.5601 281.156 59.6448C282.374 59.7295 283.562 60.0421 284.652 60.5646C285.742 61.0871 286.713 61.8092 287.509 62.6895L288.266 63.5274L288.278 63.5805L294.255 92.3223Z" fill="#F2F2F2"/>
<path d="M360.944 235.874L344.206 181.992L304.846 192.572L304.611 191.781L344.793 180.98L344.914 181.37L361.773 235.641L360.944 235.874Z" fill="#3F3D56"/>
<path d="M63.5128 114.49L61.7305 77.528L79.9868 43.5864L80.7562 43.961L62.605 77.7081L64.3774 114.452L63.5128 114.49Z" fill="#3F3D56"/>
<path d="M399.068 263.553H0.932286C0.817637 263.553 0.707683 263.509 0.626613 263.432C0.545544 263.355 0.5 263.251 0.5 263.142C0.5 263.033 0.545544 262.928 0.626613 262.851C0.707683 262.774 0.817637 262.73 0.932286 262.73H399.068C399.182 262.73 399.292 262.774 399.373 262.851C399.454 262.928 399.5 263.033 399.5 263.142C399.5 263.251 399.454 263.355 399.373 263.432C399.292 263.509 399.182 263.553 399.068 263.553Z" fill="#CCCCCC"/>
<path d="M91.6092 103.861L87.8051 93.0972L86.8848 57.2171L88.5058 52.1264C89.0892 50.2941 90.0554 48.5926 91.3467 47.1241C92.638 45.6555 94.2278 44.4499 96.0207 43.5797C97.8136 42.7095 99.7728 42.1925 101.781 42.0597C103.789 41.9268 105.804 42.181 107.707 42.8068C109.609 43.4327 111.359 44.4173 112.851 45.7018C114.344 46.9863 115.549 48.5441 116.393 50.282C117.237 52.0199 117.704 53.902 117.765 55.8156C117.827 57.7291 117.481 59.6347 116.749 61.4182L108.06 82.5946L108.502 83.4099L127.326 83.2647L134.013 94.7122L91.6092 103.861Z" fill="#090814"/>
<path d="M211.528 180.456L211.514 180.459L190.651 184.431L172.702 191.306C172.47 191.394 172.222 191.439 171.972 191.437C171.722 191.434 171.475 191.385 171.245 191.292C171.015 191.199 170.806 191.063 170.631 190.894C170.456 190.724 170.318 190.523 170.224 190.302C170.202 190.25 170.183 190.197 170.166 190.144L157.054 148.387C156.916 147.955 156.954 147.489 157.161 147.081C157.367 146.674 157.726 146.355 158.168 146.188L176.444 139.188L176.457 139.186L197.321 135.213L215.269 128.339C215.501 128.25 215.749 128.206 215.999 128.208C216.25 128.21 216.497 128.259 216.727 128.353C216.957 128.446 217.166 128.581 217.341 128.751C217.516 128.921 217.654 129.122 217.748 129.343C217.769 129.394 217.789 129.447 217.806 129.501L230.918 171.257C231.055 171.69 231.017 172.156 230.811 172.563C230.605 172.97 230.245 173.289 229.804 173.456L211.528 180.456Z" fill="#002B3F"/>
<path d="M189.139 152.407C184.354 150.801 179.409 149.395 174.441 148.226L174.192 148.168L176.714 156.199L189.563 152.55L189.139 152.407ZM176.912 155.853L174.62 148.556C179.348 149.676 184.053 151.011 188.617 152.528L176.912 155.853ZM214.21 163.265C211.983 162.067 209.724 160.92 207.433 159.824C206.801 159.522 206.167 159.224 205.531 158.929C201.651 157.134 197.712 155.498 193.714 154.02L193.667 154.003L177.469 158.603L181.892 172.689L214.509 163.425L214.21 163.265ZM182.091 172.344L177.835 158.79L193.657 154.296C197.513 155.722 201.324 157.301 205.092 159.035C205.746 159.337 206.398 159.642 207.047 159.951C209.316 161.031 211.556 162.163 213.767 163.346L182.091 172.344ZM214.21 163.265C211.983 162.067 209.724 160.92 207.433 159.824C206.801 159.522 206.167 159.224 205.531 158.929C201.651 157.134 197.712 155.498 193.714 154.02L193.667 154.003L177.469 158.603L181.892 172.689L214.509 163.425L214.21 163.265ZM182.091 172.344L177.835 158.79L193.657 154.296C197.513 155.722 201.324 157.301 205.092 159.035C205.746 159.337 206.398 159.642 207.047 159.951C209.316 161.031 211.556 162.163 213.767 163.346L182.091 172.344ZM189.141 152.407C184.356 150.801 179.411 149.395 174.443 148.226L174.193 148.168L176.715 156.199L189.565 152.55L189.141 152.407ZM176.913 155.853L174.622 148.556C179.35 149.676 184.055 151.011 188.618 152.528L176.913 155.853ZM189.141 152.407C184.356 150.801 179.411 149.395 174.443 148.226L174.193 148.168L176.715 156.199L189.565 152.55L189.141 152.407ZM176.913 155.853L174.622 148.556C179.35 149.676 184.055 151.011 188.618 152.528L176.913 155.853ZM214.212 163.265C211.985 162.067 209.726 160.92 207.434 159.824C206.803 159.522 206.169 159.224 205.532 158.929C201.653 157.134 197.714 155.498 193.715 154.02L193.669 154.003L177.469 158.603L181.892 172.689L214.509 163.425L214.212 163.265ZM182.093 172.344L177.837 158.79L193.659 154.296C197.515 155.722 201.326 157.301 205.094 159.035C205.748 159.337 206.4 159.642 207.049 159.951C209.318 161.031 211.558 162.163 213.769 163.346L182.093 172.344ZM168.749 179.042L168.833 179.309L179.923 176.159L181.139 180.032L170.049 183.181L170.133 183.449L181.502 180.219L180.119 175.812L168.749 179.042ZM184.787 181.904L185.637 184.61L185.91 184.506L185.152 182.091L228.393 169.809L228.309 169.542L184.787 181.904ZM226.256 162.999L226.172 162.732L182.647 175.094L184.031 179.501L227.554 167.139L227.47 166.872L184.228 179.154L183.011 175.28L226.256 162.999ZM193.932 151.018C187.304 148.596 180.496 146.647 173.564 145.187L172.715 142.483L172.441 142.587L173.297 145.312L173.584 145.477C180.489 146.935 187.271 148.88 193.874 151.295L193.92 151.312L220.238 143.837L220.154 143.57L193.932 151.018ZM173.824 156.73L162.734 159.88L162.818 160.147L174.187 156.918L169.983 143.529L169.71 143.633L173.824 156.73ZM220.994 146.241L197.857 152.813L198.234 152.963C201.783 154.383 205.322 155.953 208.852 157.673C209.354 157.917 209.855 158.165 210.356 158.416C212.848 159.66 215.321 160.974 217.774 162.358L218.047 162.422L225.418 160.329L225.334 160.062L217.981 162.15C215.553 160.78 213.103 159.476 210.632 158.239C210.137 157.992 209.642 157.747 209.146 157.503C205.691 155.815 202.217 154.267 198.724 152.857L221.079 146.508L220.994 146.241ZM170.888 185.852L170.972 186.119L182.06 182.968L182.904 185.655L183.177 185.55L182.257 182.621L170.888 185.852ZM163.571 162.551L163.655 162.818L174.745 159.668L179.001 173.221L167.911 176.371L167.995 176.638L179.364 173.409L174.94 159.321L163.571 162.551ZM189.139 152.407C184.354 150.801 179.409 149.395 174.441 148.226L174.192 148.168L176.714 156.199L189.563 152.55L189.139 152.407ZM176.912 155.853L174.62 148.556C179.348 149.676 184.053 151.011 188.617 152.528L176.912 155.853ZM214.21 163.265C211.983 162.067 209.724 160.92 207.433 159.824C206.801 159.522 206.167 159.224 205.531 158.929C201.651 157.134 197.712 155.498 193.714 154.02L193.667 154.003L177.469 158.603L181.892 172.689L214.509 163.425L214.21 163.265ZM182.091 172.344L177.835 158.79L193.657 154.296C197.513 155.722 201.324 157.301 205.092 159.035C205.746 159.337 206.398 159.642 207.047 159.951C209.316 161.031 211.556 162.163 213.767 163.346L182.091 172.344ZM189.141 152.407C184.356 150.801 179.411 149.395 174.443 148.226L174.193 148.168L176.715 156.199L189.565 152.55L189.141 152.407ZM176.913 155.853L174.622 148.556C179.35 149.676 184.055 151.011 188.618 152.528L176.913 155.853ZM214.212 163.265C211.985 162.067 209.726 160.92 207.434 159.824C206.803 159.522 206.169 159.224 205.532 158.929C201.653 157.134 197.714 155.498 193.715 154.02L193.669 154.003L177.469 158.603L181.892 172.689L214.509 163.425L214.212 163.265ZM182.093 172.344L177.837 158.79L193.659 154.296C197.515 155.722 201.326 157.301 205.094 159.035C205.748 159.337 206.4 159.642 207.049 159.951C209.318 161.031 211.558 162.163 213.769 163.346L182.093 172.344Z" fill="white"/>
<path d="M192.865 153.666C193.926 157.048 189.854 166.412 189.854 166.412C189.854 166.412 181.05 160.707 179.988 157.325C179.736 156.521 179.652 155.678 179.742 154.843C179.832 154.008 180.095 153.198 180.514 152.46C180.933 151.721 181.501 151.068 182.185 150.539C182.87 150.009 183.657 149.613 184.503 149.372C185.348 149.132 186.235 149.053 187.113 149.138C187.991 149.224 188.842 149.474 189.619 149.872C190.395 150.271 191.082 150.811 191.639 151.462C192.195 152.113 192.612 152.862 192.865 153.666Z" fill="#F2F2F2"/>
<path d="M189.287 154.393C189.461 154.947 189.458 155.537 189.279 156.089C189.1 156.642 188.753 157.131 188.282 157.496C187.811 157.86 187.236 158.084 186.631 158.138C186.026 158.192 185.418 158.075 184.884 157.8C184.349 157.526 183.912 157.106 183.628 156.596C183.344 156.085 183.225 155.505 183.288 154.931C183.35 154.356 183.59 153.811 183.977 153.366C184.365 152.921 184.882 152.595 185.464 152.43C186.245 152.208 187.086 152.291 187.803 152.659C188.52 153.027 189.053 153.651 189.287 154.393Z" fill="#002B3F"/>
<path d="M190.723 170.901C191.724 170.901 192.535 170.13 192.535 169.178C192.535 168.227 191.724 167.456 190.723 167.456C189.723 167.456 188.912 168.227 188.912 169.178C188.912 170.13 189.723 170.901 190.723 170.901Z" fill="#F2F2F2"/>
<path d="M210.485 146.529L197.898 150.106C197.882 150.11 197.866 150.114 197.85 150.115L200.723 138.617C200.741 138.545 200.777 138.479 200.83 138.426C200.883 138.372 200.949 138.333 201.023 138.312C201.097 138.291 201.175 138.29 201.25 138.307C201.325 138.324 201.394 138.36 201.449 138.411L207.512 143.858L207.802 144.119L210.485 146.529Z" fill="white"/>
<path opacity="0.2" d="M210.485 146.528L206.188 147.749L207.382 144.235L207.469 143.982L207.512 143.855L207.802 144.116L210.485 146.528Z" fill="black"/>
<path d="M217.497 144.538L206.609 147.631L207.804 144.117L207.89 143.863L209.446 139.284C209.477 139.212 209.523 139.147 209.581 139.093C209.64 139.04 209.71 138.998 209.786 138.971C209.862 138.945 209.944 138.934 210.025 138.939C210.106 138.945 210.186 138.966 210.257 139.003C210.276 139.013 210.295 139.025 210.312 139.038L217.497 144.538Z" fill="white"/>
<path d="M87.179 262.947L117.413 263.589C119.472 263.447 121.217 262.087 121.608 260.323C121.794 259.431 121.612 258.506 121.101 257.738C120.59 256.97 119.788 256.418 118.861 256.197C112.422 254.382 110.678 252.373 107.559 248.99C103.868 243 103.578 243.256 101.135 247.298C95.7 252.106 92.0533 250.615 86.987 247.648L83.6695 259.009C83.528 259.48 83.5111 259.977 83.6204 260.455C83.7298 260.933 83.9618 261.378 84.2959 261.751C84.6558 262.138 85.1002 262.446 85.5982 262.652C86.0961 262.859 86.6359 262.959 87.179 262.947Z" fill="#090814"/>
</svg>
