<svg width="400" height="305" viewBox="0 0 400 305" fill="none" xmlns="http://www.w3.org/2000/svg">
<g clip-path="url(#clip0_155_9928)">
<path d="M360.441 293.583C360.727 293.597 361.011 293.521 361.254 293.368C361.496 293.214 361.685 292.99 361.796 292.725C361.907 292.46 361.933 292.167 361.872 291.886C361.811 291.606 361.666 291.351 361.455 291.156L361.359 290.774C361.372 290.744 361.384 290.713 361.397 290.683C361.686 290 362.17 289.418 362.788 289.01C363.406 288.601 364.131 288.385 364.871 288.388C365.612 288.391 366.335 288.612 366.95 289.025C367.565 289.438 368.045 290.024 368.328 290.708C369.462 293.441 370.905 296.179 371.261 299.069C371.417 300.346 371.351 301.641 371.065 302.896C373.728 297.082 375.111 290.763 375.119 284.367C375.12 282.762 375.031 281.159 374.853 279.564C374.705 278.256 374.501 276.958 374.239 275.669C372.812 268.676 369.748 262.121 365.299 256.543C363.146 255.367 361.404 253.558 360.309 251.361C359.912 250.571 359.632 249.728 359.477 248.857C359.72 248.889 360.393 245.186 360.21 244.959C360.548 244.445 361.154 244.189 361.524 243.687C363.363 241.192 365.896 241.627 367.218 245.019C370.044 246.446 370.071 248.813 368.337 251.09C367.235 252.538 367.083 254.498 366.115 256.049C366.215 256.176 366.318 256.3 366.418 256.427C368.238 258.77 369.824 261.285 371.154 263.938C370.83 260.966 371.216 257.961 372.28 255.168C373.358 252.565 375.378 250.373 377.157 248.123C377.628 247.518 378.267 247.067 378.994 246.826C379.72 246.585 380.502 246.565 381.24 246.769C381.978 246.972 382.639 247.39 383.14 247.97C383.641 248.55 383.958 249.265 384.053 250.026C384.057 250.059 384.06 250.092 384.064 250.125C383.799 250.274 383.541 250.433 383.288 250.6C382.97 250.813 382.723 251.117 382.581 251.472C382.438 251.827 382.406 252.217 382.489 252.591C382.572 252.965 382.765 253.305 383.044 253.566C383.323 253.828 383.675 253.999 384.053 254.058L384.092 254.064C383.997 255.017 383.831 255.962 383.594 256.89C385.876 265.725 380.949 268.943 373.913 269.088C373.757 269.168 373.606 269.247 373.451 269.323C374.787 273.113 375.625 277.061 375.944 281.067C376.124 283.43 376.114 285.804 375.912 288.166L375.924 288.083C376.434 285.456 377.833 283.087 379.886 281.374C382.936 278.866 387.244 277.943 390.533 275.927C390.883 275.703 391.289 275.583 391.705 275.582C392.12 275.581 392.527 275.699 392.878 275.922C393.229 276.145 393.509 276.463 393.684 276.84C393.86 277.217 393.924 277.636 393.87 278.049L393.856 278.137C393.366 278.337 392.888 278.567 392.427 278.826C392.162 278.976 391.904 279.134 391.651 279.302C391.333 279.514 391.086 279.818 390.944 280.173C390.801 280.528 390.769 280.918 390.852 281.292C390.935 281.666 391.128 282.006 391.407 282.268C391.686 282.529 392.038 282.701 392.416 282.759L392.454 282.765C392.482 282.769 392.506 282.773 392.534 282.777C391.696 284.779 390.52 286.623 389.058 288.226C387.63 295.939 381.501 296.671 374.944 294.425H374.94C374.221 297.554 373.178 300.6 371.83 303.513H360.719C360.679 303.39 360.644 303.262 360.608 303.139C361.636 303.203 362.669 303.142 363.682 302.955C362.858 301.943 362.033 300.922 361.209 299.91C361.191 299.891 361.173 299.871 361.157 299.85C360.739 299.332 360.317 298.818 359.899 298.299L359.899 298.299C359.876 296.71 360.059 295.125 360.441 293.583Z" fill="#F2F2F2"/>
<path d="M350.545 33.6758H1.11657C0.953044 33.6758 0.796227 33.6107 0.680598 33.495C0.564969 33.3793 0.5 33.2223 0.5 33.0586C0.5 32.8949 0.564969 32.7379 0.680598 32.6222C0.796227 32.5064 0.953044 32.4414 1.11657 32.4414H350.545C350.708 32.4414 350.865 32.5064 350.98 32.6222C351.096 32.7379 351.161 32.8949 351.161 33.0586C351.161 33.2223 351.096 33.3793 350.98 33.495C350.865 33.6107 350.708 33.6758 350.545 33.6758Z" fill="#E6E6E6"/>
<path d="M18.5993 15.1477C21.479 15.1477 23.8134 12.7589 23.8134 9.81213C23.8134 6.86538 21.479 4.47656 18.5993 4.47656C15.7197 4.47656 13.3853 6.86538 13.3853 9.81213C13.3853 12.7589 15.7197 15.1477 18.5993 15.1477Z" fill="#E6E6E6"/>
<path d="M36.6115 15.1477C39.4912 15.1477 41.8256 12.7589 41.8256 9.81213C41.8256 6.86538 39.4912 4.47656 36.6115 4.47656C33.7319 4.47656 31.3975 6.86538 31.3975 9.81213C31.3975 12.7589 33.7319 15.1477 36.6115 15.1477Z" fill="#E6E6E6"/>
<path d="M54.6237 15.1477C57.5034 15.1477 59.8378 12.7589 59.8378 9.81213C59.8378 6.86538 57.5034 4.47656 54.6237 4.47656C51.7441 4.47656 49.4097 6.86538 49.4097 9.81213C49.4097 12.7589 51.7441 15.1477 54.6237 15.1477Z" fill="#E6E6E6"/>
<path d="M75.1626 14.0294C75.0805 14.0295 74.9992 14.0131 74.9235 13.9813C74.8478 13.9494 74.7792 13.9026 74.7219 13.8438L71.2037 10.2438C71.091 10.1285 71.0278 9.97354 71.0278 9.81221C71.0278 9.65087 71.091 9.49595 71.2037 9.38066L74.7219 5.78094C74.8366 5.66579 74.9922 5.60063 75.1546 5.59962C75.3171 5.59862 75.4734 5.66186 75.5896 5.77559C75.7057 5.88931 75.7723 6.04434 75.7749 6.20696C75.7775 6.36958 75.7159 6.52666 75.6034 6.64403L72.507 9.81222L75.6034 12.9807C75.6883 13.0675 75.7456 13.1775 75.7683 13.2969C75.791 13.4162 75.778 13.5396 75.7309 13.6516C75.6839 13.7635 75.6048 13.8591 75.5037 13.9263C75.4027 13.9935 75.284 14.0294 75.1626 14.0294Z" fill="#E6E6E6"/>
<path d="M81.0744 14.0282C80.953 14.0282 80.8344 13.9924 80.7333 13.9252C80.6322 13.858 80.5532 13.7624 80.5061 13.6504C80.459 13.5384 80.446 13.415 80.4687 13.2957C80.4914 13.1764 80.5488 13.0664 80.6336 12.9795L83.7297 9.81105L80.6336 6.64287C80.5761 6.58512 80.5306 6.51654 80.4997 6.44108C80.4688 6.36562 80.4531 6.28477 80.4536 6.20321C80.4541 6.12166 80.4708 6.04102 80.5026 5.96594C80.5344 5.89087 80.5808 5.82285 80.6391 5.76582C80.6973 5.70879 80.7662 5.66388 80.8419 5.63369C80.9176 5.6035 80.9986 5.58862 81.08 5.58992C81.1615 5.59122 81.2419 5.60867 81.3166 5.64126C81.3912 5.67384 81.4587 5.72093 81.5151 5.77979L85.033 9.37951C85.1458 9.49479 85.2089 9.64971 85.2089 9.81105C85.2089 9.97239 85.1458 10.1273 85.033 10.2426L81.5151 13.8426C81.4578 13.9015 81.3892 13.9482 81.3135 13.9801C81.2378 14.012 81.1565 14.0284 81.0744 14.0282Z" fill="#E6E6E6"/>
<path d="M319.384 5.09375H312.842C312.665 5.0937 312.489 5.12863 312.325 5.19653C312.162 5.26444 312.013 5.364 311.887 5.48952C311.762 5.61504 311.662 5.76406 311.595 5.92807C311.527 6.09208 311.492 6.26786 311.492 6.44538V12.9998C311.492 13.1774 311.527 13.3531 311.595 13.5171C311.662 13.6812 311.762 13.8302 311.887 13.9557C312.013 14.0812 312.162 14.1808 312.325 14.2487C312.489 14.3166 312.665 14.3515 312.842 14.3515H319.384C319.743 14.3518 320.087 14.2097 320.341 13.9563C320.596 13.703 320.739 13.359 320.74 12.9998V6.44538C320.739 6.08623 320.596 5.74225 320.341 5.48888C320.087 5.2355 319.743 5.09341 319.384 5.09375Z" fill="#E6E6E6"/>
<path d="M303.353 5.09375H296.811C296.634 5.0937 296.459 5.12863 296.295 5.19653C296.131 5.26444 295.982 5.364 295.857 5.48952C295.731 5.61504 295.632 5.76406 295.564 5.92807C295.496 6.09208 295.461 6.26786 295.461 6.44538V12.9998C295.461 13.1774 295.496 13.3531 295.564 13.5171C295.632 13.6812 295.731 13.8302 295.857 13.9557C295.982 14.0812 296.131 14.1808 296.295 14.2487C296.459 14.3166 296.634 14.3515 296.811 14.3515H303.353C303.712 14.3518 304.056 14.2097 304.311 13.9563C304.565 13.703 304.708 13.359 304.71 12.9998V6.44538C304.708 6.08623 304.565 5.74225 304.311 5.48888C304.056 5.2355 303.712 5.09341 303.353 5.09375Z" fill="#E6E6E6"/>
<path d="M334.49 5.40234H327.948C327.771 5.40229 327.595 5.43722 327.431 5.50513C327.268 5.57303 327.119 5.67259 326.993 5.79811C326.868 5.92363 326.768 6.07265 326.701 6.23666C326.633 6.40067 326.598 6.57646 326.598 6.75397V13.3084C326.598 13.486 326.633 13.6617 326.701 13.8257C326.768 13.9897 326.868 14.1388 326.993 14.2643C327.119 14.3898 327.268 14.4894 327.431 14.5573C327.595 14.6252 327.771 14.6601 327.948 14.6601H334.49C334.849 14.6604 335.193 14.5183 335.447 14.2649C335.702 14.0116 335.845 13.6676 335.846 13.3084V6.75397C335.845 6.39483 335.702 6.05085 335.447 5.79747C335.193 5.54409 334.849 5.402 334.49 5.40234Z" fill="#E6E6E6"/>
<path d="M145.959 15.0175H103.415C101.944 15.0175 100.532 14.4322 99.4915 13.3905C98.4509 12.3489 97.8662 10.936 97.8662 9.46283C97.8662 7.98965 98.4509 6.57682 99.4915 5.53512C100.532 4.49343 101.944 3.9082 103.415 3.9082H145.959C147.43 3.9082 148.842 4.49343 149.882 5.53512C150.923 6.57682 151.508 7.98965 151.508 9.46283C151.508 10.936 150.923 12.3489 149.882 13.3905C148.842 14.4322 147.43 15.0175 145.959 15.0175Z" fill="#E6E6E6"/>
<path d="M203.299 15.0175H160.756C159.284 15.0175 157.873 14.4322 156.832 13.3905C155.792 12.3489 155.207 10.936 155.207 9.46283C155.207 7.98965 155.792 6.57682 156.832 5.53512C157.873 4.49343 159.284 3.9082 160.756 3.9082H203.299C204.771 3.9082 206.183 4.49343 207.223 5.53512C208.264 6.57682 208.848 7.98965 208.848 9.46283C208.848 10.936 208.264 12.3489 207.223 13.3905C206.183 14.4322 204.771 15.0175 203.299 15.0175Z" fill="#E6E6E6"/>
<path d="M278.513 14.7096H219.954C218.072 14.7096 216.266 13.9611 214.935 12.6287C213.604 11.2963 212.856 9.48913 212.856 7.60481C212.856 5.7205 213.604 3.91336 214.935 2.58095C216.266 1.24854 218.072 0.5 219.954 0.5H278.514C280.396 0.5 282.201 1.24854 283.532 2.58095C284.863 3.91336 285.611 5.7205 285.611 7.60481C285.611 9.48913 284.863 11.2963 283.532 12.6287C282.201 13.9611 280.396 14.7096 278.513 14.7096Z" fill="#002B3F"/>
<path d="M279.342 11.8327C279.231 11.8329 279.12 11.8109 279.017 11.7682C278.914 11.7255 278.821 11.6629 278.742 11.5838L271.973 4.80751C271.894 4.72863 271.831 4.63499 271.789 4.53193C271.746 4.42887 271.724 4.31841 271.724 4.20686C271.724 4.09531 271.746 3.98485 271.789 3.88179C271.831 3.77873 271.894 3.6851 271.973 3.60622C272.051 3.52734 272.145 3.46477 272.248 3.42208C272.351 3.37939 272.461 3.35742 272.573 3.35742C272.684 3.35742 272.795 3.37939 272.897 3.42208C273 3.46477 273.094 3.52733 273.173 3.60621L279.942 10.3826C280.061 10.5014 280.142 10.6528 280.175 10.8175C280.207 10.9823 280.19 11.1531 280.126 11.3083C280.062 11.4635 279.953 11.5962 279.814 11.6896C279.674 11.7829 279.51 11.8327 279.342 11.8327Z" fill="white"/>
<path d="M272.592 11.8334C272.704 11.8335 272.814 11.8116 272.917 11.7689C273.02 11.7262 273.114 11.6635 273.193 11.5845L279.962 4.80817C280.121 4.64875 280.21 4.43287 280.209 4.2079C280.209 3.98294 280.12 3.76725 279.961 3.60817C279.802 3.4491 279.586 3.35962 279.362 3.35938C279.137 3.35913 278.921 3.44814 278.762 3.60688L271.992 10.3833C271.874 10.5021 271.793 10.6534 271.76 10.8182C271.727 10.983 271.744 11.1538 271.809 11.309C271.873 11.4642 271.981 11.5969 272.121 11.6902C272.261 11.7836 272.425 11.8334 272.592 11.8334Z" fill="white"/>
<path d="M208.282 60.9355H143.002C142.817 60.9359 142.634 60.8998 142.462 60.8291C142.291 60.7585 142.136 60.6547 142.005 60.5238C141.874 60.3929 141.77 60.2375 141.699 60.0663C141.628 59.8952 141.591 59.7117 141.591 59.5264C141.591 59.3411 141.628 59.1576 141.699 58.9864C141.77 58.8153 141.874 58.6598 142.005 58.5289C142.136 58.398 142.291 58.2943 142.462 58.2236C142.634 58.153 142.817 58.1168 143.002 58.1172H208.282C208.655 58.118 209.012 58.2668 209.276 58.531C209.539 58.7952 209.687 59.1531 209.687 59.5264C209.687 59.8996 209.539 60.2576 209.276 60.5217C209.012 60.7859 208.655 60.9347 208.282 60.9355Z" fill="#002B3F"/>
<path d="M224.805 73.8183H126.479C126.294 73.8187 126.111 73.7826 125.939 73.7119C125.768 73.6413 125.613 73.5375 125.482 73.4066C125.351 73.2758 125.247 73.1203 125.176 72.9491C125.105 72.778 125.068 72.5945 125.068 72.4092C125.068 72.2239 125.105 72.0404 125.176 71.8692C125.247 71.6981 125.351 71.5426 125.482 71.4117C125.613 71.2808 125.768 71.1771 125.939 71.1064C126.111 71.0358 126.294 70.9996 126.479 71H224.805C225.178 71.0008 225.535 71.1496 225.799 71.4138C226.062 71.678 226.21 72.0359 226.21 72.4092C226.21 72.7824 226.062 73.1404 225.799 73.4046C225.535 73.6688 225.178 73.8176 224.805 73.8183Z" fill="#F2F2F2"/>
<path d="M224.807 83.8828H126.477C126.103 83.8828 125.745 84.0314 125.481 84.2959C125.217 84.5603 125.068 84.919 125.068 85.2931C125.068 85.6671 125.217 86.0258 125.481 86.2903C125.745 86.5547 126.103 86.7033 126.477 86.7033H224.807C225.181 86.7033 225.539 86.5547 225.803 86.2903C226.068 86.0258 226.216 85.6671 226.216 85.2931C226.216 84.919 226.068 84.5603 225.803 84.2959C225.539 84.0314 225.181 83.8828 224.807 83.8828Z" fill="#F2F2F2"/>
<path d="M224.805 99.5859H126.479C126.294 99.5863 126.111 99.5501 125.939 99.4795C125.768 99.4089 125.613 99.3051 125.482 99.1742C125.351 99.0433 125.247 98.8878 125.176 98.7167C125.105 98.5455 125.068 98.3621 125.068 98.1767C125.068 97.9914 125.105 97.808 125.176 97.6368C125.247 97.4656 125.351 97.3101 125.482 97.1793C125.613 97.0484 125.768 96.9446 125.939 96.874C126.111 96.8034 126.294 96.7672 126.479 96.7676H224.805C225.178 96.7684 225.535 96.9172 225.799 97.1813C226.062 97.4455 226.21 97.8035 226.21 98.1767C226.21 98.55 226.062 98.9079 225.799 99.1721C225.535 99.4363 225.178 99.5851 224.805 99.5859Z" fill="#F2F2F2"/>
<path d="M224.805 112.469H126.479C126.106 112.469 125.748 112.32 125.484 112.056C125.22 111.792 125.071 111.433 125.071 111.06C125.071 110.686 125.22 110.327 125.484 110.063C125.748 109.799 126.106 109.65 126.479 109.65H224.805C225.179 109.65 225.537 109.799 225.801 110.063C226.065 110.327 226.213 110.686 226.213 111.06C226.213 111.433 226.065 111.792 225.801 112.056C225.537 112.32 225.179 112.469 224.805 112.469Z" fill="#F2F2F2"/>
<path d="M224.805 125.43H126.479C126.106 125.43 125.748 125.281 125.484 125.017C125.22 124.753 125.071 124.394 125.071 124.02C125.071 123.647 125.22 123.288 125.484 123.024C125.748 122.76 126.106 122.611 126.479 122.611H224.805C225.179 122.611 225.537 122.76 225.801 123.024C226.065 123.288 226.213 123.647 226.213 124.02C226.213 124.394 226.065 124.753 225.801 125.017C225.537 125.281 225.179 125.43 224.805 125.43Z" fill="#F2F2F2"/>
<path d="M224.805 138.391H126.479C126.106 138.391 125.748 138.242 125.484 137.978C125.22 137.714 125.071 137.355 125.071 136.981C125.071 136.608 125.22 136.249 125.484 135.985C125.748 135.721 126.106 135.572 126.479 135.572H224.805C225.179 135.572 225.537 135.721 225.801 135.985C226.065 136.249 226.213 136.608 226.213 136.981C226.213 137.355 226.065 137.714 225.801 137.978C225.537 138.242 225.179 138.391 224.805 138.391Z" fill="#F2F2F2"/>
<path d="M224.805 151.352H126.479C126.106 151.352 125.748 151.203 125.484 150.939C125.22 150.675 125.071 150.316 125.071 149.942C125.071 149.569 125.22 149.21 125.484 148.946C125.748 148.682 126.106 148.533 126.479 148.533H224.805C225.179 148.533 225.537 148.682 225.801 148.946C226.065 149.21 226.213 149.569 226.213 149.942C226.213 150.316 226.065 150.675 225.801 150.939C225.537 151.203 225.179 151.352 224.805 151.352Z" fill="#F2F2F2"/>
<path d="M224.805 164.312H126.479C126.106 164.312 125.748 164.164 125.484 163.9C125.22 163.635 125.071 163.277 125.071 162.903C125.071 162.53 125.22 162.171 125.484 161.907C125.748 161.643 126.106 161.494 126.479 161.494H224.805C225.179 161.494 225.537 161.643 225.801 161.907C226.065 162.171 226.213 162.53 226.213 162.903C226.213 163.277 226.065 163.635 225.801 163.9C225.537 164.164 225.179 164.312 224.805 164.312Z" fill="#F2F2F2"/>
<path d="M277.569 13.0214C277.73 14.3879 278.418 15.6374 279.486 16.504C280.554 17.3705 281.917 17.7858 283.286 17.6614C283.564 17.6318 283.839 17.5791 284.108 17.504L294.726 32.5602L304.253 29.8554L287.481 10.8044C287.084 9.71111 286.336 8.78028 285.355 8.15716C284.373 7.53404 283.213 7.2537 282.056 7.35988C281.398 7.42663 280.759 7.62246 280.177 7.93619C279.594 8.24992 279.079 8.67542 278.661 9.18837C278.243 9.70132 277.93 10.2917 277.74 10.9258C277.55 11.5598 277.486 12.2252 277.553 12.8839C277.557 12.9298 277.563 12.9756 277.569 13.0214Z" fill="#A0616A"/>
<path d="M341.43 297.378L335.452 297.378L332.608 274.299L341.431 274.299L341.43 297.378Z" fill="#A0616A"/>
<path d="M341.64 303.62L323.258 303.62V303.387C323.258 301.488 324.012 299.666 325.354 298.323C326.696 296.98 328.515 296.226 330.413 296.226L333.771 293.676L340.035 296.226L341.64 296.226L341.64 303.62Z" fill="#2F2E41"/>
<path d="M321.605 283.195L315.824 284.717L307.211 263.12L315.743 260.875L321.605 283.195Z" fill="#A0616A"/>
<path d="M323.394 289.179L305.617 293.857L305.558 293.632C305.075 291.795 305.342 289.842 306.298 288.202C307.255 286.561 308.823 285.368 310.658 284.885L313.258 281.564L319.964 282.436L321.516 282.028L323.394 289.179Z" fill="#2F2E41"/>
<path d="M312.432 144.627C312.432 144.627 300.477 155.628 301.906 157.337C303.335 159.045 306.817 157.642 303.335 161.249C299.852 164.855 298.305 157.298 299.852 166.111C301.4 174.925 293.499 220.372 293.499 220.372C293.499 220.372 291.675 228.983 292.862 230.227C294.048 231.472 295.829 229.677 294.552 233.285C293.275 236.894 289.74 235.345 292.862 238.443C295.983 241.542 308.424 274.672 308.424 274.672L319.631 268.546C319.631 268.546 317.264 234.57 313.781 231.084C310.299 227.599 326.011 192.136 326.011 192.136C326.011 192.136 327.339 264.952 328.879 268.546C330.419 272.139 333.128 270.9 330.419 273.65C327.711 276.399 325.996 273.784 328.401 277.803C330.806 281.822 329.984 284.822 329.984 284.822H343.701L355.892 177.09L352.307 147.149L312.432 144.627Z" fill="#2F2E41"/>
<path d="M302.862 154.787C314.257 141.437 310.408 124.456 305.886 107.315L306.746 81.992C306.788 80.7498 307.129 79.536 307.738 78.4532C308.347 77.3703 309.208 76.4501 310.248 75.7703L321.88 68.1635L324.532 58.1133L338.545 59.7963L345.808 70.1863L353.468 76.0402C355.391 77.51 356.855 79.4996 357.686 81.7745C358.517 84.0494 358.681 86.5147 358.158 88.8797L350.828 122.064C350.828 122.064 353.894 139.267 352.023 141.167C350.152 143.067 345.332 141.168 349.154 143.301C353.742 145.861 357.913 145.388 355.592 147.712C353.27 150.036 356.208 153.267 356.208 153.267L302.862 154.787Z" fill="#E6E6E6"/>
<path d="M349.269 88.2891C349.269 88.2891 360.885 86.7019 357.93 82.4635C354.975 78.225 350.753 67.809 338.315 64.1801L302.161 22.1855C302.161 22.1855 289.167 29.2611 292.449 30.8096C295.731 32.3582 296.353 33.879 296.353 33.879C296.353 33.879 294.796 36.8302 297.917 39.2777C301.037 41.7252 310.629 58.8996 310.629 58.8996L331.264 86.7515L349.269 88.2891Z" fill="#E6E6E6"/>
<path d="M326.183 60.6616C334.048 60.6616 340.424 54.2791 340.424 46.406C340.424 38.5328 334.048 32.1504 326.183 32.1504C318.318 32.1504 311.942 38.5328 311.942 46.406C311.942 54.2791 318.318 60.6616 326.183 60.6616Z" fill="#A0616A"/>
<path d="M331.712 59.1326L332.645 59.4307C329.727 59.6757 324.526 61.3051 325.036 60.4043C325.545 59.5036 323.62 56.1058 324.559 55.6752C325.536 55.3322 326.407 54.7411 327.087 53.9598C327.682 53.1253 327.669 51.7476 326.776 51.2376C325.909 50.7342 324.837 51.2773 323.977 51.7873C323.11 52.2907 321.509 44.8858 321.919 42.5742C319.504 41.2495 316.579 43.7863 313.867 43.2895C312.206 42.9849 311.008 41.6205 310.254 40.0706C311.486 38.9005 312.403 37.4379 312.92 35.8184C311.769 36.3992 310.538 36.8076 309.268 37.0305C309.04 35.8278 309.072 34.5903 309.361 33.4009C309.582 32.4513 310.034 31.5713 310.677 30.8387C311.32 30.1062 312.134 29.5439 313.046 29.2017C314.899 28.6056 317.182 29.3407 318.075 31.0694C318.131 30.1678 317.9 29.2717 317.415 28.5099C316.929 27.7482 316.215 27.1602 315.375 26.8305C315.988 26.5121 316.667 26.3397 317.357 26.3269C318.048 26.3142 318.732 26.4613 319.357 26.7569C319.981 27.0524 320.529 27.4884 320.958 28.0308C321.386 28.5733 321.683 29.2074 321.827 29.8839C324.815 28.3849 328.243 28.0179 331.48 28.8506C334.683 29.6918 338.931 33.2485 338.931 33.2485C346.156 34.8448 345.812 62.345 331.712 59.1326Z" fill="#2F2E41"/>
<path d="M293.204 178.53C294.169 177.549 294.713 176.23 294.721 174.854C294.729 173.478 294.2 172.153 293.247 171.162C293.05 170.963 292.837 170.781 292.61 170.618L297.709 152.91L289.643 147.158L285.278 172.172C284.674 173.166 284.416 174.333 284.544 175.489C284.672 176.645 285.178 177.727 285.985 178.564C286.448 179.037 287 179.413 287.609 179.672C288.218 179.931 288.872 180.067 289.533 180.073C290.194 180.079 290.85 179.954 291.464 179.706C292.077 179.458 292.635 179.092 293.107 178.628C293.14 178.596 293.172 178.563 293.204 178.53Z" fill="#A0616A"/>
<path d="M323.588 78.7035C323.588 78.7035 308.955 74.3508 307.272 79.2375C305.59 84.1242 305.033 87.2275 298.09 106.732L285.472 160.71C285.472 160.71 298.837 167.057 298.155 163.49C297.472 159.922 298.334 158.524 298.334 158.524C298.334 158.524 301.634 158.046 301.772 154.08C301.911 150.113 310.13 132.24 310.13 132.24L320.466 99.1444L323.588 78.7035Z" fill="#E6E6E6"/>
<path d="M241.862 303.766C241.862 303.862 241.881 303.958 241.917 304.047C241.954 304.136 242.008 304.217 242.076 304.286C242.145 304.354 242.226 304.408 242.315 304.445C242.404 304.482 242.499 304.5 242.596 304.5H398.766C398.961 304.5 399.148 304.423 399.285 304.285C399.423 304.147 399.5 303.96 399.5 303.766C399.5 303.571 399.423 303.384 399.285 303.246C399.148 303.109 398.961 303.031 398.766 303.031H242.596C242.499 303.031 242.404 303.05 242.315 303.087C242.226 303.123 242.145 303.177 242.076 303.246C242.008 303.314 241.954 303.395 241.917 303.484C241.881 303.574 241.862 303.669 241.862 303.766Z" fill="#CCCCCC"/>
</g>
<defs>
<clipPath id="clip0_155_9928">
<rect width="399" height="304" fill="white" transform="translate(0.5 0.5)"/>
</clipPath>
</defs>
</svg>
