<svg width="24" height="24" viewBox="0 0 24 24" fill="none" xmlns="http://www.w3.org/2000/svg">
<g clip-path="url(#clip0_193_88836)">
<path d="M0 0C0 8.0112 0 16.0032 0 24C8.0064 24 16.0032 24 24 24C24 15.9936 24 7.9968 24 0C15.9936 0 8.0016 0 0 0Z" fill="#4C2D85"/>
<mask id="mask0_193_88836" style="mask-type:luminance" maskUnits="userSpaceOnUse" x="6" y="3" width="12" height="11">
<path d="M7.07165 12.7241C7.88789 13.1097 8.69929 13.4953 9.51553 13.8808C9.559 13.9003 9.61213 13.9101 9.66043 13.9101C10.2786 13.9101 10.8969 13.9101 11.5151 13.915C11.6165 13.915 11.6455 13.8808 11.6406 13.7832C11.6358 13.2366 11.6406 12.6851 11.6406 12.1385C11.6406 12.1092 11.6358 12.0799 11.631 12.036C11.5827 12.0604 11.5441 12.0751 11.5102 12.0946C10.9403 12.3435 10.3607 12.5485 9.72321 12.4655C9.47689 12.4313 9.24989 12.3435 9.07119 12.1678C8.75242 11.8554 8.65583 11.4552 8.64617 11.0307C8.64134 10.6793 8.67031 10.323 8.71378 9.97649C8.76208 9.56166 8.86834 9.16146 9.04221 8.78079C9.51553 7.74615 10.1965 6.85792 11.0128 6.07706C11.2832 5.8184 11.602 5.61342 11.8966 5.38404C11.9691 5.32548 12.0415 5.32548 12.114 5.38404C12.3506 5.55974 12.597 5.72079 12.8191 5.91112C13.3939 6.4138 13.8817 6.99457 14.3115 7.62414C14.7414 8.25371 15.1085 8.91744 15.2485 9.68855C15.3499 10.2498 15.4321 10.811 15.3258 11.382C15.1809 12.1483 14.7366 12.4704 14.0507 12.4899C13.7126 12.4997 13.3842 12.4264 13.0654 12.3142C12.8384 12.2361 12.6114 12.1434 12.37 12.0507C12.37 12.0848 12.3651 12.1043 12.3651 12.1287C12.3651 12.6753 12.37 13.2268 12.3603 13.7734C12.3603 13.8954 12.3989 13.9198 12.51 13.9198C13.1089 13.915 13.7078 13.9198 14.3115 13.915C14.3888 13.915 14.4709 13.8954 14.5434 13.8613C15.3306 13.4904 16.1179 13.1146 16.9003 12.7388C17.0597 12.6607 17.0597 12.6656 17.0162 12.4899C16.5767 10.7574 16.142 9.02481 15.6977 7.29227C15.6832 7.23371 15.6494 7.17027 15.6059 7.12634C15.4272 6.95065 15.2437 6.78471 15.0602 6.61878C14.7124 6.30155 14.3647 5.97945 14.0169 5.66222C13.5533 5.23763 13.0896 4.81304 12.6259 4.38844C12.4424 4.22251 12.2589 4.0517 12.0753 3.88088C12.0125 3.82232 11.9691 3.8272 11.9111 3.89064C11.8338 3.97361 11.7469 4.04193 11.6648 4.11514C11.3026 4.45189 10.9403 4.78375 10.5733 5.1205C10.1869 5.47677 9.80049 5.82816 9.40928 6.18443C9.12432 6.44309 8.83936 6.69687 8.55923 6.96041C8.44814 7.0629 8.32257 7.15562 8.2791 7.32644C7.84925 9.05898 7.40973 10.7866 6.97022 12.5143C6.94607 12.6265 6.96539 12.6753 7.07165 12.7241Z" fill="white"/>
</mask>
<g mask="url(#mask0_193_88836)">
<path d="M7.07165 12.7241C7.88789 13.1097 8.69929 13.4953 9.51553 13.8808C9.559 13.9003 9.61213 13.9101 9.66043 13.9101C10.2786 13.9101 10.8969 13.9101 11.5151 13.915C11.6165 13.915 11.6455 13.8808 11.6406 13.7832C11.6358 13.2366 11.6406 12.6851 11.6406 12.1385C11.6406 12.1092 11.6358 12.0799 11.631 12.036C11.5827 12.0604 11.5441 12.0751 11.5102 12.0946C10.9403 12.3435 10.3607 12.5485 9.72321 12.4655C9.47689 12.4313 9.24989 12.3435 9.07119 12.1678C8.75242 11.8554 8.65583 11.4552 8.64617 11.0307C8.64134 10.6793 8.67031 10.323 8.71378 9.97649C8.76208 9.56166 8.86834 9.16146 9.04221 8.78079C9.51553 7.74615 10.1965 6.85792 11.0128 6.07706C11.2832 5.8184 11.602 5.61342 11.8966 5.38404C11.9691 5.32548 12.0415 5.32548 12.114 5.38404C12.3506 5.55974 12.597 5.72079 12.8191 5.91112C13.3939 6.4138 13.8817 6.99457 14.3115 7.62414C14.7414 8.25371 15.1085 8.91744 15.2485 9.68855C15.3499 10.2498 15.4321 10.811 15.3258 11.382C15.1809 12.1483 14.7366 12.4704 14.0507 12.4899C13.7126 12.4997 13.3842 12.4264 13.0654 12.3142C12.8384 12.2361 12.6114 12.1434 12.37 12.0507C12.37 12.0848 12.3651 12.1043 12.3651 12.1287C12.3651 12.6753 12.37 13.2268 12.3603 13.7734C12.3603 13.8954 12.3989 13.9198 12.51 13.9198C13.1089 13.915 13.7078 13.9198 14.3115 13.915C14.3888 13.915 14.4709 13.8954 14.5434 13.8613C15.3306 13.4904 16.1179 13.1146 16.9003 12.7388C17.0597 12.6607 17.0597 12.6656 17.0162 12.4899C16.5767 10.7574 16.142 9.02481 15.6977 7.29227C15.6832 7.23371 15.6494 7.17027 15.6059 7.12634C15.4272 6.95065 15.2437 6.78471 15.0602 6.61878C14.7124 6.30155 14.3647 5.97945 14.0169 5.66222C13.5533 5.23763 13.0896 4.81304 12.6259 4.38844C12.4424 4.22251 12.2589 4.0517 12.0753 3.88088C12.0125 3.82232 11.9691 3.8272 11.9111 3.89064C11.8338 3.97361 11.7469 4.04193 11.6648 4.11514C11.3026 4.45189 10.9403 4.78375 10.5733 5.1205C10.1869 5.47677 9.80049 5.82816 9.40928 6.18443C9.12432 6.44309 8.83936 6.69687 8.55923 6.96041C8.44814 7.0629 8.32257 7.15562 8.2791 7.32644C7.84925 9.05898 7.40973 10.7866 6.97022 12.5143C6.94607 12.6265 6.96539 12.6753 7.07165 12.7241Z" fill="#FAA634"/>
</g>
<mask id="mask1_193_88836" style="mask-type:luminance" maskUnits="userSpaceOnUse" x="6" y="3" width="12" height="11">
<path d="M7.07165 12.7241C7.88789 13.1097 8.69929 13.4953 9.51553 13.8808C9.559 13.9003 9.61213 13.9101 9.66043 13.9101C10.2786 13.9101 10.8969 13.9101 11.5151 13.915C11.6165 13.915 11.6455 13.8808 11.6406 13.7832C11.6358 13.2366 11.6406 12.6851 11.6406 12.1385C11.6406 12.1092 11.6358 12.0799 11.631 12.036C11.5827 12.0604 11.5441 12.0751 11.5102 12.0946C10.9403 12.3435 10.3607 12.5485 9.72321 12.4655C9.47689 12.4313 9.24989 12.3435 9.07119 12.1678C8.75242 11.8554 8.65583 11.4552 8.64617 11.0307C8.64134 10.6793 8.67031 10.323 8.71378 9.97649C8.76208 9.56166 8.86834 9.16146 9.04221 8.78079C9.51553 7.74615 10.1965 6.85792 11.0128 6.07706C11.2832 5.8184 11.602 5.61342 11.8966 5.38404C11.9691 5.32548 12.0415 5.32548 12.114 5.38404C12.3506 5.55974 12.597 5.72079 12.8191 5.91112C13.3939 6.4138 13.8817 6.99457 14.3115 7.62414C14.7414 8.25371 15.1085 8.91744 15.2485 9.68855C15.3499 10.2498 15.4321 10.811 15.3258 11.382C15.1809 12.1483 14.7366 12.4704 14.0507 12.4899C13.7126 12.4997 13.3842 12.4264 13.0654 12.3142C12.8384 12.2361 12.6114 12.1434 12.37 12.0507C12.37 12.0848 12.3651 12.1043 12.3651 12.1287C12.3651 12.6753 12.37 13.2268 12.3603 13.7734C12.3603 13.8954 12.3989 13.9198 12.51 13.9198C13.1089 13.915 13.7078 13.9198 14.3115 13.915C14.3888 13.915 14.4709 13.8954 14.5434 13.8613C15.3306 13.4904 16.1179 13.1146 16.9003 12.7388C17.0597 12.6607 17.0597 12.6656 17.0162 12.4899C16.5767 10.7574 16.142 9.02481 15.6977 7.29227C15.6832 7.23371 15.6494 7.17027 15.6059 7.12634C15.4272 6.95065 15.2437 6.78471 15.0602 6.61878C14.7124 6.30155 14.3647 5.97945 14.0169 5.66222C13.5533 5.23763 13.0896 4.81304 12.6259 4.38844C12.4424 4.22251 12.2589 4.0517 12.0753 3.88088C12.0125 3.82232 11.9691 3.8272 11.9111 3.89064C11.8338 3.97361 11.7469 4.04193 11.6648 4.11514C11.3026 4.45189 10.9403 4.78375 10.5733 5.1205C10.1869 5.47677 9.80049 5.82816 9.40928 6.18443C9.12432 6.44309 8.83936 6.69687 8.55923 6.96041C8.44814 7.0629 8.32257 7.15562 8.2791 7.32644C7.84925 9.05898 7.40973 10.7866 6.97022 12.5143C6.94607 12.6265 6.96539 12.6753 7.07165 12.7241Z" fill="white"/>
</mask>
<g mask="url(#mask1_193_88836)">
<path d="M12.9741 1.50391L5.71484 8.66832L13.4667 16.6868L20.7259 9.51751L12.9741 1.50391Z" fill="url(#paint0_linear_193_88836)"/>
</g>
<mask id="mask2_193_88836" style="mask-type:luminance" maskUnits="userSpaceOnUse" x="6" y="3" width="12" height="11">
<path d="M7.07165 12.7241C7.88789 13.1097 8.69929 13.4953 9.51553 13.8808C9.559 13.9003 9.61213 13.9101 9.66043 13.9101C10.2786 13.9101 10.8969 13.9101 11.5151 13.915C11.6165 13.915 11.6455 13.8808 11.6406 13.7832C11.6358 13.2366 11.6406 12.6851 11.6406 12.1385C11.6406 12.1092 11.6358 12.0799 11.631 12.036C11.5827 12.0604 11.5441 12.0751 11.5102 12.0946C10.9403 12.3435 10.3607 12.5485 9.72321 12.4655C9.47689 12.4313 9.24989 12.3435 9.07119 12.1678C8.75242 11.8554 8.65583 11.4552 8.64617 11.0307C8.64134 10.6793 8.67031 10.323 8.71378 9.97649C8.76208 9.56166 8.86834 9.16146 9.04221 8.78079C9.51553 7.74615 10.1965 6.85792 11.0128 6.07706C11.2832 5.8184 11.602 5.61342 11.8966 5.38404C11.9691 5.32548 12.0415 5.32548 12.114 5.38404C12.3506 5.55974 12.597 5.72079 12.8191 5.91112C13.3939 6.4138 13.8817 6.99457 14.3115 7.62414C14.7414 8.25371 15.1085 8.91744 15.2485 9.68855C15.3499 10.2498 15.4321 10.811 15.3258 11.382C15.1809 12.1483 14.7366 12.4704 14.0507 12.4899C13.7126 12.4997 13.3842 12.4264 13.0654 12.3142C12.8384 12.2361 12.6114 12.1434 12.37 12.0507C12.37 12.0848 12.3651 12.1043 12.3651 12.1287C12.3651 12.6753 12.37 13.2268 12.3603 13.7734C12.3603 13.8954 12.3989 13.9198 12.51 13.9198C13.1089 13.915 13.7078 13.9198 14.3115 13.915C14.3888 13.915 14.4709 13.8954 14.5434 13.8613C15.3306 13.4904 16.1179 13.1146 16.9003 12.7388C17.0597 12.6607 17.0597 12.6656 17.0162 12.4899C16.5767 10.7574 16.142 9.02481 15.6977 7.29227C15.6832 7.23371 15.6494 7.17027 15.6059 7.12634C15.4272 6.95065 15.2437 6.78471 15.0602 6.61878C14.7124 6.30155 14.3647 5.97945 14.0169 5.66222C13.5533 5.23763 13.0896 4.81304 12.6259 4.38844C12.4424 4.22251 12.2589 4.0517 12.0753 3.88088C12.0125 3.82232 11.9691 3.8272 11.9111 3.89064C11.8338 3.97361 11.7469 4.04193 11.6648 4.11514C11.3026 4.45189 10.9403 4.78375 10.5733 5.1205C10.1869 5.47677 9.80049 5.82816 9.40928 6.18443C9.12432 6.44309 8.83936 6.69687 8.55923 6.96041C8.44814 7.0629 8.32257 7.15562 8.2791 7.32644C7.84925 9.05898 7.40973 10.7866 6.97022 12.5143C6.94607 12.6265 6.96539 12.6753 7.07165 12.7241Z" fill="white"/>
</mask>
<g mask="url(#mask2_193_88836)">
<path d="M11.9792 2.75391H6.25586V15.7357H11.9792V2.75391Z" fill="url(#paint1_linear_193_88836)"/>
</g>
<path d="M17.623 18.415C17.6279 18.2633 17.6279 18.107 17.6327 17.9553C17.6327 17.868 17.6569 17.7944 17.7632 17.799C17.8599 17.8036 17.8792 17.8772 17.8792 17.9507C17.884 18.1024 17.884 18.2587 17.8889 18.4104C17.884 18.4242 17.8792 18.4334 17.8792 18.4472C17.8019 18.53 17.7197 18.5392 17.6375 18.4518C17.6327 18.438 17.6279 18.4242 17.623 18.415Z" fill="#EEEBF3"/>
<path d="M17.623 18.4158C17.6278 18.4296 17.6326 18.4387 17.6375 18.4525C17.652 18.5767 17.565 18.5996 17.4683 18.6088C17.4587 18.6088 17.4538 18.6042 17.449 18.5996C17.3475 18.4985 17.2412 18.3974 17.1397 18.2916C17.0769 18.2273 16.9802 18.1583 17.0865 18.071C17.1735 17.9928 17.246 18.0664 17.3088 18.1261C17.4055 18.2181 17.5167 18.3146 17.623 18.4158Z" fill="#F3A817"/>
<path d="M18.0724 18.5859C18.2319 18.5905 18.3962 18.5905 18.5557 18.5951C18.633 18.5951 18.7152 18.6135 18.72 18.7055C18.7248 18.8066 18.6475 18.8296 18.5557 18.8296C18.3962 18.8296 18.2319 18.8342 18.0724 18.8342C18.0579 18.8296 18.0434 18.825 18.0337 18.8204C17.9419 18.7422 17.9564 18.6641 18.0386 18.5905C18.0482 18.5951 18.0627 18.5905 18.0724 18.5859Z" fill="#EEEBF3"/>
<path d="M17.8879 19.0132C17.8831 19.1695 17.8831 19.3212 17.8831 19.4775C17.8831 19.5557 17.8638 19.6292 17.7671 19.6338C17.6608 19.6384 17.6318 19.5695 17.6318 19.4775C17.6318 19.3212 17.627 19.1695 17.627 19.0132C17.6318 19.004 17.6366 18.9948 17.6366 18.9856C17.7188 18.8891 17.8009 18.8937 17.8783 18.9948C17.8783 18.9994 17.8783 19.0086 17.8879 19.0132Z" fill="#EEEBF3"/>
<path d="M17.8886 19.0135C17.8837 19.0089 17.8789 18.9997 17.8789 18.9905C17.8789 18.8894 17.9079 18.8158 18.0336 18.825C18.0481 18.8296 18.0626 18.8342 18.0722 18.8388C18.1834 18.9491 18.2945 19.0594 18.4057 19.1698C18.4685 19.2295 18.5072 19.2985 18.425 19.3674C18.3525 19.4318 18.2897 19.3858 18.2317 19.3307C18.1205 19.2295 18.0046 19.1238 17.8886 19.0135Z" fill="#F3A817"/>
<path d="M17.4436 18.5938C17.4485 18.6029 17.4533 18.6029 17.463 18.6029C17.5645 18.6765 17.5548 18.7501 17.4678 18.8282C17.4581 18.8282 17.4485 18.8328 17.4388 18.8374C17.2745 18.8374 17.115 18.8328 16.9507 18.8328C16.8685 18.8328 16.7961 18.8144 16.7912 18.7225C16.7864 18.6167 16.8685 18.5983 16.9555 18.5983C17.1198 18.5983 17.2793 18.5938 17.4436 18.5938Z" fill="#FBFAFC"/>
<path d="M17.4398 18.8383C17.4495 18.8337 17.4592 18.8291 17.4688 18.8291C17.5848 18.8199 17.6428 18.8751 17.6331 18.9854C17.6331 18.9946 17.6283 19.0038 17.6235 19.013C17.5075 19.1187 17.3915 19.2291 17.2755 19.3348C17.2175 19.39 17.1547 19.4313 17.0822 19.367C17 19.2934 17.0435 19.2291 17.1064 19.1693C17.2175 19.059 17.3287 18.9486 17.4398 18.8383Z" fill="#F3A817"/>
<path d="M18.0734 18.5851C18.0589 18.5897 18.0493 18.5897 18.0348 18.5943C17.9236 18.5989 17.8705 18.5483 17.8753 18.4426C17.8801 18.4288 17.885 18.4196 17.885 18.4058C18.001 18.3001 18.1169 18.1943 18.2378 18.084C18.2958 18.0288 18.3682 17.9966 18.4359 18.061C18.5036 18.1254 18.4697 18.1897 18.4117 18.2495C18.3006 18.3644 18.1894 18.4747 18.0734 18.5851Z" fill="#F3A817"/>
<path d="M17.8795 18.4434C17.8747 18.5491 17.9279 18.5997 18.039 18.5951C17.9569 18.6686 17.9424 18.7468 18.0342 18.8249C17.9085 18.8157 17.8747 18.8893 17.8795 18.9904C17.8022 18.8939 17.7201 18.8847 17.6379 18.9812C17.6427 18.8709 17.5896 18.8157 17.4736 18.8249C17.5606 18.7468 17.5751 18.6732 17.4688 18.5997C17.5702 18.5905 17.6572 18.5675 17.6379 18.4434C17.7201 18.5399 17.7974 18.5261 17.8795 18.4434Z" fill="#B33B8F"/>
<path d="M9.47034 19.3261C9.83763 19.5927 10.2678 19.6617 10.7124 19.68C11.0603 19.6938 11.3986 19.6249 11.7273 19.5283C11.9254 19.4686 11.9254 19.4686 11.9061 19.2801C11.8916 19.1468 11.8626 19.0135 11.8432 18.8802C11.4083 19.041 10.9685 19.087 10.5191 19.0273C10.1566 18.9813 9.88596 18.8112 9.76031 18.4756C9.58633 18.0205 9.59116 17.5562 9.74098 17.0965C9.83763 16.8069 10.0503 16.6184 10.3596 16.5403C10.635 16.4713 10.9202 16.4667 11.2005 16.5081C11.4083 16.5357 11.6113 16.5816 11.8336 16.6184C11.8626 16.4345 11.8964 16.2506 11.9206 16.0714C11.9254 16.053 11.8916 16.0208 11.8674 16.0116C11.5871 15.9105 11.2875 15.8645 10.9878 15.8461C10.7075 15.8323 10.4272 15.8507 10.1566 15.9151C9.58149 16.0438 9.16104 16.3518 8.95806 16.8896C8.77442 17.3677 8.76475 17.855 8.86141 18.3515C8.93873 18.7422 9.12721 19.0778 9.47034 19.3261Z" fill="white"/>
<path d="M7.13992 18.9855C6.79196 19.1097 6.43917 19.0775 6.08637 18.9947C5.84957 18.9396 5.61759 18.8522 5.37595 18.7787C5.34696 18.9718 5.31313 19.1786 5.2793 19.3809C5.29863 19.3901 5.30829 19.3993 5.31796 19.4039C5.34212 19.4177 5.37112 19.4315 5.40012 19.4407C5.85923 19.6153 6.32801 19.7027 6.82579 19.6659C7.0771 19.6475 7.31874 19.6061 7.55071 19.5096C8.08232 19.289 8.30463 18.912 8.23213 18.3833C8.18381 18.0248 7.98083 17.7627 7.62804 17.634C7.3429 17.5283 7.03843 17.4639 6.74847 17.372C6.55999 17.3122 6.36668 17.2433 6.18786 17.1605C6.06704 17.1054 6.03321 16.9766 6.06704 16.8525C6.10087 16.7054 6.21203 16.6227 6.34734 16.5675C6.70014 16.4342 7.06743 16.471 7.42989 16.5215C7.61837 16.5491 7.80685 16.5951 8.00016 16.6365C8.02432 16.4802 8.04366 16.3239 8.07749 16.1722C8.10648 16.0342 8.10648 16.0434 7.97116 16.0159C7.70053 15.9607 7.42989 15.9101 7.15925 15.8779C6.80163 15.832 6.44883 15.8642 6.10087 15.9653C5.43395 16.1584 5.21164 16.7054 5.34696 17.2295C5.42428 17.5283 5.64176 17.7214 5.93172 17.8317C6.1927 17.9282 6.46816 17.9926 6.7388 18.0661C6.97078 18.1305 7.20275 18.1857 7.39123 18.3466C7.54105 18.4753 7.56038 18.6684 7.42506 18.8063C7.34773 18.8844 7.24624 18.9488 7.13992 18.9855Z" fill="white"/>
<path d="M15.3941 17.7179C15.3554 17.7042 15.3167 17.6904 15.2829 17.6812C15.2829 17.672 15.2877 17.6628 15.2877 17.6536C15.3119 17.6444 15.3312 17.6306 15.3554 17.626C15.568 17.557 15.713 17.4191 15.7904 17.2169C15.8483 17.056 15.8677 16.8905 15.8483 16.7158C15.8145 16.4538 15.684 16.2561 15.4424 16.1182C15.1524 15.9527 14.8286 15.9205 14.5048 15.9159C13.9394 15.9067 13.374 15.9113 12.8037 15.9113C12.7699 15.9113 12.7409 15.9113 12.707 15.9113C12.707 17.1525 12.707 18.3799 12.707 19.6119C12.736 19.6119 12.7602 19.6165 12.7844 19.6165C13.403 19.6165 14.0167 19.6211 14.6353 19.6119C14.848 19.6073 15.0654 19.5797 15.2684 19.5246C15.9402 19.3407 16.1238 18.858 16.0078 18.3202C15.945 18.003 15.7082 17.8145 15.3941 17.7179ZM13.4658 16.5181C13.5044 16.5181 13.5334 16.5181 13.5673 16.5181C13.8862 16.5181 14.2052 16.5135 14.5242 16.5227C14.6305 16.5273 14.7416 16.5457 14.848 16.5733C15.0219 16.6238 15.1186 16.7664 15.1234 16.941C15.1234 17.01 15.1283 17.079 15.1138 17.1433C15.0703 17.3272 14.9108 17.4513 14.6788 17.4559C14.2777 17.4651 13.8814 17.4605 13.4706 17.4605C13.4658 17.1433 13.4658 16.8353 13.4658 16.5181ZM15.2491 18.6374C15.2008 18.8626 15.0509 18.9959 14.7948 19.0051C14.3598 19.0143 13.9249 19.0097 13.4899 19.0097C13.4851 19.0097 13.4803 19.0051 13.4658 19.0005C13.4658 18.6649 13.4658 18.3294 13.4658 17.9892C13.4996 17.9892 13.5286 17.9846 13.5576 17.9846C13.8331 17.9846 14.1134 17.98 14.3888 17.9846C14.5532 17.9892 14.7223 17.9938 14.8866 18.0213C15.1331 18.0627 15.2636 18.2282 15.2636 18.4627C15.2587 18.5224 15.2636 18.5822 15.2491 18.6374Z" fill="white"/>
</g>
<defs>
<linearGradient id="paint0_linear_193_88836" x1="6.8016" y1="6.82198" x2="18.3352" y2="13.5931" gradientUnits="userSpaceOnUse">
<stop stop-color="#FFD200"/>
<stop offset="1" stop-color="#E3A015"/>
</linearGradient>
<linearGradient id="paint1_linear_193_88836" x1="11.5143" y1="15.9049" x2="6.62671" y2="2.61562" gradientUnits="userSpaceOnUse">
<stop stop-color="#FBAE18"/>
<stop offset="0.5431" stop-color="#FBAE18"/>
<stop offset="0.9995" stop-color="#E19618"/>
</linearGradient>
<clipPath id="clip0_193_88836">
<rect width="24" height="24" rx="5" fill="white"/>
</clipPath>
</defs>
</svg>
