<svg width="24" height="24" viewBox="0 0 24 24" fill="none" xmlns="http://www.w3.org/2000/svg">
<rect width="24" height="24" rx="5" fill="#1A3763"/>
<path d="M17.0396 12.782V13.1765H17.7184V13.4723H17.0401V13.8313H17.7978V14.1408H16.707V12.4746H17.7612V12.7822H17.0398L17.0396 12.782Z" fill="#FFFEFE"/>
<path d="M13.1454 14.1404H13.1264C13.0233 14.1404 12.9202 14.1401 12.817 14.1406C12.8025 14.1406 12.7957 14.1367 12.7905 14.1213C12.7521 14.0061 12.7125 13.8914 12.6738 13.7765C12.6694 13.7632 12.6635 13.7584 12.6499 13.7584C12.462 13.7589 12.2742 13.7589 12.0863 13.7584C12.0717 13.7584 12.0661 13.7632 12.0612 13.7775C12.0218 13.8914 11.9812 14.0051 11.9412 14.1191C11.9388 14.1256 11.9365 14.1319 11.9337 14.1394H11.6074C11.6245 14.0933 11.6414 14.0484 11.6583 14.0035C11.8474 13.5 12.0368 12.9964 12.2255 12.4927C12.2313 12.4773 12.2384 12.4724 12.2538 12.4727C12.3368 12.4736 12.4198 12.4734 12.5027 12.4727C12.5152 12.4727 12.5212 12.476 12.5262 12.4891C12.7303 13.0335 12.9352 13.578 13.1395 14.1225C13.1414 14.1276 13.1428 14.1329 13.1452 14.1404H13.1454ZM12.3698 12.8983C12.3684 12.8983 12.3673 12.8979 12.3659 12.8979C12.2988 13.0905 12.2318 13.2834 12.1645 13.4773H12.5688C12.5023 13.2834 12.4359 13.0908 12.3698 12.8983Z" fill="#FFFEFE"/>
<path d="M10.5488 12.4741C10.5535 12.4736 10.5577 12.4729 10.5617 12.4729C10.7792 12.4734 10.9967 12.471 11.2142 12.4753C11.3488 12.478 11.473 12.5195 11.5777 12.6115C11.6595 12.6832 11.7052 12.7754 11.7212 12.8836C11.7359 12.984 11.732 13.0835 11.6977 13.1796C11.6513 13.3102 11.558 13.3931 11.4359 13.4445C11.356 13.478 11.2721 13.4923 11.1861 13.493C11.0825 13.494 10.9787 13.4935 10.8748 13.4935C10.8695 13.4935 10.8643 13.4935 10.857 13.4935V14.1406H10.5488V12.4743V12.4741ZM10.8568 13.2021C10.8608 13.2026 10.8631 13.203 10.8655 13.203C10.9679 13.203 11.0705 13.2042 11.173 13.2018C11.2074 13.2011 11.2426 13.1939 11.2759 13.1842C11.3391 13.1661 11.3851 13.127 11.401 13.0579C11.412 13.0101 11.4123 12.9626 11.401 12.9147C11.3891 12.864 11.36 12.8278 11.3143 12.8054C11.277 12.7868 11.2374 12.7757 11.1964 12.7747C11.0863 12.7725 10.9761 12.7725 10.8659 12.7718C10.8631 12.7718 10.8603 12.773 10.857 12.7737V13.2018L10.8568 13.2021Z" fill="#FFFEFE"/>
<path d="M13.8478 14.1408H13.5389C13.5389 14.1329 13.5389 14.1254 13.5389 14.1181C13.5389 13.8977 13.5389 13.6772 13.5384 13.457C13.5384 13.4452 13.5347 13.4319 13.5288 13.422C13.3441 13.1135 13.159 12.8051 12.9741 12.4968C12.9701 12.49 12.9661 12.4833 12.9609 12.4741C12.9694 12.4736 12.975 12.4731 12.9806 12.4731C13.0856 12.4731 13.1904 12.4734 13.2954 12.4727C13.3092 12.4727 13.3163 12.4775 13.3233 12.4898C13.4433 12.6994 13.5637 12.9085 13.6842 13.1178C13.6875 13.1236 13.691 13.1294 13.6957 13.1374C13.7006 13.1294 13.7048 13.1229 13.7086 13.1161C13.8298 12.908 13.9509 12.7001 14.0714 12.4917C14.0796 12.4775 14.0885 12.4727 14.104 12.4729C14.2048 12.4736 14.3055 12.4734 14.4063 12.4734H14.4291C14.4237 12.483 14.4199 12.4898 14.4159 12.4963C14.2303 12.8044 14.0447 13.1123 13.8595 13.4206C13.8527 13.4319 13.8485 13.4471 13.8483 13.4607C13.8476 13.6799 13.8478 13.8989 13.8478 14.1181V14.1413V14.1408Z" fill="#FFFEFE"/>
<path d="M20.916 12.7825H20.4163V14.1408H20.1074V12.7837H19.6094V12.4746H20.9163V12.7825H20.916Z" fill="#FFFEFE"/>
<path d="M16.0617 12.4746V12.4727H15.8946L15.4795 13.649L15.0405 12.4746H14.9449H14.6367V12.8447V14.1408H14.9449V12.9662L15.3244 14.0121H15.6098L15.9902 13.0297V14.1408H16.2984V12.8447V12.4746H16.0617Z" fill="#FFFEFE"/>
<path d="M19.1158 12.4746V13.6628L18.4098 12.4746H18.127V14.1408H18.4098V13.0133L19.1158 14.1408H19.3987V12.4746H19.1158Z" fill="#FFFEFE"/>
<path d="M20.4234 11.0717C20.587 11.3371 20.7501 11.6015 20.9155 11.8695H20.8916C20.7712 11.8695 20.6509 11.8692 20.5305 11.87C20.5155 11.87 20.5075 11.8651 20.4995 11.8516C20.361 11.6123 20.2218 11.3733 20.0835 11.134C20.0748 11.1191 20.0655 11.1137 20.0493 11.114C19.9874 11.115 19.9255 11.1145 19.8616 11.1145V11.868H19.5039V9.94103C19.5098 9.94055 19.5145 9.93958 19.5191 9.93958C19.7709 9.94006 20.0226 9.93789 20.2743 9.94224C20.4182 9.94489 20.5541 9.98425 20.673 10.0762C20.7899 10.1668 20.8487 10.2916 20.8623 10.4423C20.8724 10.5536 20.8635 10.6627 20.818 10.7653C20.7566 10.9044 20.6507 10.9899 20.5176 11.0408C20.4876 11.0524 20.4564 11.0606 20.4229 11.0715L20.4234 11.0717ZM19.8618 10.7714C19.8705 10.7719 19.8766 10.7723 19.8827 10.7723C19.9921 10.7723 20.1013 10.7728 20.2108 10.7721C20.241 10.7721 20.2712 10.7692 20.3012 10.7649C20.4318 10.7453 20.5009 10.6579 20.4948 10.5205C20.4911 10.4326 20.4587 10.3624 20.3779 10.3293C20.3418 10.3145 20.3024 10.3032 20.2642 10.302C20.1337 10.2979 20.0029 10.2989 19.8721 10.2979C19.8688 10.2979 19.8658 10.2993 19.8618 10.3003V10.7716V10.7714Z" fill="#FFFEFE"/>
<path d="M13.7606 11.8689H13.4044V11.0825H12.6326V11.8682H12.2754V9.94165H12.6314V10.7206H13.4034V9.94141H13.7609V11.8689H13.7606Z" fill="#FFFEFE"/>
<path d="M15.8202 11.8698C15.7194 11.8698 15.6219 11.8698 15.5241 11.8698C15.4946 11.8698 15.4648 11.8689 15.4353 11.8703C15.4205 11.871 15.414 11.8657 15.4088 11.8508C15.3641 11.7175 15.3179 11.5849 15.2734 11.4517C15.2673 11.4335 15.2593 11.428 15.2413 11.428C15.0245 11.4287 14.8079 11.4287 14.5911 11.428C14.5749 11.428 14.5674 11.4321 14.5613 11.4492C14.5156 11.5813 14.4688 11.7129 14.4221 11.8445C14.4193 11.8527 14.416 11.8607 14.413 11.8691H14.0352C14.0382 11.8599 14.0405 11.8517 14.0436 11.844C14.2801 11.2165 14.5166 10.589 14.7526 9.96143C14.7584 9.94574 14.7652 9.93922 14.7823 9.93946C14.8794 9.94043 14.9764 9.94043 15.0734 9.93946C15.0889 9.93946 15.0959 9.94429 15.1018 9.95974C15.3385 10.5894 15.5759 11.2189 15.8131 11.8484C15.8155 11.8544 15.8171 11.8604 15.8202 11.8696V11.8698ZM14.6816 11.1018H15.1505C15.073 10.8768 14.9961 10.6537 14.9173 10.425C14.8374 10.6544 14.7598 10.877 14.6816 11.1018Z" fill="#FFFEFE"/>
<path d="M11.0872 10.298H10.5488V9.94141H11.9863V10.2966H11.446V11.8682H11.0874V10.298H11.0872Z" fill="#FFFEFE"/>
<path d="M16.0391 9.94141H16.3939V11.8686H16.0391V9.94141Z" fill="#FFFEFE"/>
<path d="M19.2094 11.8399L18.9312 11.555C18.9656 11.5122 18.9963 11.4654 19.023 11.4142C19.1006 11.265 19.1395 11.096 19.1395 10.9069C19.1395 10.7179 19.1027 10.5537 19.0289 10.4067C18.9551 10.2596 18.848 10.1449 18.7076 10.0628C18.567 9.98074 18.4092 9.93945 18.2341 9.93945C17.967 9.93945 17.7488 10.0269 17.5798 10.2019C17.4108 10.377 17.3262 10.6191 17.3262 10.9284C17.3262 11.0919 17.3623 11.2471 17.4349 11.3937C17.5073 11.5403 17.6138 11.6559 17.7544 11.7407C17.895 11.8254 18.0544 11.8677 18.233 11.8677C18.3977 11.8677 18.551 11.8293 18.6933 11.7527C18.6977 11.7503 18.7017 11.7477 18.7059 11.7452L19.0038 12.0504L19.2094 11.8399ZM18.233 11.5673C18.1066 11.5673 17.9988 11.5393 17.9034 11.4818C17.8116 11.4263 17.7441 11.3531 17.697 11.258C17.6452 11.1532 17.6198 11.0453 17.6198 10.9284C17.6198 10.6993 17.6749 10.531 17.7886 10.4134C17.9027 10.2951 18.0443 10.2401 18.2344 10.2401C18.3586 10.2401 18.4659 10.2673 18.5623 10.3238C18.6532 10.377 18.7205 10.4489 18.768 10.544C18.8205 10.6488 18.8461 10.7676 18.8461 10.9069C18.8461 11.0463 18.8194 11.1667 18.7643 11.2727C18.7516 11.2971 18.7376 11.3198 18.7226 11.3411L18.4388 11.0504L18.2332 11.2609L18.4861 11.52C18.4066 11.5516 18.3234 11.5673 18.2332 11.5673H18.233Z" fill="#FFFEFE"/>
<path d="M4.46553 9.27645C4.5485 9.2721 4.6317 9.26582 4.71467 9.27234C5.45506 9.27307 6.19569 9.27234 6.93608 9.27258C7.26889 9.27427 7.61342 9.34816 7.88881 9.54977C8.12084 9.71685 8.2849 9.97134 8.37068 10.2471C8.42365 10.4156 8.45248 10.5923 8.45717 10.7693C8.45647 11.5246 8.4574 12.2801 8.4567 13.0353C8.99154 13.5668 9.52756 14.0972 10.0626 14.6284C10.0805 14.6465 10.1046 14.6699 10.0976 14.6984C10.0847 14.724 10.0523 14.7264 10.0277 14.7293C8.25678 14.7288 6.48584 14.7293 4.71514 14.7293C4.40412 14.731 4.08514 14.6834 3.80623 14.5345C3.64404 14.4483 3.4992 14.3263 3.38811 14.1771C3.20201 13.9287 3.10873 13.617 3.08834 13.3067C3.08108 13.2304 3.08483 13.1536 3.086 13.0771C3.086 12.2315 3.086 11.386 3.086 10.5404C3.09209 10.2811 3.16404 10.0175 3.32037 9.81077C3.47647 9.60047 3.70639 9.46067 3.94756 9.37906C4.11514 9.32208 4.28998 9.29069 4.46553 9.27645ZM4.15404 9.97786C4.03662 10.0172 3.92858 10.0935 3.86131 10.2014C3.7924 10.3115 3.76029 10.4448 3.76428 10.5752C3.76428 10.9432 3.76428 11.3111 3.76428 11.6791C4.076 11.6791 4.38772 11.6793 4.69967 11.6791V11.152C4.69873 11.0651 4.73623 10.9762 4.80584 10.9253C4.87592 10.8731 4.96545 10.8594 5.05029 10.8616C5.19233 10.8616 5.33436 10.8616 5.47639 10.8616C5.47709 10.5542 5.47615 10.2468 5.47686 9.93947C5.15412 9.9385 4.83139 9.93947 4.50889 9.93898C4.38983 9.92715 4.26795 9.93971 4.15404 9.97786ZM6.10709 9.93874C6.10569 10.2463 6.10662 10.554 6.10662 10.8616C6.25709 10.8618 6.40779 10.8616 6.55826 10.8616C6.63865 10.862 6.72326 10.8804 6.78725 10.9333C6.85076 10.9849 6.88428 11.0694 6.88334 11.1518C6.88334 11.3276 6.8817 11.5033 6.8824 11.6791C7.19459 11.6796 7.50678 11.6791 7.81873 11.6791V10.5576C7.82084 10.4685 7.80701 10.3787 7.77654 10.2951C7.73436 10.1771 7.6474 10.0778 7.53912 10.0204C7.39709 9.94429 7.23186 9.92474 7.07412 9.93898C6.75186 9.93874 6.42959 9.93971 6.10733 9.9385L6.10709 9.93874ZM3.76451 12.3197C3.76428 12.7082 3.76451 13.0964 3.76451 13.4849C3.76709 13.5771 3.78467 13.6706 3.82779 13.7524C3.87912 13.8526 3.96678 13.9299 4.06592 13.9772C4.20865 14.046 4.36944 14.067 4.52553 14.0598C4.84264 14.06 5.15975 14.0598 5.47662 14.0598C5.47662 13.7524 5.47686 13.4448 5.47662 13.1375C5.32592 13.1375 5.17545 13.1375 5.02498 13.1375C4.94459 13.1372 4.85998 13.1186 4.796 13.0657C4.73248 13.0138 4.6992 12.9293 4.70014 12.8468V12.3197C4.38842 12.3197 4.0767 12.3197 3.76475 12.3197H3.76451ZM6.88123 12.3576C6.88029 12.5235 6.881 12.6893 6.881 12.855C6.88358 12.9257 6.866 13.0003 6.81842 13.0534C6.76522 13.1111 6.68576 13.1362 6.61006 13.1353C6.43615 13.1346 6.26225 13.1362 6.08834 13.1343C6.08436 13.1744 6.0874 13.2145 6.08647 13.2548C6.08623 13.5187 6.08717 13.7824 6.086 14.0463C6.15983 14.0492 6.23389 14.0467 6.30772 14.0475C7.04717 14.047 7.78662 14.0484 8.52608 14.0468C8.20826 13.7179 7.88834 13.3915 7.57029 13.0628C7.33967 12.8289 7.11397 12.5894 6.88147 12.3576H6.88123Z" fill="white"/>
<path d="M6.88141 12.3574C7.11414 12.5892 7.33961 12.8287 7.57023 13.0627C7.88828 13.3913 8.2082 13.7177 8.52602 14.0466C7.78656 14.0483 7.04711 14.0468 6.30766 14.0473C6.23359 14.0466 6.15977 14.049 6.08594 14.0461C6.08711 13.7822 6.08594 13.5185 6.08641 13.2546C6.08734 13.2143 6.0843 13.174 6.08828 13.1342C6.26219 13.1361 6.43609 13.1342 6.61 13.1351C6.6857 13.1361 6.76539 13.111 6.81836 13.0533C6.86594 13.0002 6.88352 12.9256 6.88094 12.8548C6.88094 12.6889 6.88023 12.5231 6.88117 12.3574H6.88141Z" fill="#54A69A"/>
</svg>
