<svg width="300" height="199" viewBox="0 0 300 199" fill="none" xmlns="http://www.w3.org/2000/svg">
<g clip-path="url(#clip0_194_95404)">
<path d="M288.274 133.176C286.108 135.546 283.421 137.311 280.506 138.681H280.503C280.228 138.811 279.954 138.938 279.676 139.058H279.673L279.669 139.061L279.666 139.058H279.662L279.662 139.059L279.661 139.06L279.66 139.061L279.659 139.061H279.655L279.652 139.058C279.648 139.061 279.648 139.061 279.645 139.058L279.641 139.061L279.638 139.058H279.634C279.631 139.061 279.631 139.061 279.627 139.058H279.624C277.672 139.903 275.668 140.621 273.624 141.206C261.605 144.622 248.972 145.283 236.662 143.14C236.427 143.098 236.195 143.055 235.959 143.013V114.445C236.191 114.347 236.427 114.248 236.662 114.153C238.199 113.515 239.755 112.929 241.329 112.395C243.593 111.62 245.89 110.956 248.218 110.402C255.812 108.561 263.649 107.926 271.441 108.521C272.858 108.627 274.271 108.779 275.682 108.979C278.632 109.391 281.726 110.109 284.448 111.356H284.452C284.849 111.543 285.239 111.737 285.626 111.944C288.046 113.258 290.085 115.065 291.33 117.541C291.777 118.43 292.099 119.377 292.287 120.355V120.362C292.357 120.7 292.406 121.042 292.445 121.38C292.888 125.55 291.161 130.013 288.274 133.176Z" fill="#F2F2F2"/>
<path d="M292.445 121.379C292.41 121.387 292.375 121.392 292.339 121.393C286.316 121.657 280.3 122.049 274.292 122.569H274.282C274.257 122.573 274.236 122.573 274.212 122.576C268.044 123.112 261.889 123.782 255.746 124.587C255.486 124.623 255.229 124.658 254.973 124.69C250.725 125.257 246.485 125.886 242.254 126.577C240.386 126.884 238.522 127.203 236.662 127.535C236.427 127.578 236.195 127.616 235.959 127.662V126.595C236.195 126.549 236.43 126.511 236.662 126.468C242.858 125.369 249.076 124.41 255.314 123.591C256.882 123.379 258.453 123.18 260.026 122.992C264.569 122.442 269.12 121.968 273.677 121.569C274.011 121.541 274.342 121.513 274.676 121.484C280.51 120.988 286.352 120.611 292.202 120.354C292.23 120.353 292.259 120.355 292.287 120.361C292.849 120.41 292.969 121.256 292.445 121.379Z" fill="white"/>
<path d="M279.935 138.019C272.431 138.074 265.038 134.887 259.73 129.612C258.232 128.118 256.912 126.455 255.797 124.656C255.439 124.081 254.602 124.715 254.957 125.285C259.079 131.907 265.946 136.624 273.516 138.358C275.666 138.846 277.866 139.082 280.07 139.061C280.743 139.056 280.603 138.014 279.935 138.019Z" fill="white"/>
<path d="M248.218 110.4C248.185 110.499 248.128 110.588 248.051 110.658C247.974 110.728 247.88 110.776 247.778 110.798C246.058 111.25 244.397 111.9 242.827 112.736C240.534 113.948 238.453 115.524 236.662 117.402C236.567 117.497 236.476 117.593 236.388 117.691C236.24 117.846 236.1 118.005 235.959 118.167V116.631C236.184 116.392 236.42 116.156 236.662 115.93C238.076 114.574 239.642 113.388 241.329 112.394C243.593 111.619 245.89 110.955 248.218 110.4Z" fill="white"/>
<path d="M285.069 111.079C280.295 113.134 276.301 116.661 273.667 121.147C273.614 121.275 273.613 121.42 273.666 121.548C273.718 121.677 273.819 121.78 273.946 121.835C274.075 121.886 274.218 121.885 274.345 121.833C274.473 121.781 274.576 121.682 274.633 121.556C277.147 117.319 280.939 113.991 285.463 112.052C286.084 111.786 285.691 110.813 285.069 111.079Z" fill="white"/>
<path d="M299.46 81.1643C298.644 84.2709 297.08 87.085 295.135 89.6527L295.131 89.6562C294.952 89.8957 294.766 90.1387 294.572 90.3712V90.3747C293.222 92.0406 291.764 93.6161 290.208 95.0908C284.615 100.43 278.296 104.951 271.441 108.521C260.655 114.163 248.601 117.499 236.662 117.689C236.571 117.692 236.479 117.692 236.388 117.692C236.244 117.696 236.1 117.696 235.959 117.696V101.688C236.188 101.251 236.423 100.814 236.662 100.381C239.765 94.7895 243.548 89.6052 247.926 84.9471C248.031 84.8309 248.14 84.7146 248.249 84.6019C249.895 82.862 251.62 81.2054 253.425 79.6322C260.37 73.5165 268.396 68.756 277.088 65.5965C279.891 64.5892 282.964 63.7827 285.953 63.6242C286.393 63.5995 286.829 63.5889 287.269 63.5925C290.022 63.6312 292.663 64.2828 294.917 65.8959C295.724 66.4766 296.448 67.1651 297.069 67.9423C297.287 68.2135 297.488 68.4917 297.681 68.777V68.7805C300.009 72.2675 300.55 77.0188 299.46 81.1643Z" fill="#F2F2F2"/>
<path d="M297.681 68.7762V68.7797C297.655 68.8025 297.627 68.8225 297.597 68.8396C292.392 71.8722 287.253 75.0151 282.18 78.2683C282.173 78.2719 282.17 78.2754 282.162 78.2789C282.142 78.2931 282.121 78.306 282.099 78.3176C276.884 81.6637 271.743 85.1224 266.676 88.6938C266.465 88.8418 266.25 88.9932 266.036 89.1447C262.537 91.6207 259.074 94.1496 255.648 96.7313C249.178 101.613 242.849 106.675 236.662 111.919C236.427 112.116 236.195 112.317 235.959 112.517V111.147C236.191 110.947 236.427 110.746 236.662 110.549C239.033 108.545 241.424 106.569 243.836 104.621C244.557 104.04 245.281 103.459 246.006 102.884C252.441 97.7527 259.02 92.8124 265.744 88.0634H265.747C267.07 87.13 268.394 86.2049 269.721 85.2879C273.491 82.6886 277.303 80.1515 281.157 77.6766C281.434 77.497 281.716 77.3174 281.997 77.1377C286.931 73.9819 291.929 70.9294 296.992 67.9802C297.016 67.9652 297.042 67.9522 297.069 67.9415C297.597 67.7301 298.092 68.4275 297.681 68.7762Z" fill="white"/>
<path d="M294.32 89.3325C287.701 92.8728 279.675 93.4902 272.528 91.2882C270.509 90.6618 268.569 89.8032 266.747 88.7295C266.164 88.387 265.716 89.3377 266.295 89.6772C273.016 93.6232 281.285 94.6057 288.794 92.6193C290.924 92.0511 292.981 91.2366 294.923 90.1922C295.516 89.8747 294.91 89.0171 294.32 89.3325Z" fill="white"/>
<path d="M244.793 102.219C244.465 100.375 244.353 98.4995 244.458 96.6297C244.695 92.3653 245.999 88.229 248.249 84.6014C249.897 82.862 251.623 81.2052 253.427 79.6309C253.444 79.7338 253.434 79.8394 253.397 79.9373C253.361 80.0352 253.3 80.122 253.22 80.1891C251.908 81.3891 250.738 82.7374 249.735 84.2069C246.152 89.4444 244.754 95.8765 245.838 102.132C245.855 102.203 245.855 102.277 245.835 102.348C245.816 102.418 245.779 102.482 245.728 102.534C245.652 102.6 245.561 102.645 245.464 102.664C245.366 102.684 245.265 102.677 245.17 102.645C245.075 102.613 244.991 102.557 244.925 102.482C244.859 102.408 244.813 102.317 244.793 102.219Z" fill="white"/>
<path d="M286.374 63.0857C283.1 67.1265 281.199 72.1083 280.947 77.3063C280.96 77.4448 281.026 77.5728 281.132 77.6626C281.238 77.7524 281.375 77.7968 281.513 77.786C281.651 77.7713 281.777 77.7042 281.866 77.5986C281.955 77.4931 282 77.3572 281.992 77.2191C282.253 72.2975 284.068 67.5861 287.175 63.7642C287.601 63.2401 286.802 62.5607 286.374 63.0857Z" fill="white"/>
<path d="M249.958 74.6593V74.6629C249.934 74.9658 249.906 75.2651 249.874 75.5645V75.5716C249.629 77.7026 249.248 79.8156 248.731 81.8973C248.485 82.9187 248.217 83.9331 247.926 84.9475C247.891 85.0778 247.852 85.2081 247.813 85.3349V85.3384C246.954 88.2886 245.928 91.1873 244.74 94.0204C242.553 99.2366 239.847 104.219 236.662 108.891C236.434 109.232 236.198 109.574 235.959 109.912V54.7558C236.195 54.7417 236.427 54.7417 236.662 54.7488C236.775 54.7488 236.887 54.7523 237 54.7593C237.992 54.8116 238.972 55.0024 239.912 55.3264C240.242 55.4356 240.562 55.5589 240.879 55.6962C244.715 57.3798 247.729 61.0921 249.037 65.1743C250.018 68.2315 250.215 71.4472 249.958 74.6593Z" fill="#F2F2F2"/>
<path d="M240.879 55.6953C240.87 55.7299 240.857 55.7631 240.84 55.7939C239.416 58.5659 238.023 61.3519 236.662 64.152C236.427 64.6345 236.191 65.1205 235.959 65.6031V63.208C236.191 62.729 236.426 62.25 236.662 61.771C237.714 59.6366 238.783 57.5116 239.869 55.3959C239.881 55.3712 239.895 55.3477 239.912 55.3255C240.235 54.8606 241.037 55.1776 240.879 55.6953Z" fill="white"/>
<path d="M250.071 75.2263C250.008 75.3391 249.944 75.4518 249.874 75.5645C248.841 77.3668 247.612 79.0489 246.21 80.58C243.515 83.5075 240.271 85.8738 236.662 87.5432C236.43 87.6559 236.195 87.7616 235.959 87.8602V86.7155C236.195 86.6099 236.43 86.5007 236.662 86.388C241.886 83.8923 246.225 79.8595 249.1 74.8284C249.142 74.7565 249.198 74.6944 249.266 74.6463C249.333 74.5982 249.41 74.5652 249.492 74.5495C249.573 74.5338 249.657 74.5358 249.737 74.5554C249.818 74.5749 249.893 74.6116 249.958 74.6628C250.003 74.6924 250.041 74.7304 250.07 74.7748C250.1 74.8191 250.121 74.8689 250.131 74.9212C250.142 74.9736 250.142 75.0275 250.131 75.0798C250.121 75.1322 250.1 75.182 250.071 75.2263Z" fill="white"/>
<path d="M236.661 11.623V38.3912H235.958V38.1059H0.703303V38.3912H0V11.623C0.00302011 8.54132 1.2266 5.58672 3.40221 3.40764C5.57782 1.22856 8.52772 0.00302493 11.6045 0H225.057C228.134 0.00302493 231.084 1.22856 233.259 3.40764C235.435 5.58672 236.658 8.54132 236.661 11.623Z" fill="#6C63FF"/>
<path d="M225.057 0H11.6045C8.52772 0.00302493 5.57782 1.22856 3.40221 3.40764C1.2266 5.58672 0.00302011 8.54132 0 11.623V164.483C0.00302011 167.565 1.2266 170.519 3.40221 172.699C5.57782 174.878 8.52772 176.103 11.6045 176.106H225.057C228.134 176.103 231.084 174.878 233.259 172.699C235.435 170.519 236.658 167.565 236.661 164.483V11.623C236.658 8.54132 235.435 5.58672 233.259 3.40764C231.084 1.22856 228.134 0.00302493 225.057 0ZM235.958 164.483C235.954 167.378 234.805 170.153 232.761 172.2C230.718 174.247 227.947 175.398 225.057 175.402H11.6045C8.71445 175.398 5.94383 174.247 3.90026 172.2C1.85669 170.153 0.70699 167.378 0.703303 164.483V11.623C0.70699 8.72835 1.85669 5.95332 3.90026 3.90649C5.94383 1.85965 8.71445 0.708118 11.6045 0.704425H225.057C227.947 0.708119 230.718 1.85965 232.761 3.90649C234.805 5.95332 235.954 8.72835 235.958 11.623V164.483Z" fill="#3F3D56"/>
<path d="M47.824 26.2389C51.7083 26.2389 54.8571 23.0851 54.8571 19.1946C54.8571 15.3042 51.7083 12.1504 47.824 12.1504C43.9398 12.1504 40.791 15.3042 40.791 19.1946C40.791 23.0851 43.9398 26.2389 47.824 26.2389Z" fill="white"/>
<path d="M188.838 26.2389C192.722 26.2389 195.871 23.0851 195.871 19.1946C195.871 15.3042 192.722 12.1504 188.838 12.1504C184.953 12.1504 181.805 15.3042 181.805 19.1946C181.805 23.0851 184.953 26.2389 188.838 26.2389Z" fill="white"/>
<path d="M68.1447 97.739H26.3065C24.534 97.737 22.8347 97.0308 21.5814 95.7755C20.3281 94.5202 19.6231 92.8182 19.6211 91.0429V71.2371C19.6231 69.4618 20.3281 67.7598 21.5814 66.5045C22.8347 65.2491 24.534 64.543 26.3065 64.541H68.1447C69.9171 64.543 71.6164 65.2491 72.8697 66.5045C74.1231 67.7598 74.8281 69.4618 74.8301 71.2371V91.0429C74.8281 92.8182 74.1231 94.5202 72.8697 95.7755C71.6164 97.0308 69.9171 97.737 68.1447 97.739Z" fill="#6C63FF"/>
<path d="M139.318 97.739H97.4803C95.7079 97.737 94.0086 97.0308 92.7552 95.7755C91.5019 94.5202 90.7969 92.8182 90.7949 91.0429V71.2371C90.7969 69.4618 91.5019 67.7598 92.7552 66.5045C94.0086 65.2491 95.7079 64.543 97.4803 64.541H139.318C141.091 64.543 142.79 65.2491 144.044 66.5045C145.297 67.7598 146.002 69.4618 146.004 71.2371V91.0429C146.002 92.8182 145.297 94.5202 144.044 95.7755C142.79 97.0308 141.091 97.737 139.318 97.739Z" fill="#6C63FF"/>
<path d="M139.318 148.913H97.4798C95.6536 148.911 93.9028 148.183 92.6115 146.89C91.3202 145.596 90.5939 143.843 90.5918 142.014V122.208C90.5939 120.378 91.3202 118.625 92.6115 117.332C93.9028 116.038 95.6536 115.311 97.4798 115.309H139.318C141.144 115.311 142.895 116.038 144.186 117.332C145.478 118.625 146.204 120.378 146.206 122.208V142.014C146.204 143.843 145.478 145.596 144.186 146.89C142.895 148.183 141.144 148.911 139.318 148.913Z" fill="#F2F2F2"/>
<path d="M68.0074 148.913H26.1692C24.3431 148.911 22.5923 148.183 21.301 146.89C20.0097 145.596 19.2833 143.843 19.2812 142.014V122.208C19.2833 120.378 20.0097 118.625 21.301 117.332C22.5923 116.038 24.3431 115.311 26.1692 115.309H68.0074C69.8336 115.311 71.5844 116.038 72.8757 117.332C74.167 118.625 74.8933 120.378 74.8954 122.208V142.014C74.8933 143.843 74.167 145.596 72.8757 146.89C71.5844 148.183 69.8336 148.911 68.0074 148.913Z" fill="#F2F2F2"/>
<path d="M210.492 148.913H168.654C166.827 148.911 165.077 148.183 163.785 146.89C162.494 145.596 161.768 143.843 161.766 142.014V122.208C161.768 120.378 162.494 118.625 163.785 117.332C165.077 116.038 166.827 115.311 168.654 115.309H210.492C212.318 115.311 214.069 116.038 215.36 117.332C216.651 118.625 217.378 120.378 217.38 122.208V142.014C217.378 143.843 216.651 145.596 215.36 146.89C214.069 148.183 212.318 148.911 210.492 148.913Z" fill="#F2F2F2"/>
<path d="M210.492 97.7798H168.654C166.827 97.7777 165.077 97.0502 163.785 95.7568C162.494 94.4635 161.768 92.7099 161.766 90.8808V71.0748C161.768 69.2457 162.494 67.4921 163.785 66.1987C165.077 64.9054 166.827 64.1778 168.654 64.1758H210.492C212.318 64.1778 214.069 64.9054 215.36 66.1987C216.651 67.4921 217.378 69.2457 217.38 71.0748V90.8808C217.378 92.7099 216.651 94.4635 215.36 95.7568C214.069 97.0502 212.318 97.7777 210.492 97.7798Z" fill="#F2F2F2"/>
<path d="M47.2258 92.5034C53.4914 92.5034 58.5707 87.416 58.5707 81.1404C58.5707 74.8647 53.4914 69.7773 47.2258 69.7773C40.9602 69.7773 35.8809 74.8647 35.8809 81.1404C35.8809 87.416 40.9602 92.5034 47.2258 92.5034Z" fill="white"/>
<path d="M46.1018 85.476C45.8465 85.4764 45.598 85.3938 45.3938 85.2404L45.3812 85.2309L42.715 83.1864C42.5914 83.0917 42.4876 82.9735 42.4096 82.8386C42.3315 82.7037 42.2808 82.5547 42.2603 82.4002C42.2398 82.2456 42.2499 82.0886 42.2901 81.9379C42.3302 81.7873 42.3996 81.6461 42.4943 81.5223C42.5889 81.3986 42.707 81.2947 42.8418 81.2167C42.9765 81.1387 43.1253 81.0881 43.2796 81.0677C43.434 81.0473 43.5908 81.0576 43.7411 81.098C43.8915 81.1383 44.0324 81.2079 44.1558 81.3029L45.8828 82.6292L49.9638 77.2985C50.0584 77.1749 50.1764 77.0711 50.3111 76.9931C50.4458 76.9152 50.5945 76.8646 50.7487 76.8442C50.9029 76.8238 51.0596 76.834 51.2099 76.8743C51.3602 76.9146 51.501 76.9841 51.6245 77.0789L51.5991 77.1134L51.6251 77.0794C51.8741 77.2711 52.037 77.5539 52.0781 77.8657C52.1192 78.1775 52.0352 78.493 51.8443 78.7428L47.0441 85.013C46.9331 85.1575 46.7904 85.2744 46.6269 85.3547C46.4635 85.435 46.2838 85.4765 46.1018 85.476Z" fill="#6C63FF"/>
<path d="M118.603 92.3413C124.868 92.3413 129.948 87.2539 129.948 80.9782C129.948 74.7026 124.868 69.6152 118.603 69.6152C112.337 69.6152 107.258 74.7026 107.258 80.9782C107.258 87.2539 112.337 92.3413 118.603 92.3413Z" fill="white"/>
<path d="M117.478 85.3119C117.223 85.3124 116.974 85.2297 116.77 85.0764L116.757 85.0668L114.091 83.0223C113.842 82.8309 113.678 82.5482 113.637 82.2363C113.596 81.9243 113.68 81.6088 113.871 81.359C114.062 81.1092 114.345 80.9457 114.656 80.9044C114.967 80.8631 115.283 80.9475 115.532 81.1388L117.259 82.4651L121.34 77.1344C121.434 77.0108 121.552 76.907 121.687 76.8291C121.822 76.7511 121.971 76.7005 122.125 76.6801C122.279 76.6597 122.436 76.67 122.586 76.7102C122.736 76.7505 122.877 76.82 123.001 76.9148L122.975 76.9494L123.001 76.9154C123.25 77.107 123.413 77.3898 123.454 77.7016C123.495 78.0135 123.411 78.3289 123.22 78.5787L118.42 84.8489C118.309 84.9934 118.166 85.1103 118.003 85.1906C117.84 85.2709 117.66 85.3124 117.478 85.3119Z" fill="#6C63FF"/>
<path d="M195.277 134.599C195.649 134.19 195.928 133.705 196.093 133.177C196.259 132.65 196.306 132.092 196.233 131.544C196.16 130.995 195.968 130.47 195.67 130.004C195.372 129.538 194.976 129.144 194.509 128.848L188.175 94.9746L180.473 97.8355L189.121 130.232C188.676 131.05 188.547 132.003 188.758 132.91C188.968 133.818 189.503 134.616 190.262 135.154C191.021 135.692 191.951 135.933 192.875 135.831C193.799 135.728 194.654 135.29 195.277 134.599Z" fill="#A0616A"/>
<path d="M133.813 82.9108C133.833 83.1212 133.835 83.3327 133.821 83.5434L148.798 95.0888L153.045 93.342L156.515 99.4173L149.296 103.242C148.713 103.551 148.046 103.662 147.394 103.558C146.742 103.455 146.142 103.143 145.683 102.668L130.712 87.21C129.92 87.389 129.092 87.3222 128.338 87.0183C127.585 86.7144 126.941 86.188 126.494 85.509C126.046 84.8299 125.816 84.0306 125.833 83.2171C125.85 82.4037 126.114 81.6147 126.59 80.9552C127.065 80.2957 127.73 79.7969 128.496 79.5251C129.262 79.2533 130.092 79.2214 130.876 79.4337C131.66 79.646 132.361 80.0924 132.886 80.7135C133.411 81.3347 133.734 82.1011 133.813 82.9108Z" fill="#A0616A"/>
<path d="M168.803 194.721H164.493L162.441 181.588L168.805 181.588L168.803 194.721Z" fill="#A0616A"/>
<path d="M169.903 198.906L156.002 198.906V198.73C156.002 198.018 156.142 197.313 156.414 196.656C156.686 195.998 157.084 195.401 157.587 194.898C158.089 194.395 158.686 193.995 159.342 193.723C159.998 193.451 160.702 193.311 161.413 193.311L169.903 193.311L169.903 198.906Z" fill="#2F2E41"/>
<path d="M184.979 194.721H180.668L178.617 181.588L184.98 181.588L184.979 194.721Z" fill="#A0616A"/>
<path d="M186.079 198.906L172.178 198.906V198.73C172.178 198.018 172.318 197.313 172.59 196.656C172.861 195.998 173.26 195.401 173.762 194.898C174.265 194.395 174.861 193.995 175.518 193.723C176.174 193.451 176.878 193.311 177.588 193.311L186.079 193.311L186.079 198.906Z" fill="#2F2E41"/>
<path d="M163.596 192.124C163.203 192.124 162.823 191.977 162.532 191.712C162.241 191.447 162.059 191.082 162.023 190.69L158.266 140.08L158.443 140.066L184.297 137.938L184.304 138.122L186.359 190.549C186.367 190.762 186.332 190.974 186.256 191.173C186.18 191.372 186.065 191.554 185.917 191.707C185.77 191.861 185.593 191.983 185.397 192.066C185.201 192.15 184.991 192.193 184.778 192.193H179.708C179.33 192.194 178.964 192.06 178.676 191.813C178.389 191.566 178.2 191.224 178.144 190.849L171.261 148.497C171.254 148.453 171.231 148.414 171.196 148.386C171.162 148.359 171.118 148.345 171.074 148.348C171.03 148.351 170.989 148.371 170.958 148.403C170.928 148.436 170.911 148.478 170.911 148.522L170.599 190.338C170.595 190.742 170.439 191.13 170.16 191.422C169.881 191.714 169.502 191.888 169.1 191.91L163.681 192.121C163.653 192.123 163.624 192.124 163.596 192.124Z" fill="#2F2E41"/>
<path d="M168.01 76.1217C172.78 76.1217 176.647 72.2487 176.647 67.471C176.647 62.6934 172.78 58.8203 168.01 58.8203C163.24 58.8203 159.373 62.6934 159.373 67.471C159.373 72.2487 163.24 76.1217 168.01 76.1217Z" fill="#A0616A"/>
<path d="M169.681 143.309C165.906 143.298 162.149 142.784 158.51 141.78C158.159 141.678 157.855 141.458 157.648 141.157C157.44 140.856 157.343 140.493 157.372 140.129C158.535 122.627 158.808 109.044 156.363 99.6463C155.321 95.6409 155.794 91.4224 157.661 88.0726C160.471 83.0314 165.635 79.9631 171.143 80.0691C171.406 80.0741 171.672 80.0835 171.941 80.0973C180.301 80.5284 186.815 88.1032 186.462 96.983L184.78 139.308C184.774 139.617 184.677 139.917 184.501 140.17C184.325 140.424 184.077 140.619 183.79 140.732C179.28 142.432 174.5 143.305 169.681 143.309Z" fill="#3F3D56"/>
<path d="M157.785 102.896L151.316 94.9554C151.132 94.7295 150.998 94.4665 150.925 94.1843C150.851 93.9021 150.84 93.6074 150.89 93.3202C150.941 93.033 151.052 92.7601 151.218 92.5201C151.383 92.2801 151.598 92.0785 151.848 91.9293L160.612 86.6989C161.771 85.7619 163.254 85.3237 164.736 85.4804C166.217 85.637 167.576 86.3757 168.515 87.5345C169.453 88.6933 169.895 90.1776 169.742 91.6619C169.59 93.1462 168.856 94.5093 167.701 95.4523L160.852 102.98C160.656 103.196 160.416 103.366 160.148 103.48C159.88 103.594 159.59 103.649 159.299 103.641C159.008 103.633 158.722 103.563 158.461 103.434C158.2 103.305 157.969 103.122 157.785 102.896Z" fill="#3F3D56"/>
<path d="M178.137 101.899C177.871 101.78 177.634 101.605 177.442 101.386C177.25 101.167 177.108 100.908 177.024 100.629L174.112 90.8709C173.48 89.5197 173.408 87.9725 173.913 86.5686C174.419 85.1648 175.459 84.0189 176.806 83.3823C178.154 82.7457 179.699 82.6704 181.101 83.1729C182.504 83.6753 183.651 84.7146 184.29 86.0627L189.922 94.5821C190.083 94.8253 190.189 95.1003 190.234 95.3884C190.279 95.6765 190.262 95.9709 190.183 96.2516C190.104 96.5323 189.966 96.7928 189.778 97.0151C189.589 97.2375 189.355 97.4166 189.092 97.5402L179.824 101.885C179.56 102.009 179.273 102.074 178.982 102.077C178.691 102.079 178.403 102.019 178.137 101.899Z" fill="#3F3D56"/>
<path d="M172.278 74.5701L165.876 73.1025C165.215 72.9511 164.422 72.6622 164.33 71.9899C164.207 71.0864 165.505 70.457 165.386 69.5531C165.27 68.6776 164.087 68.5648 163.244 68.3063C162.459 68.0304 161.811 67.4593 161.439 66.7138C161.067 65.9683 160.999 65.107 161.249 64.3121C160.337 65.5998 158.253 65.7101 157.069 64.6669C155.886 63.6236 155.659 61.7308 156.37 60.3213C156.754 59.6291 157.295 59.0373 157.951 58.5942C158.606 58.151 159.356 57.8691 160.141 57.7712C161.718 57.592 163.313 57.8898 164.72 58.6263C164.814 57.6283 166.058 57.2237 167.059 57.2148C169.138 57.2391 171.157 57.9119 172.837 59.1395C174.516 60.3671 175.771 62.0885 176.428 64.0641C177.656 68.0272 176.835 72.3715 173.399 74.6903L172.278 74.5701Z" fill="#2F2E41"/>
<path d="M236.763 198.999H102.783C102.69 198.999 102.601 198.962 102.535 198.896C102.469 198.83 102.432 198.741 102.432 198.647C102.432 198.554 102.469 198.464 102.535 198.398C102.601 198.332 102.69 198.295 102.783 198.295H236.763C236.856 198.295 236.945 198.332 237.011 198.398C237.077 198.464 237.114 198.554 237.114 198.647C237.114 198.741 237.077 198.83 237.011 198.896C236.945 198.962 236.856 198.999 236.763 198.999Z" fill="#3F3D56"/>
</g>
<defs>
<clipPath id="clip0_194_95404">
<rect width="300" height="199" fill="white"/>
</clipPath>
</defs>
</svg>
