<svg width="20" height="21" viewBox="0 0 20 21" fill="none" xmlns="http://www.w3.org/2000/svg">
<g clip-path="url(#clip0_350_13437)">
<path d="M13.3335 13.6575L10.0002 10.3241M10.0002 10.3241L6.66688 13.6575M10.0002 10.3241V17.8241M16.9919 15.6491C17.8047 15.206 18.4467 14.5049 18.8168 13.6563C19.1868 12.8078 19.2637 11.8601 19.0354 10.963C18.807 10.0659 18.2865 9.27038 17.5558 8.702C16.8251 8.13361 15.9259 7.82473 15.0002 7.82412H13.9502C13.698 6.84849 13.2278 5.94274 12.5752 5.17495C11.9225 4.40717 11.1042 3.79733 10.182 3.3913C9.25967 2.98526 8.25734 2.79359 7.25031 2.83069C6.24328 2.8678 5.25777 3.13271 4.36786 3.60551C3.47795 4.07832 2.7068 4.74671 2.1124 5.56044C1.51799 6.37417 1.11579 7.31207 0.936028 8.30362C0.756269 9.29517 0.803632 10.3146 1.07456 11.2852C1.34548 12.2558 1.83291 13.1523 2.50021 13.9075" stroke="#C00101" stroke-width="1.66667" stroke-linecap="round" stroke-linejoin="round"/>
</g>
<defs>
<clipPath id="clip0_350_13437">
<rect width="20" height="20" fill="white" transform="translate(0 0.324219)"/>
</clipPath>
</defs>
</svg>
