<svg width="37" height="28" viewBox="0 0 37 28" fill="none" xmlns="http://www.w3.org/2000/svg">
<g clip-path="url(#clip0_301_131)">
<path d="M0 0H37V28H0V0Z" fill="white"/>
<path d="M0 0H37V2.15322H0V0ZM0 4.30643H37V6.45965H0V4.30643ZM0 8.61287H37V10.7661H0V8.61287ZM0 12.9193H37V15.0725H0V12.9193ZM0 17.2339H37V19.3871H0V17.2339ZM0 21.5404H37V23.6936H0V21.5404ZM0 25.8468H37V28H0V25.8468Z" fill="#D80027"/>
<path d="M0 0H18.5V15.0725H0V0Z" fill="#2E52B2"/>
<path d="M3.44754 11.3722L3.15904 10.3242L2.8417 11.3722H1.88965L2.66138 12.0026L2.37288 13.0505L3.15904 12.4037L3.92357 13.0505L3.62785 12.0026L4.41401 11.3722H3.44754ZM7.50817 11.3722L7.21246 10.3242L6.90953 11.3722H5.95748L6.72922 12.0026L6.44072 13.0505L7.21246 12.4037L7.9914 13.0505L7.7029 12.0026L8.47464 11.3722H7.50817ZM11.5832 11.3722L11.2731 10.3242L10.9846 11.3722H10.0109L10.8043 12.0026L10.5013 13.0505L11.2731 12.4037L12.0665 13.0505L11.7635 12.0026L12.5353 11.3722H11.5832ZM15.6366 11.3722L15.3481 10.3242L15.0452 11.3722H14.0859L14.8649 12.0026L14.5764 13.0505L15.3481 12.4037L16.1271 13.0505L15.8169 12.0026L16.6103 11.3722H15.6366ZM7.21246 6.16515L6.90953 7.2131H5.95748L6.72922 7.85989L6.44072 8.89147L7.21246 8.25287L7.9914 8.89147L7.7029 7.85989L8.47464 7.2131H7.50817L7.21246 6.16515ZM3.15904 6.16515L2.8417 7.2131H1.88965L2.66138 7.85989L2.37288 8.89147L3.15904 8.25287L3.92357 8.89147L3.62785 7.85989L4.41401 7.2131H3.44754L3.15904 6.16515ZM11.2731 6.16515L10.9846 7.2131H10.0109L10.8043 7.85989L10.5013 8.89147L11.2731 8.25287L12.0665 8.89147L11.7635 7.85989L12.5353 7.2131H11.5832L11.2731 6.16515ZM15.3481 6.16515L15.0452 7.2131H14.0859L14.8649 7.85989L14.5764 8.89147L15.3481 8.25287L16.1271 8.89147L15.8169 7.85989L16.6103 7.2131H15.6366L15.3481 6.16515ZM3.15904 2.02246L2.8417 3.05404H1.88965L2.66138 3.70082L2.37288 4.74059L3.15904 4.09381L3.92357 4.74059L3.62785 3.70082L4.41401 3.05404H3.44754L3.15904 2.02246ZM7.21246 2.02246L6.90953 3.05404H5.95748L6.72922 3.70082L6.44072 4.74059L7.21246 4.09381L7.9914 4.74059L7.7029 3.70082L8.47464 3.05404H7.50817L7.21246 2.02246ZM11.2731 2.02246L10.9846 3.05404H10.0109L10.8043 3.70082L10.5013 4.74059L11.2731 4.09381L12.0665 4.74059L11.7635 3.70082L12.5353 3.05404H11.5832L11.2731 2.02246ZM15.3481 2.02246L15.0452 3.05404H14.0859L14.8649 3.70082L14.5764 4.74059L15.3481 4.09381L16.1271 4.74059L15.8169 3.70082L16.6103 3.05404H15.6366L15.3481 2.02246Z" fill="white"/>
</g>
<defs>
<clipPath id="clip0_301_131">
<rect width="37" height="28" rx="4" fill="white"/>
</clipPath>
</defs>
</svg>
